STARTFONT 2.1
COMMENT $Xorg: $
COMMENT ISO10646-1 extension by Markus Kuhn <mkuhn@acm.org>, 2001-03-20
COMMENT  (c) Copyright Bigelow & Holmes 1986, 1985. Lucida is a registered
COMMENT  trademark of Bigelow & Holmes. See LEGAL NOTICE file for terms 
COMMENT  of the license. 
FONT -B&H-Lucida-Bold-I-Normal-Sans-34-240-100-100-P-215-ISO10646-1
SIZE 24 100 100
FONTBOUNDINGBOX 71 52 -24 -15
STARTPROPERTIES 22
COMMENT Begin LogicalFontDescription
FONTNAME_REGISTRY ""
FOUNDRY "B&H"
FAMILY_NAME "Lucida"
WEIGHT_NAME "Bold"
SLANT "I"
SETWIDTH_NAME "Normal"
ADD_STYLE_NAME "Sans"
PIXEL_SIZE 34
POINT_SIZE 240
RESOLUTION_X 100
RESOLUTION_Y 100
SPACING "P"
AVERAGE_WIDTH 215
CHARSET_REGISTRY "ISO10646"
CHARSET_ENCODING "1"
COMMENT END LogicalFontDescription
FONT_ASCENT 31
FONT_DESCENT 8
DEFAULT_CHAR 0
COPYRIGHT "Copyright Bigelow & Holmes 1986, 1985."
FACE_NAME "Lucida Sans Bold Italic"
X_HEIGHT 18
CAP_HEIGHT 25
ENDPROPERTIES
CHARS 723
STARTCHAR char0
ENCODING 0
SWIDTH 813 0
DWIDTH 28 0
BBX 27 25 3 0
BITMAP
AAAAAAA0
00000000
80000020
00000000
80000020
00000000
80000020
00000000
80000020
00000000
80000020
00000000
80000020
00000000
80000020
00000000
80000020
00000000
80000020
00000000
80000020
00000000
80000020
00000000
AAAAAAA0
ENDCHAR
STARTCHAR space
ENCODING 32
SWIDTH 343 0
DWIDTH 12 0
BBX 1 1 0 0
BITMAP
00
ENDCHAR
STARTCHAR exclam
ENCODING 33
SWIDTH 343 0
DWIDTH 12 0
BBX 11 25 3 0
BITMAP
07E0
0FE0
0FE0
0FC0
0FC0
0FC0
0FC0
0F80
1F80
1F80
1F80
1F00
1F00
1F00
1E00
1E00
3E00
0000
0000
0000
0000
7E00
7E00
FE00
FC00
ENDCHAR
STARTCHAR quotedbl
ENCODING 34
SWIDTH 530 0
DWIDTH 18 0
BBX 16 11 5 15
BITMAP
FE7F
FC3F
FC3F
FC3F
7C3E
7C3E
7C3E
7C3E
781E
781E
781E
ENDCHAR
STARTCHAR numbersign
ENCODING 35
SWIDTH 687 0
DWIDTH 23 0
BBX 22 25 3 0
BITMAP
000E3C
001C38
001C38
003C70
003870
0078E0
0070E0
3FFFFC
3FFFFC
3FFFF8
01C380
03C780
038700
078F00
070E00
7FFFF0
7FFFF0
FFFFF0
1C3800
1C7800
387000
38F000
70E000
70E000
F1C000
ENDCHAR
STARTCHAR dollar
ENCODING 36
SWIDTH 687 0
DWIDTH 23 0
BBX 20 33 4 -4
BITMAP
000F00
000E00
001E00
001E00
007FE0
01FFF0
03FFF0
07FFF0
07DC60
0FDC20
0FDC00
0FD800
0FF800
07F800
07F800
03FC00
01FF00
00FF80
00FF80
00FFC0
00FFC0
00EFC0
00CFC0
40CFC0
71CF80
FFFF80
FFFF00
FFFE00
7FF800
03C000
03C000
03C000
03C000
ENDCHAR
STARTCHAR percent
ENCODING 37
SWIDTH 908 0
DWIDTH 31 0
BBX 28 25 4 0
BITMAP
07C001F0
1FF003C0
3FF807C0
7FF80F80
7CF81F00
F8F83E00
F8F87C00
F8F8F800
F9F1F000
FFF1E000
7FE3C000
7FC78000
1F0F0000
001E0F80
003C3FE0
00787FE0
00F0FFF0
01F1F9F0
03E1F1F0
07C1F1F0
0F81F3E0
1F01FFE0
3E01FFC0
3C00FF80
F8003E00
ENDCHAR
STARTCHAR ampersand
ENCODING 38
SWIDTH 816 0
DWIDTH 28 0
BBX 26 25 3 0
BITMAP
000FE000
003FF000
00FFF800
00FFFC00
01FC7C00
01F87C00
01F87800
01F9F800
01FFF000
00FFC000
00FF07C0
07FE07C0
0FFF0780
3F3F8780
7E3F8F80
7C1FCF00
FC1FDF00
FC0FFE00
FC0FFC00
FE07F800
FF07F000
7FFFF800
3FFFF800
1FFFFC00
07F0FE00
ENDCHAR
STARTCHAR quotesingle
ENCODING 39
SWIDTH 265 0
DWIDTH 9 0
BBX 7 12 5 14
BITMAP
FE
FE
FE
FC
7C
7C
7C
7C
7C
7C
78
78
ENDCHAR
STARTCHAR parenleft
ENCODING 40
SWIDTH 386 0
DWIDTH 13 0
BBX 13 32 3 -6
BITMAP
0008
0018
0078
00F8
01F0
03E0
07E0
0FC0
0F80
1F80
3F80
3F00
7F00
7E00
7E00
FE00
FE00
FE00
FC00
FC00
FC00
FC00
FC00
FC00
7C00
7E00
3E00
3F00
1F00
0F00
0600
0200
ENDCHAR
STARTCHAR parenright
ENCODING 41
SWIDTH 386 0
DWIDTH 13 0
BBX 13 32 1 -6
BITMAP
0200
0380
03C0
03E0
03E0
03F0
01F0
01F8
01F8
01F8
01F8
01F8
01F8
01F8
01F8
01F8
01F8
03F8
03F0
03F0
07F0
07E0
07E0
0FC0
1F80
1F80
3F00
7E00
7C00
F000
E000
8000
ENDCHAR
STARTCHAR asterisk
ENCODING 42
SWIDTH 464 0
DWIDTH 16 0
BBX 13 13 5 12
BITMAP
07C0
03C0
2388
3398
7978
78F8
F8F8
0880
1D80
79C0
79E0
3180
1100
ENDCHAR
STARTCHAR plus
ENCODING 43
SWIDTH 687 0
DWIDTH 23 0
BBX 20 21 4 0
BITMAP
003C00
003800
003800
007800
007800
007800
007000
007000
7FFFF0
FFFFF0
FFFFF0
FFFFE0
00E000
00E000
01E000
01E000
01E000
01E000
01C000
01C000
03C000
ENDCHAR
STARTCHAR comma
ENCODING 44
SWIDTH 343 0
DWIDTH 12 0
BBX 9 13 2 -6
BITMAP
3F80
3F80
3F80
3F00
7F00
7F00
7F00
1E00
1E00
3C00
FC00
F000
C000
ENDCHAR
STARTCHAR hyphen
ENCODING 45
SWIDTH 289 0
DWIDTH 10 0
BBX 8 4 3 9
BITMAP
7F
FF
FF
FE
ENDCHAR
STARTCHAR period
ENCODING 46
SWIDTH 343 0
DWIDTH 12 0
BBX 8 7 2 0
BITMAP
7F
7F
7F
7E
FE
FE
FE
ENDCHAR
STARTCHAR slash
ENCODING 47
SWIDTH 596 0
DWIDTH 20 0
BBX 26 32 0 -6
BITMAP
000007C0
00000F80
00001F00
00001F00
00003E00
00007C00
00007C00
0000F800
0001F000
0001F000
0003E000
0003C000
0007C000
000F8000
000F0000
001F0000
003E0000
003C0000
007C0000
00F80000
00F00000
01F00000
03E00000
03C00000
07C00000
0F800000
0F800000
1F000000
3E000000
3E000000
7C000000
F8000000
ENDCHAR
STARTCHAR zero
ENCODING 48
SWIDTH 687 0
DWIDTH 23 0
BBX 22 25 3 0
BITMAP
003F00
00FFC0
03FFF0
07FFF0
0FE3F8
1FC1F8
1F81F8
3F81FC
3F01FC
7F01FC
7F01FC
7F01FC
FE03F8
FE03F8
FE03F8
FE03F8
FE07F0
FE07F0
FE07E0
7E0FC0
7F1FC0
7FFF80
3FFE00
1FFC00
07F000
ENDCHAR
STARTCHAR one
ENCODING 49
SWIDTH 687 0
DWIDTH 23 0
BBX 12 25 8 0
BITMAP
7FF0
7FF0
7FE0
7FE0
0FE0
0FE0
0FE0
0FC0
1FC0
1FC0
1FC0
1FC0
1F80
3F80
3F80
3F80
3F80
3F00
7F00
7F00
7F00
7F00
7E00
FE00
FE00
ENDCHAR
STARTCHAR two
ENCODING 50
SWIDTH 687 0
DWIDTH 23 0
BBX 22 25 3 0
BITMAP
00FF80
07FFF0
07FFF8
07FFF8
0C03FC
0001FC
0001FC
0001FC
0001F8
0003F8
0007F0
000FE0
003FC0
007F00
00FE00
03F800
07F000
0FC000
1F8000
3F0000
7F0000
7FFFE0
FFFFE0
FFFFE0
FFFFC0
ENDCHAR
STARTCHAR three
ENCODING 51
SWIDTH 687 0
DWIDTH 23 0
BBX 20 25 4 0
BITMAP
01FF00
07FFC0
07FFE0
0FFFF0
0C0FF0
0007F0
0007F0
0007E0
000FC0
003F80
0FFE00
0FF800
0FFF00
0FFF80
007FC0
001FC0
000FC0
000FC0
001FC0
001FC0
607FC0
7FFF80
FFFF00
FFFC00
3FF000
ENDCHAR
STARTCHAR four
ENCODING 52
SWIDTH 687 0
DWIDTH 23 0
BBX 21 25 2 0
BITMAP
0001F8
0003F0
0007F0
000FF0
001FF0
003FF0
007FF0
00FBE0
01F7E0
03E7E0
07C7E0
0FC7E0
0F87C0
1F07C0
3E0FC0
7FFFF8
7FFFF8
FFFFF0
FFFFF0
001F80
001F80
001F80
001F00
003F00
003F00
ENDCHAR
STARTCHAR five
ENCODING 53
SWIDTH 687 0
DWIDTH 23 0
BBX 21 25 4 0
BITMAP
07FFF8
07FFF8
07FFF0
07FFF0
0F0000
0F0000
0E0000
0E0000
1FE000
1FFC00
1FFE00
1FFF00
00FF80
003FC0
001FC0
001FC0
001FC0
001FC0
001FC0
003FC0
607F80
7FFF00
FFFE00
FFFC00
7FE000
ENDCHAR
STARTCHAR six
ENCODING 54
SWIDTH 687 0
DWIDTH 23 0
BBX 22 25 4 0
BITMAP
001FF0
00FFFC
01FFFC
07FFFC
0FF038
0FE008
1FC000
3F8000
3F8000
7F3F00
7FFFC0
7FFFE0
FFFFF0
FF8FF0
FE07F0
FE03F0
FE03F0
FE03F0
FE03F0
7E07E0
7F0FC0
3FFFC0
1FFF80
0FFE00
03F800
ENDCHAR
STARTCHAR seven
ENCODING 55
SWIDTH 687 0
DWIDTH 23 0
BBX 19 25 7 0
BITMAP
7FFFE0
7FFFE0
7FFFE0
FFFFC0
0007C0
000FC0
001F80
003F00
007E00
00FC00
00F800
01F800
03F000
07E000
07C000
0FC000
1F8000
1F8000
3F0000
3F0000
7E0000
7E0000
FE0000
FE0000
FE0000
ENDCHAR
STARTCHAR eight
ENCODING 56
SWIDTH 687 0
DWIDTH 23 0
BBX 21 25 4 0
BITMAP
003F80
00FFE0
03FFF0
07FFF8
07E1F8
0FC1F8
0F80F8
0FC1F0
0FE3F0
07F7E0
07FF80
03FF00
07FFC0
1FFFE0
3F1FE0
7E0FF0
7C03F0
FC03F0
FC03F0
FC07E0
FE0FE0
FFFFC0
7FFF80
3FFE00
0FF000
ENDCHAR
STARTCHAR nine
ENCODING 57
SWIDTH 687 0
DWIDTH 23 0
BBX 22 25 3 0
BITMAP
007F00
01FFC0
07FFE0
0FFFF0
0FC3F8
1F81F8
3F01FC
3F01FC
3F01FC
3F01FC
3F01FC
3FC7FC
3FFFFC
1FFFF8
0FFFF8
03F3F8
0007F0
0007F0
000FE0
401FC0
707FC0
FFFF80
FFFE00
FFFC00
3FE000
ENDCHAR
STARTCHAR colon
ENCODING 58
SWIDTH 343 0
DWIDTH 12 0
BBX 10 18 3 0
BITMAP
1FC0
1FC0
1FC0
1F80
1F80
1F80
3F80
0000
0000
0000
0000
7F00
7E00
7E00
7E00
FE00
FE00
FC00
ENDCHAR
STARTCHAR semicolon
ENCODING 59
SWIDTH 343 0
DWIDTH 12 0
BBX 11 24 2 -6
BITMAP
0FE0
0FE0
0FE0
0FC0
0FC0
0FC0
1FC0
0000
0000
0000
0000
0000
3F80
3F00
3F00
7F00
7F00
7F00
1E00
1E00
3C00
FC00
F000
C000
ENDCHAR
STARTCHAR less
ENCODING 60
SWIDTH 687 0
DWIDTH 23 0
BBX 22 21 4 0
BITMAP
000004
00001C
00007C
0001F8
0007F8
001FE0
007F80
01FE00
07F800
3FE000
FF8000
3F8000
0FE000
07F800
01FC00
007F00
003FC0
000FE0
0003E0
0000C0
000040
ENDCHAR
STARTCHAR equal
ENCODING 61
SWIDTH 687 0
DWIDTH 23 0
BBX 22 12 3 4
BITMAP
3FFFFC
3FFFFC
3FFFF8
3FFFF8
000000
000000
000000
000000
7FFFF0
7FFFF0
FFFFF0
FFFFF0
ENDCHAR
STARTCHAR greater
ENCODING 62
SWIDTH 687 0
DWIDTH 23 0
BBX 22 21 2 0
BITMAP
080000
0C0000
1F0000
1FC000
0FF000
03F800
00FE00
007F80
001FC0
0007F0
0007FC
001FF0
007F80
01FE00
07F800
1FE000
7F8000
7E0000
780000
E00000
800000
ENDCHAR
STARTCHAR question
ENCODING 63
SWIDTH 539 0
DWIDTH 18 0
BBX 17 25 4 0
BITMAP
1FF800
7FFE00
7FFF00
7FFF80
E07F80
803F80
003F80
003F00
007F00
007E00
00FC00
03F000
07E000
0FC000
1FC000
3F8000
3F8000
3F0000
000000
000000
000000
7F0000
7E0000
FE0000
FE0000
ENDCHAR
STARTCHAR at
ENCODING 64
SWIDTH 833 0
DWIDTH 28 0
BBX 26 25 3 0
BITMAP
000FE000
007FF800
01FFFE00
03F01F00
07800780
0F000380
1E0001C0
3C0FF1C0
383FE0C0
7070E0C0
70E0E0C0
E1C1E0C0
E381C1C0
E383C1C0
E387C180
E38FC380
E79DC700
E3F9FE00
63F1FC00
71C1F000
38000000
3E030000
1FFF0000
07FF8000
01FC0000
ENDCHAR
STARTCHAR A
ENCODING 65
SWIDTH 771 0
DWIDTH 26 0
BBX 25 25 1 0
BITMAP
0007F000
0007F000
000FF800
000FF800
001FF800
001FF800
003FF800
003DFC00
007DFC00
00F8FC00
00F8FC00
01F0FC00
01F0FE00
03E0FE00
03E07E00
07FFFE00
07FFFE00
0FFFFF00
0FFFFF00
1F003F00
1E003F00
3E003F00
7C003F80
7C003F80
F8001F80
ENDCHAR
STARTCHAR B
ENCODING 66
SWIDTH 660 0
DWIDTH 22 0
BBX 21 25 3 0
BITMAP
07FFC0
07FFF0
0FFFF0
0FFFF8
0FC3F8
0FC3F8
0FC3F8
1F83F0
1F87F0
1F8FE0
1FFF80
1FFF00
3FFE00
3FFF80
3F1FE0
3F07E0
3F07F0
7E07F0
7E07F0
7E07F0
7E1FE0
7FFFE0
FFFFC0
FFFF80
FFFC00
ENDCHAR
STARTCHAR C
ENCODING 67
SWIDTH 737 0
DWIDTH 25 0
BBX 25 25 3 0
BITMAP
0007FC00
003FFF80
00FFFF80
03FFFF80
07FC0F00
0FF00100
1FE00000
1FC00000
3F800000
3F000000
7F000000
7F000000
FE000000
FE000000
FE000000
FE000000
FE000000
FE000000
FF000000
7F800800
7FC07800
3FFFF800
1FFFF800
0FFFF800
03FF0000
ENDCHAR
STARTCHAR D
ENCODING 68
SWIDTH 822 0
DWIDTH 28 0
BBX 27 25 3 0
BITMAP
07FFF800
07FFFF00
0FFFFF80
0FFFFFC0
0FE07FC0
0FE01FE0
0FC01FE0
1FC00FE0
1FC00FE0
1FC00FE0
1FC00FE0
1F800FE0
3F800FE0
3F801FC0
3F801FC0
3F801FC0
3F003F80
7F007F80
7F00FF00
7F01FE00
7F07FE00
7FFFF800
FFFFF000
FFFFC000
FFFE0000
ENDCHAR
STARTCHAR E
ENCODING 69
SWIDTH 642 0
DWIDTH 22 0
BBX 22 25 3 0
BITMAP
07FFFC
07FFFC
07FFF8
0FFFF8
0FE000
0FE000
0FC000
0FC000
1FC000
1FC000
1FFFC0
1FFFC0
1FFF80
3FFF80
3F8000
3F8000
3F0000
3F0000
7F0000
7F0000
7F0000
7FFFE0
7FFFC0
FFFFC0
FFFFC0
ENDCHAR
STARTCHAR F
ENCODING 70
SWIDTH 614 0
DWIDTH 21 0
BBX 22 25 3 0
BITMAP
07FFFC
07FFFC
07FFF8
0FFFF8
0FE000
0FE000
0FC000
0FC000
1FC000
1FC000
1FC000
1FFFC0
1FFF80
3FFF80
3FFF80
3F8000
3F0000
3F0000
7F0000
7F0000
7F0000
7E0000
7E0000
FE0000
FE0000
ENDCHAR
STARTCHAR G
ENCODING 71
SWIDTH 755 0
DWIDTH 26 0
BBX 25 25 3 0
BITMAP
0007FC00
003FFF80
00FFFF80
03FFFF80
07FC0F00
0FF00100
1FE00000
1FC00000
3F800000
3F000000
7F000000
7F000000
FE000000
FE00FE00
FE00FC00
FE00FC00
FE00FC00
FE01FC00
FF01F800
7F81F800
7FC1F800
3FFFF800
1FFFF800
0FFFF000
03FF8000
ENDCHAR
STARTCHAR H
ENCODING 72
SWIDTH 813 0
DWIDTH 28 0
BBX 27 25 3 0
BITMAP
07F00FE0
07E00FE0
0FE00FE0
0FE00FC0
0FE00FC0
0FC01FC0
0FC01FC0
1FC01FC0
1FC01F80
1FC01F80
1FFFFF80
1FFFFF80
3FFFFF80
3FFFFF00
3F803F00
3F007F00
3F007F00
7F007F00
7F007E00
7F007E00
7E00FE00
7E00FE00
FE00FE00
FE00FC00
FE01FC00
ENDCHAR
STARTCHAR I
ENCODING 73
SWIDTH 361 0
DWIDTH 12 0
BBX 11 25 3 0
BITMAP
07E0
0FE0
0FE0
0FC0
0FC0
0FC0
1FC0
1FC0
1F80
1F80
1F80
1F80
3F80
3F00
3F00
3F00
3F00
7F00
7F00
7E00
7E00
7E00
FE00
FE00
FC00
ENDCHAR
STARTCHAR J
ENCODING 74
SWIDTH 502 0
DWIDTH 17 0
BBX 19 31 0 -6
BITMAP
000FE0
000FE0
000FE0
000FC0
000FC0
000FC0
001FC0
001FC0
001F80
001F80
001F80
003F80
003F80
003F00
003F00
003F00
003F00
007F00
007F00
007E00
007E00
007E00
00FE00
00FE00
00FC00
00FC00
41FC00
7FF800
FFF000
FFE000
7F8000
ENDCHAR
STARTCHAR K
ENCODING 75
SWIDTH 753 0
DWIDTH 26 0
BBX 23 25 3 0
BITMAP
07E03E
07E07C
0FE0F8
0FE1F0
0FC1F0
0FC3E0
0FC7C0
1FCF80
1FCF00
1F9F00
1FBE00
1FFE00
3FFE00
3FFF00
3F7F80
3F3F80
3F1FC0
7F1FC0
7F0FE0
7F0FE0
7E07F0
7E07F0
FE03F8
FE03F8
FE01FC
ENDCHAR
STARTCHAR L
ENCODING 76
SWIDTH 623 0
DWIDTH 21 0
BBX 19 25 3 0
BITMAP
07F000
07E000
0FE000
0FE000
0FE000
0FE000
0FC000
1FC000
1FC000
1FC000
1FC000
1F8000
3F8000
3F8000
3F8000
3F8000
3F0000
7F0000
7F0000
7F0000
7F0000
7FFFE0
FFFFE0
FFFFE0
FFFFC0
ENDCHAR
STARTCHAR M
ENCODING 77
SWIDTH 940 0
DWIDTH 32 0
BBX 31 25 3 0
BITMAP
07F801FE
07F801FE
0FF803FE
0FFC03FC
0FFC07FC
0FFC07FC
0FFC0FFC
1FFC0FFC
1F7C1FF8
1F7C3FF8
1F7C3DF8
1E7E7DF8
3E7E79F8
3E7EF3F0
3E7EF3F0
3E7FE3F0
3E7FE3F0
7C3FC3F0
7C3FC7E0
7C3F87E0
7C3F87E0
7C3F07E0
F83E07E0
F8000FC0
F8000FC0
ENDCHAR
STARTCHAR N
ENCODING 78
SWIDTH 789 0
DWIDTH 27 0
BBX 26 25 3 0
BITMAP
07E007C0
07E007C0
0FF007C0
0FF00F80
0FF80F80
0FF80F80
0FFC0F80
1FFC0F80
1FFE1F00
1FFE1F00
1F7E1F00
1F7F1F00
3E3F1F00
3E3FBE00
3E1FBE00
3E1FFE00
3E0FFE00
7C0FFE00
7C07FC00
7C07FC00
7C03FC00
7C03FC00
F801FC00
F801F800
F800F800
ENDCHAR
STARTCHAR O
ENCODING 79
SWIDTH 855 0
DWIDTH 29 0
BBX 27 25 3 0
BITMAP
000FF800
003FFE00
00FFFF80
03FFFFC0
07F83FC0
0FE01FE0
1FC00FE0
1F800FE0
3F800FE0
3F000FE0
7F000FE0
7F000FE0
FE000FE0
FE000FE0
FE001FC0
FE001FC0
FE003F80
FE003F80
FF007F00
7F00FE00
7FC3FC00
3FFFF800
1FFFE000
0FFFC000
01FE0000
ENDCHAR
STARTCHAR P
ENCODING 80
SWIDTH 645 0
DWIDTH 22 0
BBX 22 25 3 0
BITMAP
07FFE0
07FFF8
0FFFF8
0FFFFC
0FC1FC
0FC1FC
0FC1FC
1FC1FC
1F81F8
1F83F8
1F87F0
1FFFE0
3FFFC0
3FFF80
3FFC00
3F0000
3F0000
7F0000
7E0000
7E0000
7E0000
7E0000
FE0000
FC0000
FC0000
ENDCHAR
STARTCHAR Q
ENCODING 81
SWIDTH 855 0
DWIDTH 29 0
BBX 28 31 3 -6
BITMAP
000FF800
003FFE00
00FFFF80
03FFFF80
07F83FC0
0FE01FE0
1FC00FE0
1F800FE0
3F800FE0
3F000FE0
7F000FE0
7F000FE0
FE000FE0
FE000FE0
FE001FC0
FE001FC0
FE003F80
FE003F80
FF007F00
7F00FE00
7FC3FC00
3FFFF800
1FFFE000
0FFFC000
01FFE000
0007FE00
0003FFC0
0000FFF0
00007FC0
00001F80
00000300
ENDCHAR
STARTCHAR R
ENCODING 82
SWIDTH 708 0
DWIDTH 24 0
BBX 22 25 3 0
BITMAP
07FFE0
07FFF8
0FFFFC
0FFFFC
0FC1FC
0FC1FC
0FC1FC
1F81FC
1F81F8
1F83F0
1F87F0
1FFFE0
3FFF80
3FFF00
3FFF00
3F3F80
3F1F80
7F1F80
7E1FC0
7E0FC0
7E0FE0
7E0FE0
FE07E0
FC07F0
FC07F0
ENDCHAR
STARTCHAR S
ENCODING 83
SWIDTH 639 0
DWIDTH 22 0
BBX 20 25 3 0
BITMAP
007FC0
01FFF0
03FFF0
07FFE0
0FE060
0FC000
1FC000
1FC000
1FE000
0FF000
0FFC00
07FE00
03FF00
01FF80
00FFC0
003FC0
001FC0
001FC0
001FC0
001FC0
603F80
7FFF80
FFFE00
FFFC00
FFE000
ENDCHAR
STARTCHAR T
ENCODING 84
SWIDTH 747 0
DWIDTH 25 0
BBX 25 25 5 0
BITMAP
7FFFFF80
FFFFFF80
FFFFFF80
FFFFFF00
007E0000
007E0000
00FE0000
00FE0000
00FC0000
00FC0000
00FC0000
01FC0000
01FC0000
01FC0000
01F80000
01F80000
03F80000
03F80000
03F80000
03F00000
03F00000
07F00000
07F00000
07F00000
07E00000
ENDCHAR
STARTCHAR U
ENCODING 85
SWIDTH 759 0
DWIDTH 26 0
BBX 24 25 4 0
BITMAP
1FC03F
1F803F
1F803F
1F803E
3F807E
3F807E
3F007E
3F007E
3F007C
7F00FC
7F00FC
7E00FC
7E00FC
7E00F8
FE01F8
FE01F8
FE01F8
FE01F0
FE03F0
FE03E0
7F07E0
7FFFC0
3FFF80
1FFF00
03FC00
ENDCHAR
STARTCHAR V
ENCODING 86
SWIDTH 765 0
DWIDTH 26 0
BBX 24 25 6 0
BITMAP
FE001F
FE001E
FE003E
7E003C
7E007C
7F00F8
7F00F0
7F01F0
7F01E0
3F03E0
3F03C0
3F87C0
3F8780
3F8F80
3F8F00
1F9F00
1F9E00
1FBE00
1FFC00
1FFC00
1FF800
0FF000
0FF000
0FE000
0FE000
ENDCHAR
STARTCHAR W
ENCODING 87
SWIDTH 991 0
DWIDTH 34 0
BBX 31 25 6 0
BITMAP
FC07E03E
FC07E03C
FC07E07C
FC0FE078
FC0FE0F8
FC1FE0F0
FC1FE1F0
FC1FE1F0
FC3FE1E0
FC3FE3E0
FC7FE3C0
7C7FE7C0
7CF7E780
7EF7EF80
7EF7EF00
7FE7FF00
7FE7FE00
7FC7FE00
7FC7FE00
7FC7FC00
7F87FC00
7F87F800
7F07F800
7F07F000
7F07F000
ENDCHAR
STARTCHAR X
ENCODING 88
SWIDTH 696 0
DWIDTH 24 0
BBX 27 25 0 0
BITMAP
07F807E0
03F80FC0
03FC0F80
01FC1F00
01FC3E00
00FE7C00
00FEF800
00FFF800
007FF000
007FE000
003FC000
003F8000
003F8000
007FC000
007FC000
00FFE000
01FFE000
03FFE000
07E7F000
07C7F000
0F87F000
1F03F800
3E03F800
7E01FC00
FC01FC00
ENDCHAR
STARTCHAR Y
ENCODING 89
SWIDTH 681 0
DWIDTH 23 0
BBX 22 25 5 0
BITMAP
FE00FC
7E00F8
7E01F0
7F03E0
3F07C0
3F87C0
3F8F80
1F9F00
1FFE00
1FFE00
0FFC00
0FF800
07F000
07F000
07E000
07E000
0FE000
0FE000
0FE000
0FC000
0FC000
1FC000
1FC000
1FC000
1F8000
ENDCHAR
STARTCHAR Z
ENCODING 90
SWIDTH 687 0
DWIDTH 23 0
BBX 24 25 2 0
BITMAP
03FFFF
07FFFF
07FFFF
07FFFE
0001FE
0003FC
0007F8
000FF0
001FE0
001FE0
003FC0
007F80
00FF00
01FE00
03FC00
07FC00
07F800
0FF000
1FE000
3FC000
7F8000
7FFFF0
7FFFF0
FFFFF0
FFFFF0
ENDCHAR
STARTCHAR bracketleft
ENCODING 91
SWIDTH 386 0
DWIDTH 13 0
BBX 15 32 1 -6
BITMAP
03FE
03FE
03FC
03FC
07E0
07E0
07E0
07C0
07C0
0FC0
0FC0
0FC0
0F80
0F80
1F80
1F80
1F80
1F00
1F00
3F00
3F00
3F00
3E00
3E00
7E00
7E00
7E00
7C00
7FC0
FF80
FF80
FF80
ENDCHAR
STARTCHAR backslash
ENCODING 92
SWIDTH 566 0
DWIDTH 19 0
BBX 12 32 6 -6
BITMAP
F000
F800
7800
7800
7800
7C00
3C00
3C00
3C00
3C00
1E00
1E00
1E00
1E00
0F00
0F00
0F00
0F00
0780
0780
0780
0780
07C0
03C0
03C0
03C0
03E0
01E0
01E0
01E0
01F0
00F0
ENDCHAR
STARTCHAR bracketright
ENCODING 93
SWIDTH 386 0
DWIDTH 13 0
BBX 15 32 1 -6
BITMAP
03FE
03FE
03FE
07FC
007C
00FC
00FC
00FC
00F8
00F8
01F8
01F8
01F8
01F0
01F0
03F0
03F0
03F0
03E0
03E0
07E0
07E0
07E0
07C0
07C0
0FC0
0FC0
0FC0
7F80
7F80
FF80
FF80
ENDCHAR
STARTCHAR asciicircum
ENCODING 94
SWIDTH 687 0
DWIDTH 23 0
BBX 20 21 3 4
BITMAP
000400
000400
000E00
000E00
001E00
003E00
003F00
007F00
00FF00
00F780
01E780
03E780
03C380
0783C0
0F83C0
0F01C0
1E01E0
3E01E0
3C01E0
7800F0
F800F0
ENDCHAR
STARTCHAR underscore
ENCODING 95
SWIDTH 500 0
DWIDTH 17 0
BBX 15 4 1 -5
BITMAP
FFFE
FFFE
FFFE
FFFC
ENDCHAR
STARTCHAR grave
ENCODING 96
SWIDTH 663 0
DWIDTH 23 0
BBX 8 4 12 22
BITMAP
FC
3C
1E
0F
ENDCHAR
STARTCHAR a
ENCODING 97
SWIDTH 681 0
DWIDTH 23 0
BBX 21 18 3 0
BITMAP
007FF8
01FFF8
03FFF8
07FFF0
0FC3F0
1F83F0
3F07F0
3F07F0
7E0FE0
7E1FE0
FE3FE0
FE37E0
FE7FE0
FFEFC0
FFCFC0
FF8FC0
7F1FC0
3C1FC0
ENDCHAR
STARTCHAR b
ENCODING 98
SWIDTH 681 0
DWIDTH 23 0
BBX 21 26 3 0
BITMAP
07E000
07E000
07E000
0FE000
0FC000
0FC000
0FC000
0FC000
1FC1E0
1F87F0
1F8FF8
1F9FF8
1FBFF8
3F7BF8
3F73F8
3FE3F8
3FC3F0
3F83F0
7F07E0
7F07E0
7E0FC0
7E1F80
7FFF00
FFFE00
FFFC00
FFF000
ENDCHAR
STARTCHAR c
ENCODING 99
SWIDTH 548 0
DWIDTH 19 0
BBX 18 18 3 0
BITMAP
003F00
01FFC0
03FFC0
0FFF80
1FE380
3F8080
3F0000
7F0000
7E0000
FE0000
FE0000
FE0000
FE0100
FF0700
FFFE00
7FFE00
3FFE00
0FF000
ENDCHAR
STARTCHAR d
ENCODING 100
SWIDTH 681 0
DWIDTH 23 0
BBX 23 26 3 0
BITMAP
0000FE
0000FE
0000FE
0000FC
0000FC
0001FC
0001FC
0001FC
007FF8
01FFF8
03FFF8
07FFF8
0FC3F8
1F83F0
3F03F0
3F07F0
7E0FF0
7E1FF0
FE1FE0
FE37E0
FE77E0
FFEFE0
FFCFE0
FF8FC0
7F0FC0
3E1FC0
ENDCHAR
STARTCHAR e
ENCODING 101
SWIDTH 612 0
DWIDTH 21 0
BBX 18 18 3 0
BITMAP
007E00
01FF80
07FFC0
0FFFC0
1F8FC0
3F0FC0
3E1F80
7E3F00
7FFE00
FFFC00
FFE000
FC0040
FE00C0
FF07C0
FFFF80
7FFF80
3FFF00
0FF000
ENDCHAR
STARTCHAR f
ENCODING 102
SWIDTH 464 0
DWIDTH 16 0
BBX 20 33 2 -7
BITMAP
000FE0
003FF0
00FFF0
01FFF0
01F820
03F000
03F000
07F000
1FFF00
3FFF00
3FFF00
3FFF00
0FE000
0FE000
0FC000
0FC000
1FC000
1FC000
1F8000
1F8000
1F8000
3F8000
3F8000
3F0000
3F0000
3F0000
7F0000
7F0000
7E0000
7E0000
7E0000
FE0000
FE0000
ENDCHAR
STARTCHAR g
ENCODING 103
SWIDTH 674 0
DWIDTH 23 0
BBX 22 25 2 -7
BITMAP
003FFC
00FFFC
01FFFC
03FFF8
07E1F8
0FC1F8
1F83F8
1F87F8
3F07F0
3F0FF0
7F1FF0
7F3BF0
7F7BF0
7FF7E0
7FE7E0
7FC7E0
3F8FE0
1F0FE0
000FC0
801FC0
F03FC0
FFFF80
7FFF00
7FFC00
7FF000
ENDCHAR
STARTCHAR h
ENCODING 104
SWIDTH 675 0
DWIDTH 23 0
BBX 21 26 2 0
BITMAP
07F000
07F000
07E000
07E000
0FE000
0FE000
0FE000
0FC000
0FC1E0
1FC3F0
1FCFF8
1F9FF8
1F9FF8
1FBFF8
3FF3F8
3F63F0
3FE3F0
3FC7F0
3F87F0
7F07E0
7F07E0
7E0FE0
7E0FE0
7E0FE0
FE0FC0
FE0FC0
ENDCHAR
STARTCHAR i
ENCODING 105
SWIDTH 343 0
DWIDTH 12 0
BBX 12 26 2 0
BITMAP
07F0
07F0
07E0
07E0
0FE0
0000
0000
0000
0FC0
1FC0
1FC0
1FC0
1F80
1F80
3F80
3F80
3F80
3F00
3F00
7F00
7F00
7F00
7E00
7E00
FE00
FE00
ENDCHAR
STARTCHAR j
ENCODING 106
SWIDTH 407 0
DWIDTH 14 0
BBX 20 33 -2 -7
BITMAP
0007F0
0007F0
0007E0
0007E0
000FE0
000000
000000
000000
000FC0
000FC0
001FC0
001FC0
001F80
001F80
003F80
003F80
003F80
003F00
003F00
007F00
007F00
007F00
007E00
007E00
00FE00
00FE00
00FC00
00FC00
41F800
FFF800
FFF000
FFC000
7F0000
ENDCHAR
STARTCHAR k
ENCODING 107
SWIDTH 666 0
DWIDTH 23 0
BBX 22 26 2 0
BITMAP
07F000
07F000
07E000
07E000
0FE000
0FE000
0FE000
0FC000
0FC07C
1FC0F8
1FC1F0
1FC3E0
1F87C0
1F8F80
3F9F00
3FBE00
3FFE00
3FFF00
3F7F00
7F3F80
7F3F80
7E1FC0
7E1FC0
7E0FE0
FE0FE0
FE07F0
ENDCHAR
STARTCHAR l
ENCODING 108
SWIDTH 343 0
DWIDTH 12 0
BBX 12 26 2 0
BITMAP
07F0
07F0
07E0
07E0
0FE0
0FE0
0FE0
0FC0
0FC0
1FC0
1FC0
1FC0
1F80
1F80
3F80
3F80
3F80
3F00
3F00
7F00
7F00
7F00
7E00
7E00
FE00
FE00
ENDCHAR
STARTCHAR m
ENCODING 109
SWIDTH 991 0
DWIDTH 34 0
BBX 32 18 2 0
BITMAP
0FC1E03C
1FC7F0FF
1F8FF1FF
1F9FF3FF
1FBFF3FF
1F3BF77F
3F73FE7E
3FE3EC7E
3FC7F87E
3F87F87E
3F87F0FE
7F07E0FC
7E07E0FC
7E0FE0FC
7E0FC0FC
7E0FC1FC
FE0FC1F8
FC1FC1F8
ENDCHAR
STARTCHAR n
ENCODING 110
SWIDTH 675 0
DWIDTH 23 0
BBX 21 18 2 0
BITMAP
0FC1E0
1FC7F0
1FCFF8
1F9FF8
1F9FF8
1FBBF8
3FF3F8
3F63F0
3FC7F0
3FC7F0
3F87F0
7F07E0
7F07E0
7E0FE0
7E0FE0
7E0FE0
FE0FC0
FE0FC0
ENDCHAR
STARTCHAR o
ENCODING 111
SWIDTH 663 0
DWIDTH 23 0
BBX 21 18 3 0
BITMAP
007F80
01FFE0
07FFF0
0FFFF0
1FC7F8
3F83F8
3F03F8
7E03F8
7E03F0
FE03F0
FE07F0
FE07E0
FE0FE0
FF1FC0
FFFF80
7FFE00
3FFC00
0FE000
ENDCHAR
STARTCHAR p
ENCODING 112
SWIDTH 681 0
DWIDTH 23 0
BBX 23 25 1 -7
BITMAP
07F0F8
07E1FC
0FE3FE
0FE7FE
0FCFFE
0FDCFE
0FF8FE
1FF0FE
1FE0FC
1FE0FC
1FC1F8
1F83F8
3F83F0
3F8FE0
3FFFC0
3FFF80
3FFF00
7FFC00
7F0000
7F0000
7E0000
7E0000
FE0000
FE0000
FE0000
ENDCHAR
STARTCHAR q
ENCODING 113
SWIDTH 681 0
DWIDTH 23 0
BBX 21 25 3 -7
BITMAP
007FF8
01FFF8
03FFF8
07FFF0
0FC3F0
1F83F0
3F07F0
3F0FF0
7E0FE0
7E1FE0
FE3FE0
FE77E0
FEFFE0
FFEFC0
FFCFC0
FF8FC0
7F1FC0
3C1FC0
001F80
001F80
001F80
003F80
003F80
003F00
003F00
ENDCHAR
STARTCHAR r
ENCODING 114
SWIDTH 542 0
DWIDTH 18 0
BBX 19 18 2 0
BITMAP
0FC1E0
1FC3C0
1FC7C0
1F8FC0
1F9F80
1FBF80
3FB800
3F7000
3FE000
3FC000
3F8000
7F0000
7F0000
7F0000
7E0000
7E0000
FE0000
FE0000
ENDCHAR
STARTCHAR s
ENCODING 115
SWIDTH 527 0
DWIDTH 18 0
BBX 17 18 2 0
BITMAP
00FF80
03FF80
0FFF00
0FFF00
1FC000
1FC000
0FC000
0FE000
07F800
03FC00
00FE00
007E00
407E00
70FE00
FFFE00
FFFC00
FFF800
1FE000
ENDCHAR
STARTCHAR t
ENCODING 116
SWIDTH 437 0
DWIDTH 15 0
BBX 13 23 4 0
BITMAP
00E0
0FC0
1FC0
1FC0
1FC0
7FF8
FFF8
FFF8
FFF0
3F80
3F80
3F00
7F00
7F00
7F00
7E00
7E00
FE00
FF00
FFE0
FFC0
7FC0
3F80
ENDCHAR
STARTCHAR u
ENCODING 117
SWIDTH 675 0
DWIDTH 23 0
BBX 21 18 3 0
BITMAP
1F83F8
1F83F8
3F83F0
3F83F0
3F07F0
3F07F0
3F07F0
7F0FE0
7F1FE0
7E1FE0
7E37E0
FE7FE0
FEEFC0
FFCFC0
FFCFC0
FF9FC0
7F1FC0
3C1F80
ENDCHAR
STARTCHAR v
ENCODING 118
SWIDTH 630 0
DWIDTH 21 0
BBX 21 18 4 0
BITMAP
FE00F8
FE01F0
FE01E0
7E03E0
7F03C0
7F07C0
7F0F80
7F0F00
3F1F00
3F1E00
3FBE00
3FFC00
3FF800
1FF800
1FF000
1FF000
1FE000
1FC000
ENDCHAR
STARTCHAR w
ENCODING 119
SWIDTH 878 0
DWIDTH 30 0
BBX 28 18 5 0
BITMAP
FC0F81F0
FC1F81E0
FC1F83E0
FC3F83C0
FC3F87C0
FC7F8780
FC7FCF80
FCFFCF00
FCFFDF00
FDEFDE00
FDEFFE00
FFCFFC00
7FCFFC00
7F87F800
7F87F800
7F07F000
7F07F000
7E07E000
ENDCHAR
STARTCHAR x
ENCODING 120
SWIDTH 563 0
DWIDTH 19 0
BBX 22 18 0 0
BITMAP
0FE0FC
07E1F8
07F3F0
03F3E0
03FFC0
03FF80
01FF00
01FE00
00FE00
00FE00
01FE00
03FF00
07FF00
0FBF80
1F3F80
3F1F80
7E1FC0
FC1FE0
ENDCHAR
STARTCHAR y
ENCODING 121
SWIDTH 633 0
DWIDTH 21 0
BBX 24 25 1 -7
BITMAP
1FC01F
1FC03E
1FC07C
1FC07C
0FC0F8
0FE1F0
0FE1F0
0FE3E0
0FE7C0
07E7C0
07EF80
07FF00
07FF00
07FE00
03FC00
03F800
03F800
03F000
03E000
07E000
0FC000
1F8000
3F8000
7F0000
FE0000
ENDCHAR
STARTCHAR z
ENCODING 122
SWIDTH 630 0
DWIDTH 21 0
BBX 21 18 2 0
BITMAP
0FFFF8
0FFFF8
0FFFF0
1FFFF0
000FE0
001FC0
003F80
00FF00
01FE00
03FC00
07F800
0FE000
1FC000
3F8000
7FFFE0
7FFFE0
FFFFC0
FFFFC0
ENDCHAR
STARTCHAR braceleft
ENCODING 123
SWIDTH 386 0
DWIDTH 13 0
BBX 13 32 3 -6
BITMAP
0078
03F8
07F8
07F0
07E0
0FE0
0FE0
0FE0
0FE0
0FE0
0FC0
0FC0
0FC0
0F80
7F00
7C00
7C00
FE00
3F00
1F00
1F00
3F00
3F00
7F00
7E00
FE00
FE00
FE00
FF00
FE00
7E00
1E00
ENDCHAR
STARTCHAR bar
ENCODING 124
SWIDTH 259 0
DWIDTH 9 0
BBX 10 32 2 -6
BITMAP
03C0
03C0
03C0
0380
0780
0780
0780
0780
0700
0F00
0F00
0F00
0F00
0E00
1E00
1E00
1E00
1E00
1C00
3C00
3C00
3C00
3C00
3800
7800
7800
7800
7800
7000
F000
F000
F000
ENDCHAR
STARTCHAR braceright
ENCODING 125
SWIDTH 386 0
DWIDTH 13 0
BBX 13 32 1 -6
BITMAP
03C0
03F0
07F8
07F8
03F8
03F8
03F8
03F0
07F0
07E0
07E0
07C0
07C0
07E0
03F8
01F0
01F0
07F0
0F80
1F80
1F80
1F80
3F80
3F80
3F80
3F80
3F80
3F00
7F00
FF00
FE00
F000
ENDCHAR
STARTCHAR asciitilde
ENCODING 126
SWIDTH 687 0
DWIDTH 23 0
BBX 21 8 3 6
BITMAP
0F8000
3FC078
3FF078
7FF870
70FFF0
F07FE0
E01FE0
000F80
ENDCHAR
STARTCHAR space
ENCODING 160
SWIDTH 343 0
DWIDTH 12 0
BBX 1 1 0 0
BITMAP
00
ENDCHAR
STARTCHAR exclamdown
ENCODING 161
SWIDTH 343 0
DWIDTH 12 0
BBX 12 25 1 -7
BITMAP
07F0
07F0
07E0
0FE0
0000
0000
0000
0780
0F80
0F80
0F80
0F80
1F80
1F80
1F80
3F00
3F00
3F00
7F00
7F00
7F00
7F00
7E00
FE00
FE00
ENDCHAR
STARTCHAR cent
ENCODING 162
SWIDTH 687 0
DWIDTH 23 0
BBX 19 25 5 0
BITMAP
000F00
000F00
000E00
003F80
01FFE0
03FFE0
0FFFE0
1FC040
1F8000
3F0000
7F0000
7E0000
FE0000
FE0000
FE0000
FE0000
FF0380
FFFF80
7FFF80
7FFF00
1FFF00
03F000
00E000
01E000
01E000
ENDCHAR
STARTCHAR sterling
ENCODING 163
SWIDTH 687 0
DWIDTH 23 0
BBX 21 25 4 0
BITMAP
000FE0
003FF8
007FF8
00FFF8
00FC10
01FC00
01F800
01F800
03F800
03F800
03F800
1FFE00
1FFE00
1FFE00
1FFE00
07F000
07E000
07E000
0FC000
0F8000
1E0000
7FFFC0
7FFF80
FFFF80
FFFF80
ENDCHAR
STARTCHAR currency
ENCODING 164
SWIDTH 687 0
DWIDTH 23 0
BBX 27 25 1 0
BITMAP
02000080
060001C0
0F0003E0
0F8007E0
07800FC0
07C01F00
03CFBE00
01FFFC00
00FFF800
01FFF800
01F9F800
03F0F800
03E0F800
03E0F800
03E0F000
03E1F000
03F3F000
07FFF000
0FFFF000
1FFFF800
3F3E7C00
7C003E00
F8001E00
70000C00
20000800
ENDCHAR
STARTCHAR yen
ENCODING 165
SWIDTH 687 0
DWIDTH 23 0
BBX 22 25 6 0
BITMAP
FE007C
7E00F8
7F01F0
3F03E0
3F87C0
3F8F80
1FCF80
1FDF00
0FFE00
0FFC00
07F800
07F000
7FFF00
7FFE00
7FFE00
07E000
7FFE00
FFFE00
FFFC00
0FC000
0FC000
1FC000
1FC000
1FC000
1F8000
ENDCHAR
STARTCHAR brokenbar
ENCODING 166
SWIDTH 259 0
DWIDTH 9 0
BBX 10 32 2 -6
BITMAP
03C0
03C0
03C0
0380
0780
0780
0780
0780
0700
0F00
0F00
0F00
0F00
0000
0000
0000
0000
0000
0000
3C00
3C00
3C00
3C00
3800
7800
7800
7800
7800
7000
F000
F000
F000
ENDCHAR
STARTCHAR section
ENCODING 167
SWIDTH 687 0
DWIDTH 23 0
BBX 21 31 3 -6
BITMAP
003FE0
01FFF8
03FFF8
07FFF0
07E030
0FE000
0FE000
0FF000
0FFC00
07FF00
03FF80
07FFC0
0FBFE0
1F1FE0
1F07E0
1F03E0
1F83E0
1FE3E0
1FFFC0
1FFF80
07FF00
03FF80
007FC0
003FC0
001FC0
401FC0
783F80
FFFF80
FFFF00
FFFC00
1FF000
ENDCHAR
STARTCHAR dieresis
ENCODING 168
SWIDTH 663 0
DWIDTH 23 0
BBX 12 4 10 21
BITMAP
78F0
78F0
F1E0
F1E0
ENDCHAR
STARTCHAR copyright
ENCODING 169
SWIDTH 834 0
DWIDTH 28 0
BBX 26 25 4 0
BITMAP
007F0000
01FFE000
07FFF000
0FC0FC00
1E003E00
3C000E00
381FE700
707FF700
70F83380
E1E00180
E3C00180
E3C001C0
E38001C0
E78001C0
E3800180
E3800180
73C0C380
71FF8700
387F8700
3C000E00
1E003E00
0FC0FC00
07FFF000
01FFE000
007F0000
ENDCHAR
STARTCHAR ordfeminine
ENCODING 170
SWIDTH 539 0
DWIDTH 18 0
BBX 16 14 5 11
BITMAP
01FF
07FF
1FFF
3F3E
3E7E
7C7E
7CFE
FCFE
FDBC
FFFC
FF7C
FE7C
7CFC
38FC
ENDCHAR
STARTCHAR guillemotleft
ENCODING 171
SWIDTH 633 0
DWIDTH 21 0
BBX 20 16 3 1
BITMAP
008040
01C0E0
03E1F0
07E3E0
0FC7C0
1F8F80
3F3F00
7E7E00
FE7E00
7E7F00
3E3F00
3F1F00
1F0F80
0F8F80
070700
040200
ENDCHAR
STARTCHAR logicalnot
ENCODING 172
SWIDTH 687 0
DWIDTH 23 0
BBX 20 12 4 4
BITMAP
7FFFF0
7FFFF0
FFFFF0
FFFFE0
0000E0
0001E0
0001E0
0001E0
0001C0
0001C0
0003C0
0003C0
ENDCHAR
STARTCHAR hyphen
ENCODING 173
SWIDTH 289 0
DWIDTH 10 0
BBX 8 4 3 9
BITMAP
7F
FF
FF
FE
ENDCHAR
STARTCHAR registered
ENCODING 174
SWIDTH 691 0
DWIDTH 23 0
BBX 18 18 6 7
BITMAP
03F000
0FFC00
1FFE00
3C1F00
780700
71FB80
E3FD80
E39D80
E3B9C0
E3F9C0
E77180
E77180
777B80
780700
3C1F00
1FFE00
0FFC00
03F000
ENDCHAR
STARTCHAR macron
ENCODING 175
SWIDTH 663 0
DWIDTH 23 0
BBX 12 4 10 21
BITMAP
7FF0
FFF0
FFF0
FFE0
ENDCHAR
STARTCHAR degree
ENCODING 176
SWIDTH 241 0
DWIDTH 8 0
BBX 6 6 6 19
BITMAP
78
F8
CC
CC
F8
78
ENDCHAR
STARTCHAR plusminus
ENCODING 177
SWIDTH 687 0
DWIDTH 23 0
BBX 23 21 2 0
BITMAP
000F00
000F00
000E00
000E00
001E00
001E00
1FFFFE
1FFFFE
3FFFFE
3FFFFC
003C00
003C00
003C00
003800
007800
000000
000000
7FFFF8
7FFFF8
FFFFF0
FFFFF0
ENDCHAR
STARTCHAR twosuperior
ENCODING 178
SWIDTH 539 0
DWIDTH 14 0
BBX 13 15 -21 10
BITMAP
0FE0
1FF0
1078
0038
0038
0078
00F0
01C0
0780
0E00
1C00
3800
7800
FFE0
FFE0
ENDCHAR
STARTCHAR threesuperior
ENCODING 179
SWIDTH 539 0
DWIDTH 14 0
BBX 12 15 -21 10
BITMAP
1FC0
1FF0
30F0
0070
0060
01C0
1F80
3F80
01C0
00E0
00E0
00E0
C1C0
FFC0
FF00
ENDCHAR
STARTCHAR acute
ENCODING 180
SWIDTH 663 0
DWIDTH 23 0
BBX 10 4 12 22
BITMAP
0FC0
1F00
3C00
F000
ENDCHAR
STARTCHAR mu
ENCODING 181
SWIDTH 681 0
DWIDTH 23 0
BBX 23 24 1 -6
BITMAP
07E0FE
0FE0FE
0FE0FC
0FE0FC
0FC1FC
0FC1FC
1FC1FC
1FC3F8
1FC7F8
1F8FF8
1F8DF8
3F9FF8
3FFBF0
3FF3F0
3FF3F0
3FE7F0
7FC7F0
7F87E0
7F0000
7E0000
7E0000
FE0000
FE0000
FE0000
ENDCHAR
STARTCHAR paragraph
ENCODING 182
SWIDTH 687 0
DWIDTH 23 0
BBX 16 31 6 -6
BITMAP
1FFF
3FFF
7FFF
FFCE
FFCE
FFCE
FFDE
FFDE
FF9C
7F9C
7F9C
3FBC
0FBC
0738
0738
0738
0F78
0E78
0E70
0E70
0E70
1EF0
1CF0
1CE0
1CE0
1CE0
3CE0
39E0
39C0
39C0
79C0
ENDCHAR
STARTCHAR periodcentered
ENCODING 183
SWIDTH 343 0
DWIDTH 23 0
BBX 6 4 11 8
BITMAP
7C
7C
F8
F8
ENDCHAR
STARTCHAR cedilla
ENCODING 184
SWIDTH 663 0
DWIDTH 23 0
BBX 7 7 7 -7
BITMAP
1C
38
3C
0E
0E
FE
FC
ENDCHAR
STARTCHAR onesuperior
ENCODING 185
SWIDTH 539 0
DWIDTH 14 0
BBX 7 15 -24 10
BITMAP
7E
FE
3E
3C
3C
3C
3C
7C
78
78
78
78
F8
F0
F0
ENDCHAR
STARTCHAR ordmasculine
ENCODING 186
SWIDTH 539 0
DWIDTH 18 0
BBX 17 14 4 11
BITMAP
00FC00
03FF00
0FFF80
1F1F80
3E1F80
7E1F80
7C1F80
FC1F00
FC3F00
FC3E00
FC7C00
FFF800
7FE000
1F8000
ENDCHAR
STARTCHAR guillemotright
ENCODING 187
SWIDTH 633 0
DWIDTH 21 0
BBX 20 16 2 1
BITMAP
040400
0E0E00
1F1F00
1F0F80
0F8F80
0FC7C0
0FE7E0
07E7F0
07E7E0
0FCFC0
1F1F80
3E3F00
7C7E00
F87C00
703800
201000
ENDCHAR
STARTCHAR onequarter
ENCODING 188
SWIDTH 1089 0
DWIDTH 32 0
BBX 28 25 12 0
BITMAP
3F0003F0
7F0007E0
1F000FC0
1E001F80
1E001F00
1E003E00
1E007C00
3E00F800
3C01F000
3C03E000
3C07E070
3C0FC0F0
7C1F81E0
783F03E0
787E06E0
007C0CE0
00F819E0
01F031E0
03E021C0
07C07FF0
0F80FFF0
1F8003C0
3F000380
7E000380
FC000380
ENDCHAR
STARTCHAR onehalf
ENCODING 189
SWIDTH 1089 0
DWIDTH 32 0
BBX 29 25 12 0
BITMAP
3F0003F0
7F0007E0
1F000FC0
1E001F80
1E001F00
1E003E00
1E007C00
3E00F800
3C01F000
3C03E000
3C07EFE0
3C0FDFF0
7C1F9078
783F0038
787E0038
007C0078
00F800F0
01F001C0
03E00780
07C00E00
0F801C00
1F803800
3F007800
7E00FFE0
FC00FFE0
ENDCHAR
STARTCHAR threequarters
ENCODING 190
SWIDTH 1149 0
DWIDTH 32 0
BBX 29 25 13 0
BITMAP
1FC001F8
1FF003F0
30F007E0
00700FC0
00600F80
01C01F00
1F803E00
3F807C00
01C0F800
00E1F000
00E3F038
00E7E078
C1CFC0F0
FFDF81F0
FF3F0370
003E0670
007C0CF0
00F818F0
01F010E0
03E03FF8
07C07FF8
0FC001E0
1F8001C0
3F0001C0
7E0001C0
ENDCHAR
STARTCHAR questiondown
ENCODING 191
SWIDTH 539 0
DWIDTH 18 0
BBX 16 25 0 -7
BITMAP
003F
007F
007E
007E
0000
0000
0000
00FE
00FC
00FC
01F8
03F0
07E0
0FC0
1F80
3F00
7F00
7E00
FE00
FE00
FF03
FFFF
7FFE
3FFE
0FF8
ENDCHAR
STARTCHAR Agrave
ENCODING 192
SWIDTH 771 0
DWIDTH 26 0
BBX 25 31 1 0
BITMAP
0003F000
0000F000
00007800
00003C00
00000000
00000000
0007F000
0007F000
000FF800
000FF800
001FF800
001FF800
003FF800
003DFC00
007DFC00
00F8FC00
00F8FC00
01F0FC00
01F0FE00
03E0FE00
03E07E00
07FFFE00
07FFFE00
0FFFFF00
0FFFFF00
1F003F00
1E003F00
3E003F00
7C003F80
7C003F80
F8001F80
ENDCHAR
STARTCHAR Aacute
ENCODING 193
SWIDTH 771 0
DWIDTH 26 0
BBX 25 31 1 0
BITMAP
00003F00
00007C00
0000F000
0003C000
00000000
00000000
0007F000
0007F000
000FF800
000FF800
001FF800
001FF800
003FF800
003DFC00
007DFC00
00F8FC00
00F8FC00
01F0FC00
01F0FE00
03E0FE00
03E07E00
07FFFE00
07FFFE00
0FFFFF00
0FFFFF00
1F003F00
1E003F00
3E003F00
7C003F80
7C003F80
F8001F80
ENDCHAR
STARTCHAR Acircumflex
ENCODING 194
SWIDTH 771 0
DWIDTH 26 0
BBX 25 31 1 0
BITMAP
0000FC00
0001FC00
0003DE00
000F0F00
00000000
00000000
0007F000
0007F000
000FF800
000FF800
001FF800
001FF800
003FF800
003DFC00
007DFC00
00F8FC00
00F8FC00
01F0FC00
01F0FE00
03E0FE00
03E07E00
07FFFE00
07FFFE00
0FFFFF00
0FFFFF00
1F003F00
1E003F00
3E003F00
7C003F80
7C003F80
F8001F80
ENDCHAR
STARTCHAR Atilde
ENCODING 195
SWIDTH 771 0
DWIDTH 26 0
BBX 25 31 1 0
BITMAP
0001E380
0007FF00
0007FF00
000E3E00
00000000
00000000
0007F000
0007F000
000FF800
000FF800
001FF800
001FF800
003FF800
003DFC00
007DFC00
00F8FC00
00F8FC00
01F0FC00
01F0FE00
03E0FE00
03E07E00
07FFFE00
07FFFE00
0FFFFF00
0FFFFF00
1F003F00
1E003F00
3E003F00
7C003F80
7C003F80
F8001F80
ENDCHAR
STARTCHAR Adieresis
ENCODING 196
SWIDTH 771 0
DWIDTH 26 0
BBX 25 31 1 0
BITMAP
00078F00
00078F00
000F1E00
000F1E00
00000000
00000000
0007F000
0007F000
000FF800
000FF800
001FF800
001FF800
003FF800
003DFC00
007DFC00
00F8FC00
00F8FC00
01F0FC00
01F0FE00
03E0FE00
03E07E00
07FFFE00
07FFFE00
0FFFFF00
0FFFFF00
1F003F00
1E003F00
3E003F00
7C003F80
7C003F80
F8001F80
ENDCHAR
STARTCHAR Aring
ENCODING 197
SWIDTH 771 0
DWIDTH 26 0
BBX 25 32 1 0
BITMAP
00007000
0000F800
0000D800
0000F800
00007000
00000000
00000000
0007F000
0007F000
000FF800
000FF800
001FF800
001FF800
003FF800
003DFC00
007DFC00
00F8FC00
00F8FC00
01F0FC00
01F0FE00
03E0FE00
03E07E00
07FFFE00
07FFFE00
0FFFFF00
0FFFFF00
1F003F00
1E003F00
3E003F00
7C003F80
7C003F80
F8001F80
ENDCHAR
STARTCHAR AE
ENCODING 198
SWIDTH 1004 0
DWIDTH 34 0
BBX 36 25 1 0
BITMAP
00003FFFF0
00003FFFF0
00007FFFE0
0000FFFFE0
0001FF8000
0001FF8000
0003FF8000
0007FF0000
000FBF0000
000FBF0000
001F7FFF00
003E7FFF00
007C7FFF00
007C7FFE00
00F87E0000
01FFFE0000
03FFFE0000
03FFFE0000
07FFFC0000
0F80FC0000
1F00FC0000
1F01FFFF80
3E01FFFF00
7C01FFFF00
F801FFFF00
ENDCHAR
STARTCHAR Ccedilla
ENCODING 199
SWIDTH 737 0
DWIDTH 25 0
BBX 25 32 3 -7
BITMAP
0007FC00
003FFF80
00FFFF80
03FFFF80
07FC0F00
0FF00100
1FE00000
1FC00000
3F800000
3F000000
7F000000
7F000000
FE000000
FE000000
FE000000
FE000000
FE000000
FE000000
FF000000
7F800800
7FC07800
3FFFF800
1FFFF800
0FFFF800
03FF0000
00E00000
01C00000
01E00000
00700000
00700000
07F00000
07E00000
ENDCHAR
STARTCHAR Egrave
ENCODING 200
SWIDTH 642 0
DWIDTH 22 0
BBX 22 31 3 0
BITMAP
007E00
001E00
000F00
000780
000000
000000
07FFFC
07FFFC
07FFF8
0FFFF8
0FE000
0FE000
0FC000
0FC000
1FC000
1FC000
1FFFC0
1FFFC0
1FFF80
3FFF80
3F8000
3F8000
3F0000
3F0000
7F0000
7F0000
7F0000
7FFFE0
7FFFC0
FFFFC0
FFFFC0
ENDCHAR
STARTCHAR Eacute
ENCODING 201
SWIDTH 642 0
DWIDTH 22 0
BBX 22 31 3 0
BITMAP
0003F0
0007C0
000F00
003C00
000000
000000
07FFFC
07FFFC
07FFF8
0FFFF8
0FE000
0FE000
0FC000
0FC000
1FC000
1FC000
1FFFC0
1FFFC0
1FFF80
3FFF80
3F8000
3F8000
3F0000
3F0000
7F0000
7F0000
7F0000
7FFFE0
7FFFC0
FFFFC0
FFFFC0
ENDCHAR
STARTCHAR Ecircumflex
ENCODING 202
SWIDTH 642 0
DWIDTH 22 0
BBX 22 31 3 0
BITMAP
001F80
003F80
007BC0
01E1E0
000000
000000
07FFFC
07FFFC
07FFF8
0FFFF8
0FE000
0FE000
0FC000
0FC000
1FC000
1FC000
1FFFC0
1FFFC0
1FFF80
3FFF80
3F8000
3F8000
3F0000
3F0000
7F0000
7F0000
7F0000
7FFFE0
7FFFC0
FFFFC0
FFFFC0
ENDCHAR
STARTCHAR Edieresis
ENCODING 203
SWIDTH 642 0
DWIDTH 22 0
BBX 22 31 3 0
BITMAP
0078F0
0078F0
00F1E0
00F1E0
000000
000000
07FFFC
07FFFC
07FFF8
0FFFF8
0FE000
0FE000
0FC000
0FC000
1FC000
1FC000
1FFFC0
1FFFC0
1FFF80
3FFF80
3F8000
3F8000
3F0000
3F0000
7F0000
7F0000
7F0000
7FFFE0
7FFFC0
FFFFC0
FFFFC0
ENDCHAR
STARTCHAR Igrave
ENCODING 204
SWIDTH 361 0
DWIDTH 12 0
BBX 12 31 3 0
BITMAP
0FC0
03C0
01E0
00F0
0000
0000
07E0
0FE0
0FE0
0FC0
0FC0
0FC0
1FC0
1FC0
1F80
1F80
1F80
1F80
3F80
3F00
3F00
3F00
3F00
7F00
7F00
7E00
7E00
7E00
FE00
FE00
FC00
ENDCHAR
STARTCHAR Iacute
ENCODING 205
SWIDTH 361 0
DWIDTH 12 0
BBX 14 31 3 0
BITMAP
00FC
01F0
03C0
0F00
0000
0000
07E0
0FE0
0FE0
0FC0
0FC0
0FC0
1FC0
1FC0
1F80
1F80
1F80
1F80
3F80
3F00
3F00
3F00
3F00
7F00
7F00
7E00
7E00
7E00
FE00
FE00
FC00
ENDCHAR
STARTCHAR Icircumflex
ENCODING 206
SWIDTH 361 0
DWIDTH 12 0
BBX 14 31 3 0
BITMAP
03F0
07F0
0F78
3C3C
0000
0000
07E0
0FE0
0FE0
0FC0
0FC0
0FC0
1FC0
1FC0
1F80
1F80
1F80
1F80
3F80
3F00
3F00
3F00
3F00
7F00
7F00
7E00
7E00
7E00
FE00
FE00
FC00
ENDCHAR
STARTCHAR Idieresis
ENCODING 207
SWIDTH 361 0
DWIDTH 12 0
BBX 15 31 3 0
BITMAP
0F1E
0F1E
1E3C
1E3C
0000
0000
07E0
0FE0
0FE0
0FC0
0FC0
0FC0
1FC0
1FC0
1F80
1F80
1F80
1F80
3F80
3F00
3F00
3F00
3F00
7F00
7F00
7E00
7E00
7E00
FE00
FE00
FC00
ENDCHAR
STARTCHAR Eth
ENCODING 208
SWIDTH 822 0
DWIDTH 28 0
BBX 28 25 2 0
BITMAP
03FFFC00
03FFFF80
07FFFFC0
07FFFFE0
07F03FE0
07F00FF0
07E00FF0
07E007F0
0FE007F0
0FE007F0
7FFF07F0
FFFE07F0
FFFE07F0
FFFE0FE0
1FC00FE0
1FC00FE0
1F801FC0
1F803FC0
3F807F80
3F80FF00
3F83FF00
3FFFFE00
3FFFF800
7FFFE000
7FFF8000
ENDCHAR
STARTCHAR Ntilde
ENCODING 209
SWIDTH 789 0
DWIDTH 27 0
BBX 26 31 3 0
BITMAP
00078E00
001FFC00
001FFC00
0038F800
00000000
00000000
07E007C0
07E007C0
0FF007C0
0FF00F80
0FF80F80
0FF80F80
0FFC0F80
1FFC0F80
1FFE1F00
1FFE1F00
1F7E1F00
1F7F1F00
3E3F1F00
3E3FBE00
3E1FBE00
3E1FFE00
3E0FFE00
7C0FFE00
7C07FC00
7C07FC00
7C03FC00
7C03FC00
F801FC00
F801F800
F800F800
ENDCHAR
STARTCHAR Ograve
ENCODING 210
SWIDTH 855 0
DWIDTH 29 0
BBX 27 31 3 0
BITMAP
000FC000
0003C000
0001E000
0000F000
00000000
00000000
000FF800
003FFE00
00FFFF80
03FFFFC0
07F83FC0
0FE01FE0
1FC00FE0
1F800FE0
3F800FE0
3F000FE0
7F000FE0
7F000FE0
FE000FE0
FE000FE0
FE001FC0
FE001FC0
FE003F80
FE003F80
FF007F00
7F00FE00
7FC3FC00
3FFFF800
1FFFE000
0FFFC000
01FE0000
ENDCHAR
STARTCHAR Oacute
ENCODING 211
SWIDTH 855 0
DWIDTH 29 0
BBX 27 31 3 0
BITMAP
00007E00
0000F800
0001E000
00078000
00000000
00000000
000FF800
003FFE00
00FFFF80
03FFFFC0
07F83FC0
0FE01FE0
1FC00FE0
1F800FE0
3F800FE0
3F000FE0
7F000FE0
7F000FE0
FE000FE0
FE000FE0
FE001FC0
FE001FC0
FE003F80
FE003F80
FF007F00
7F00FE00
7FC3FC00
3FFFF800
1FFFE000
0FFFC000
01FE0000
ENDCHAR
STARTCHAR Ocircumflex
ENCODING 212
SWIDTH 855 0
DWIDTH 29 0
BBX 27 31 3 0
BITMAP
0003F000
0007F000
000F7800
003C3C00
00000000
00000000
000FF800
003FFE00
00FFFF80
03FFFFC0
07F83FC0
0FE01FE0
1FC00FE0
1F800FE0
3F800FE0
3F000FE0
7F000FE0
7F000FE0
FE000FE0
FE000FE0
FE001FC0
FE001FC0
FE003F80
FE003F80
FF007F00
7F00FE00
7FC3FC00
3FFFF800
1FFFE000
0FFFC000
01FE0000
ENDCHAR
STARTCHAR Otilde
ENCODING 213
SWIDTH 855 0
DWIDTH 29 0
BBX 27 31 3 0
BITMAP
00078E00
001FFC00
001FFC00
0038F800
00000000
00000000
000FF800
003FFE00
00FFFF80
03FFFFC0
07F83FC0
0FE01FE0
1FC00FE0
1F800FE0
3F800FE0
3F000FE0
7F000FE0
7F000FE0
FE000FE0
FE000FE0
FE001FC0
FE001FC0
FE003F80
FE003F80
FF007F00
7F00FE00
7FC3FC00
3FFFF800
1FFFE000
0FFFC000
01FE0000
ENDCHAR
STARTCHAR Odieresis
ENCODING 214
SWIDTH 855 0
DWIDTH 29 0
BBX 27 31 3 0
BITMAP
000F1E00
000F1E00
001E3C00
001E3C00
00000000
00000000
000FF800
003FFE00
00FFFF80
03FFFFC0
07F83FC0
0FE01FE0
1FC00FE0
1F800FE0
3F800FE0
3F000FE0
7F000FE0
7F000FE0
FE000FE0
FE000FE0
FE001FC0
FE001FC0
FE003F80
FE003F80
FF007F00
7F00FE00
7FC3FC00
3FFFF800
1FFFE000
0FFFC000
01FE0000
ENDCHAR
STARTCHAR multiply
ENCODING 215
SWIDTH 687 0
DWIDTH 23 0
BBX 22 21 3 0
BITMAP
040010
0E0038
1E0078
0F00FC
0F81F0
07C3E0
03C7C0
03EF80
01FF00
00FE00
00FC00
01FC00
03FE00
07DF00
0F8F00
1F0F80
3E07C0
FC03C0
7801E0
7001C0
200080
ENDCHAR
STARTCHAR Oslash
ENCODING 216
SWIDTH 855 0
DWIDTH 29 0
BBX 32 25 5 0
BITMAP
0003FE3F
000FFFFE
003FFFFC
00FFFFF0
01FE0FF0
03F80FF8
07F01FF8
07E03FF8
0FE07FF8
0FC0FFF8
1FC1FBF8
1FC3F3F8
3F87E3F8
3F8FC3F8
3F9F87F0
3FBF07F0
3FFE0FE0
3FFC0FE0
3FF81FC0
1FF03F80
1FF0FF00
0FFFFE00
3FFFF800
7FFFF000
FC7F8000
ENDCHAR
STARTCHAR Ugrave
ENCODING 217
SWIDTH 759 0
DWIDTH 26 0
BBX 24 31 4 0
BITMAP
003F00
000F00
000780
0003C0
000000
000000
1FC03F
1F803F
1F803F
1F803E
3F807E
3F807E
3F007E
3F007E
3F007C
7F00FC
7F00FC
7E00FC
7E00FC
7E00F8
FE01F8
FE01F8
FE01F8
FE01F0
FE03F0
FE03E0
7F07E0
7FFFC0
3FFF80
1FFF00
03FC00
ENDCHAR
STARTCHAR Uacute
ENCODING 218
SWIDTH 759 0
DWIDTH 26 0
BBX 24 31 4 0
BITMAP
0003F0
0007C0
000F00
003C00
000000
000000
1FC03F
1F803F
1F803F
1F803E
3F807E
3F807E
3F007E
3F007E
3F007C
7F00FC
7F00FC
7E00FC
7E00FC
7E00F8
FE01F8
FE01F8
FE01F8
FE01F0
FE03F0
FE03E0
7F07E0
7FFFC0
3FFF80
1FFF00
03FC00
ENDCHAR
STARTCHAR Ucircumflex
ENCODING 219
SWIDTH 759 0
DWIDTH 26 0
BBX 24 31 4 0
BITMAP
000FC0
001FC0
003DE0
00F0F0
000000
000000
1FC03F
1F803F
1F803F
1F803E
3F807E
3F807E
3F007E
3F007E
3F007C
7F00FC
7F00FC
7E00FC
7E00FC
7E00F8
FE01F8
FE01F8
FE01F8
FE01F0
FE03F0
FE03E0
7F07E0
7FFFC0
3FFF80
1FFF00
03FC00
ENDCHAR
STARTCHAR Udieresis
ENCODING 220
SWIDTH 759 0
DWIDTH 26 0
BBX 24 31 4 0
BITMAP
0078F0
0078F0
00F1E0
00F1E0
000000
000000
1FC03F
1F803F
1F803F
1F803E
3F807E
3F807E
3F007E
3F007E
3F007C
7F00FC
7F00FC
7E00FC
7E00FC
7E00F8
FE01F8
FE01F8
FE01F8
FE01F0
FE03F0
FE03E0
7F07E0
7FFFC0
3FFF80
1FFF00
03FC00
ENDCHAR
STARTCHAR Yacute
ENCODING 221
SWIDTH 681 0
DWIDTH 23 0
BBX 22 31 5 0
BITMAP
000FC0
001F00
003C00
00F000
000000
000000
FE00FC
7E00F8
7E01F0
7F03E0
3F07C0
3F87C0
3F8F80
1F9F00
1FFE00
1FFE00
0FFC00
0FF800
07F000
07F000
07E000
07E000
0FE000
0FE000
0FE000
0FC000
0FC000
1FC000
1FC000
1FC000
1F8000
ENDCHAR
STARTCHAR Thorn
ENCODING 222
SWIDTH 645 0
DWIDTH 22 0
BBX 21 25 3 0
BITMAP
07E000
07E000
0FE000
0FC000
0FC000
0FFFC0
0FFFF0
1FFFF0
1FFFF8
1F83F8
1F83F8
1F83F8
3F83F8
3F03F0
3F07F0
3F0FE0
3FFFC0
7FFF80
7FFF00
7FF800
7E0000
7E0000
FE0000
FC0000
FC0000
ENDCHAR
STARTCHAR germandbls
ENCODING 223
SWIDTH 708 0
DWIDTH 24 0
BBX 23 33 1 -7
BITMAP
000FE0
003FF8
00FFFC
01FFFC
01F8FC
03F0F8
03F0F8
07F1F0
07F1E0
07E3C0
07E7C0
0FE7C0
0FE7C0
0FE7E0
0FC7F0
0FC7F8
1FC3FC
1FC1FC
1FC0FE
1F807E
1F807E
3F907E
3F9FFE
3F9FFC
3F3FF8
3F1FE0
7F0000
7F0000
7F0000
7E0000
7E0000
FE0000
FE0000
ENDCHAR
STARTCHAR agrave
ENCODING 224
SWIDTH 681 0
DWIDTH 23 0
BBX 21 24 3 0
BITMAP
003F00
000F00
000780
0003C0
000000
000000
007FF8
01FFF8
03FFF8
07FFF0
0FC3F0
1F83F0
3F07F0
3F07F0
7E0FE0
7E1FE0
FE3FE0
FE37E0
FE7FE0
FFEFC0
FFCFC0
FF8FC0
7F1FC0
3C1FC0
ENDCHAR
STARTCHAR aacute
ENCODING 225
SWIDTH 681 0
DWIDTH 23 0
BBX 21 24 3 0
BITMAP
0003F0
0007C0
000F00
003C00
000000
000000
007FF8
01FFF8
03FFF8
07FFF0
0FC3F0
1F83F0
3F07F0
3F07F0
7E0FE0
7E1FE0
FE3FE0
FE37E0
FE7FE0
FFEFC0
FFCFC0
FF8FC0
7F1FC0
3C1FC0
ENDCHAR
STARTCHAR acircumflex
ENCODING 226
SWIDTH 681 0
DWIDTH 23 0
BBX 21 24 3 0
BITMAP
000FC0
001FC0
003DE0
00F0F0
000000
000000
007FF8
01FFF8
03FFF8
07FFF0
0FC3F0
1F83F0
3F07F0
3F07F0
7E0FE0
7E1FE0
FE3FE0
FE37E0
FE7FE0
FFEFC0
FFCFC0
FF8FC0
7F1FC0
3C1FC0
ENDCHAR
STARTCHAR atilde
ENCODING 227
SWIDTH 681 0
DWIDTH 23 0
BBX 21 24 3 0
BITMAP
001E38
007FF0
007FF0
00E3E0
000000
000000
007FF8
01FFF8
03FFF8
07FFF0
0FC3F0
1F83F0
3F07F0
3F07F0
7E0FE0
7E1FE0
FE3FE0
FE37E0
FE7FE0
FFEFC0
FFCFC0
FF8FC0
7F1FC0
3C1FC0
ENDCHAR
STARTCHAR adieresis
ENCODING 228
SWIDTH 681 0
DWIDTH 23 0
BBX 21 24 3 0
BITMAP
0078F0
0078F0
00F1E0
00F1E0
000000
000000
007FF8
01FFF8
03FFF8
07FFF0
0FC3F0
1F83F0
3F07F0
3F07F0
7E0FE0
7E1FE0
FE3FE0
FE37E0
FE7FE0
FFEFC0
FFCFC0
FF8FC0
7F1FC0
3C1FC0
ENDCHAR
STARTCHAR aring
ENCODING 229
SWIDTH 681 0
DWIDTH 23 0
BBX 21 25 3 0
BITMAP
000700
000F80
000D80
000F80
000700
000000
000000
007FF8
01FFF8
03FFF8
07FFF0
0FC3F0
1F83F0
3F07F0
3F07F0
7E0FE0
7E1FE0
FE3FE0
FE37E0
FE7FE0
FFEFC0
FFCFC0
FF8FC0
7F1FC0
3C1FC0
ENDCHAR
STARTCHAR ae
ENCODING 230
SWIDTH 987 0
DWIDTH 34 0
BBX 31 18 3 0
BITMAP
007FFDF0
01FFFFFC
03FFFFFE
07FFFFFE
0FC3FC7E
1F83F87C
3F07F07C
3F07F1F8
7E0FFFF0
7E1FFFC0
FE3FFF00
FE77E002
FFF7F006
FFE7F03E
FFC3FFFC
FF83FFFC
7F01FFF8
3C007F80
ENDCHAR
STARTCHAR ccedilla
ENCODING 231
SWIDTH 548 0
DWIDTH 19 0
BBX 18 25 3 -7
BITMAP
003F00
01FFC0
03FFC0
0FFF80
1FE380
3F8080
3F0000
7F0000
7E0000
FE0000
FE0000
FE0000
FE0100
FF0700
FFFE00
7FFE00
3FFE00
0FF000
038000
070000
078000
01C000
01C000
1FC000
1F8000
ENDCHAR
STARTCHAR egrave
ENCODING 232
SWIDTH 612 0
DWIDTH 21 0
BBX 18 24 3 0
BITMAP
007E00
001E00
000F00
000780
000000
000000
007E00
01FF80
07FFC0
0FFFC0
1F8FC0
3F0FC0
3E1F80
7E3F00
7FFE00
FFFC00
FFE000
FC0040
FE00C0
FF07C0
FFFF80
7FFF80
3FFF00
0FF000
ENDCHAR
STARTCHAR eacute
ENCODING 233
SWIDTH 612 0
DWIDTH 21 0
BBX 19 24 3 0
BITMAP
0007E0
000F80
001E00
007800
000000
000000
007E00
01FF80
07FFC0
0FFFC0
1F8FC0
3F0FC0
3E1F80
7E3F00
7FFE00
FFFC00
FFE000
FC0040
FE00C0
FF07C0
FFFF80
7FFF80
3FFF00
0FF000
ENDCHAR
STARTCHAR ecircumflex
ENCODING 234
SWIDTH 612 0
DWIDTH 21 0
BBX 19 24 3 0
BITMAP
001F80
003F80
007BC0
01E1E0
000000
000000
007E00
01FF80
07FFC0
0FFFC0
1F8FC0
3F0FC0
3E1F80
7E3F00
7FFE00
FFFC00
FFE000
FC0040
FE00C0
FF07C0
FFFF80
7FFF80
3FFF00
0FF000
ENDCHAR
STARTCHAR edieresis
ENCODING 235
SWIDTH 612 0
DWIDTH 21 0
BBX 19 24 3 0
BITMAP
00F1E0
00F1E0
01E3C0
01E3C0
000000
000000
007E00
01FF80
07FFC0
0FFFC0
1F8FC0
3F0FC0
3E1F80
7E3F00
7FFE00
FFFC00
FFE000
FC0040
FE00C0
FF07C0
FFFF80
7FFF80
3FFF00
0FF000
ENDCHAR
STARTCHAR igrave
ENCODING 236
SWIDTH 343 0
DWIDTH 12 0
BBX 12 24 3 0
BITMAP
0FC0
03C0
01E0
00F0
0000
0000
1FC0
1FC0
1F80
1F80
1F80
3F80
3F80
3F00
3F00
3F00
7F00
7F00
7E00
7E00
7E00
FE00
FE00
FC00
ENDCHAR
STARTCHAR iacute
ENCODING 237
SWIDTH 343 0
DWIDTH 12 0
BBX 14 24 3 0
BITMAP
00FC
01F0
03C0
0F00
0000
0000
1FC0
1FC0
1F80
1F80
1F80
3F80
3F80
3F00
3F00
3F00
7F00
7F00
7E00
7E00
7E00
FE00
FE00
FC00
ENDCHAR
STARTCHAR icircumflex
ENCODING 238
SWIDTH 343 0
DWIDTH 12 0
BBX 14 24 3 0
BITMAP
03F0
07F0
0F78
3C3C
0000
0000
1FC0
1FC0
1F80
1F80
1F80
3F80
3F80
3F00
3F00
3F00
7F00
7F00
7E00
7E00
7E00
FE00
FE00
FC00
ENDCHAR
STARTCHAR idieresis
ENCODING 239
SWIDTH 343 0
DWIDTH 12 0
BBX 15 24 3 0
BITMAP
0F1E
0F1E
1E3C
1E3C
0000
0000
1FC0
1FC0
1F80
1F80
1F80
3F80
3F80
3F00
3F00
3F00
7F00
7F00
7E00
7E00
7E00
FE00
FE00
FC00
ENDCHAR
STARTCHAR eth
ENCODING 240
SWIDTH 663 0
DWIDTH 22 0
BBX 21 30 3 0
BITMAP
000300
000780
000FC0
001F80
0FBF00
0FFE00
0FFE00
1FFF00
01FF80
07DFC0
0F8FE0
0707E0
027FF0
01FFF0
03FFF0
0FC7F0
1F83F0
3F03F8
3F03F0
7E03F0
7E03F0
FE03F0
FE07E0
FE07E0
FE0FC0
FF1F80
7FFF00
7FFE00
3FFC00
07E000
ENDCHAR
STARTCHAR ntilde
ENCODING 241
SWIDTH 675 0
DWIDTH 23 0
BBX 21 24 2 0
BITMAP
001E38
007FF0
007FF0
00E3E0
000000
000000
0FC1E0
1FC7F0
1FCFF8
1F9FF8
1F9FF8
1FBBF8
3FF3F8
3F63F0
3FC7F0
3FC7F0
3F87F0
7F07E0
7F07E0
7E0FE0
7E0FE0
7E0FE0
FE0FC0
FE0FC0
ENDCHAR
STARTCHAR ograve
ENCODING 242
SWIDTH 663 0
DWIDTH 23 0
BBX 21 24 3 0
BITMAP
003F00
000F00
000780
0003C0
000000
000000
007F80
01FFE0
07FFF0
0FFFF0
1FC7F8
3F83F8
3F03F8
7E03F8
7E03F0
FE03F0
FE07F0
FE07E0
FE0FE0
FF1FC0
FFFF80
7FFE00
3FFC00
0FE000
ENDCHAR
STARTCHAR oacute
ENCODING 243
SWIDTH 663 0
DWIDTH 23 0
BBX 21 24 3 0
BITMAP
0003F0
0007C0
000F00
003C00
000000
000000
007F80
01FFE0
07FFF0
0FFFF0
1FC7F8
3F83F8
3F03F8
7E03F8
7E03F0
FE03F0
FE07F0
FE07E0
FE0FE0
FF1FC0
FFFF80
7FFE00
3FFC00
0FE000
ENDCHAR
STARTCHAR ocircumflex
ENCODING 244
SWIDTH 663 0
DWIDTH 23 0
BBX 21 24 3 0
BITMAP
000FC0
001FC0
003DE0
00F0F0
000000
000000
007F80
01FFE0
07FFF0
0FFFF0
1FC7F8
3F83F8
3F03F8
7E03F8
7E03F0
FE03F0
FE07F0
FE07E0
FE0FE0
FF1FC0
FFFF80
7FFE00
3FFC00
0FE000
ENDCHAR
STARTCHAR otilde
ENCODING 245
SWIDTH 663 0
DWIDTH 23 0
BBX 21 24 3 0
BITMAP
001E38
007FF0
007FF0
00E3E0
000000
000000
007F80
01FFE0
07FFF0
0FFFF0
1FC7F8
3F83F8
3F03F8
7E03F8
7E03F0
FE03F0
FE07F0
FE07E0
FE0FE0
FF1FC0
FFFF80
7FFE00
3FFC00
0FE000
ENDCHAR
STARTCHAR odieresis
ENCODING 246
SWIDTH 663 0
DWIDTH 23 0
BBX 21 24 3 0
BITMAP
0078F0
0078F0
00F1E0
00F1E0
000000
000000
007F80
01FFE0
07FFF0
0FFFF0
1FC7F8
3F83F8
3F03F8
7E03F8
7E03F0
FE03F0
FE07F0
FE07E0
FE0FE0
FF1FC0
FFFF80
7FFE00
3FFC00
0FE000
ENDCHAR
STARTCHAR divide
ENCODING 247
SWIDTH 687 0
DWIDTH 23 0
BBX 20 21 4 0
BITMAP
007C00
007C00
007C00
007800
000000
000000
000000
000000
7FFFF0
7FFFF0
FFFFE0
FFFFE0
000000
000000
000000
000000
000000
01E000
03E000
03E000
03E000
ENDCHAR
STARTCHAR oslash
ENCODING 248
SWIDTH 663 0
DWIDTH 23 0
BBX 24 18 4 0
BITMAP
003FFF
00FFFC
03FFF8
07FFF8
0FE3FC
1FC7FC
1F8FFC
3F1FFC
3F3FF8
7F7DF8
7FFBF8
7FF3F0
7FE7F0
7FCFE0
7FFFC0
3FFF00
3FFE00
FFF000
ENDCHAR
STARTCHAR ugrave
ENCODING 249
SWIDTH 675 0
DWIDTH 23 0
BBX 21 24 3 0
BITMAP
003F00
000F00
000780
0003C0
000000
000000
1F83F8
1F83F8
3F83F0
3F83F0
3F07F0
3F07F0
3F07F0
7F0FE0
7F1FE0
7E1FE0
7E37E0
FE7FE0
FEEFC0
FFCFC0
FFCFC0
FF9FC0
7F1FC0
3C1F80
ENDCHAR
STARTCHAR uacute
ENCODING 250
SWIDTH 675 0
DWIDTH 23 0
BBX 21 24 3 0
BITMAP
0003F0
0007C0
000F00
003C00
000000
000000
1F83F8
1F83F8
3F83F0
3F83F0
3F07F0
3F07F0
3F07F0
7F0FE0
7F1FE0
7E1FE0
7E37E0
FE7FE0
FEEFC0
FFCFC0
FFCFC0
FF9FC0
7F1FC0
3C1F80
ENDCHAR
STARTCHAR ucircumflex
ENCODING 251
SWIDTH 675 0
DWIDTH 23 0
BBX 21 24 3 0
BITMAP
001F80
003F80
007BC0
01E1E0
000000
000000
1F83F8
1F83F8
3F83F0
3F83F0
3F07F0
3F07F0
3F07F0
7F0FE0
7F1FE0
7E1FE0
7E37E0
FE7FE0
FEEFC0
FFCFC0
FFCFC0
FF9FC0
7F1FC0
3C1F80
ENDCHAR
STARTCHAR udieresis
ENCODING 252
SWIDTH 675 0
DWIDTH 23 0
BBX 21 24 3 0
BITMAP
0078F0
0078F0
00F1E0
00F1E0
000000
000000
1F83F8
1F83F8
3F83F0
3F83F0
3F07F0
3F07F0
3F07F0
7F0FE0
7F1FE0
7E1FE0
7E37E0
FE7FE0
FEEFC0
FFCFC0
FFCFC0
FF9FC0
7F1FC0
3C1F80
ENDCHAR
STARTCHAR yacute
ENCODING 253
SWIDTH 633 0
DWIDTH 21 0
BBX 24 31 1 -7
BITMAP
0001F8
0003E0
000780
001E00
000000
000000
1FC01F
1FC03E
1FC07C
1FC07C
0FC0F8
0FE1F0
0FE1F0
0FE3E0
0FE7C0
07E7C0
07EF80
07FF00
07FF00
07FE00
03FC00
03F800
03F800
03F000
03E000
07E000
0FC000
1F8000
3F8000
7F0000
FE0000
ENDCHAR
STARTCHAR thorn
ENCODING 254
SWIDTH 681 0
DWIDTH 23 0
BBX 23 31 1 -7
BITMAP
03F800
03F000
03F000
07F000
07F000
07F000
07E0F8
07E1FC
0FE3FE
0FE7FE
0FCFFE
0FDEFE
0FD8FE
1FF0FE
1FF0FC
1FE0FC
1FC1F8
1F81F8
3F83F0
3F87E0
3FFFC0
3FFF80
3FFF00
7FFC00
7F0000
7F0000
7E0000
7E0000
FE0000
FE0000
FE0000
ENDCHAR
STARTCHAR ydieresis
ENCODING 255
SWIDTH 633 0
DWIDTH 21 0
BBX 24 31 1 -7
BITMAP
003C78
003C78
0078F0
0078F0
000000
000000
1FC01F
1FC03E
1FC07C
1FC07C
0FC0F8
0FE1F0
0FE1F0
0FE3E0
0FE7C0
07E7C0
07EF80
07FF00
07FF00
07FE00
03FC00
03F800
03F800
03F000
03E000
07E000
0FC000
1F8000
3F8000
7F0000
FE0000
ENDCHAR
STARTCHAR Amacron
ENCODING 256
SWIDTH 771 0
DWIDTH 26 0
BBX 25 30 1 0
BITMAP
003FF800
007FF800
007FF800
007FF000
00000000
0007F000
0007F000
000FF800
000FF800
001FF800
001FF800
003FF800
003DFC00
007DFC00
00F8FC00
00F8FC00
01F0FC00
01F0FE00
03E0FE00
03E07E00
07FFFE00
07FFFE00
0FFFFF00
0FFFFF00
1F003F00
1E003F00
3E003F00
7C003F80
7C003F80
F8001F80
ENDCHAR
STARTCHAR amacron
ENCODING 257
SWIDTH 681 0
DWIDTH 23 0
BBX 21 23 3 0
BITMAP
00FFE0
01FFE0
01FFE0
01FFC0
000000
007FF8
01FFF8
03FFF8
07FFF0
0FC3F0
1F83F0
3F07F0
3F07F0
7E0FE0
7E1FE0
FE3FE0
FE37E0
FE7FE0
FFEFC0
FFCFC0
FF8FC0
7F1FC0
3C1FC0
ENDCHAR
STARTCHAR Abreve
ENCODING 258
SWIDTH 771 0
DWIDTH 26 0
BBX 25 30 1 0
BITMAP
00707800
007FF000
003FE000
001F8000
00000000
0007F000
0007F000
000FF800
000FF800
001FF800
001FF800
003FF800
003DFC00
007DFC00
00F8FC00
00F8FC00
01F0FC00
01F0FE00
03E0FE00
03E07E00
07FFFE00
07FFFE00
0FFFFF00
0FFFFF00
1F003F00
1E003F00
3E003F00
7C003F80
7C003F80
F8001F80
ENDCHAR
STARTCHAR abreve
ENCODING 259
SWIDTH 681 0
DWIDTH 23 0
BBX 21 23 3 0
BITMAP
01C1E0
01FFC0
00FF80
007E00
000000
007FF8
01FFF8
03FFF8
07FFF0
0FC3F0
1F83F0
3F07F0
3F07F0
7E0FE0
7E1FE0
FE3FE0
FE37E0
FE7FE0
FFEFC0
FFCFC0
FF8FC0
7F1FC0
3C1FC0
ENDCHAR
STARTCHAR Aogonek
ENCODING 260
SWIDTH 771 0
DWIDTH 26 0
BBX 25 31 1 -6
BITMAP
0007F000
0007F000
000FF800
000FF800
001FF800
001FF800
003FF800
003DFC00
007DFC00
00F8FC00
00F8FC00
01F0FC00
01F0FE00
03E0FE00
03E07E00
07FFFE00
07FFFE00
0FFFFF00
0FFFFF00
1F003F00
1E003F00
3E003F00
7C003F80
7C003F80
F8001F80
00000000
00000000
000E0000
003C0000
003E8000
001F8000
ENDCHAR
STARTCHAR aogonek
ENCODING 261
SWIDTH 681 0
DWIDTH 23 0
BBX 21 24 3 -6
BITMAP
007FF8
01FFF8
03FFF8
07FFF0
0FC3F0
1F83F0
3F07F0
3F07F0
7E0FE0
7E1FE0
FE3FE0
FE37E0
FE7FE0
FFEFC0
FFCFC0
FF8FC0
7F1FC0
3C1FC0
000000
000000
007000
01E000
01F400
00FC00
ENDCHAR
STARTCHAR Cacute
ENCODING 262
SWIDTH 737 0
DWIDTH 25 0
BBX 25 30 3 0
BITMAP
0003F000
0007C000
000F0000
003C0000
00000000
0007FC00
003FFF80
00FFFF80
03FFFF80
07FC0F00
0FF00100
1FE00000
1FC00000
3F800000
3F000000
7F000000
7F000000
FE000000
FE000000
FE000000
FE000000
FE000000
FE000000
FF000000
7F800800
7FC07800
3FFFF800
1FFFF800
0FFFF800
03FF0000
ENDCHAR
STARTCHAR cacute
ENCODING 263
SWIDTH 548 0
DWIDTH 19 0
BBX 18 23 3 0
BITMAP
001F80
003E00
007800
01E000
000000
003F00
01FFC0
03FFC0
0FFF80
1FE380
3F8080
3F0000
7F0000
7E0000
FE0000
FE0000
FE0000
FE0100
FF0700
FFFE00
7FFE00
3FFE00
0FF000
ENDCHAR
STARTCHAR Ccircumflex
ENCODING 264
SWIDTH 737 0
DWIDTH 25 0
BBX 25 30 3 0
BITMAP
000FC000
001FC000
003DE000
00F0F000
00000000
0007FC00
003FFF80
00FFFF80
03FFFF80
07FC0F00
0FF00100
1FE00000
1FC00000
3F800000
3F000000
7F000000
7F000000
FE000000
FE000000
FE000000
FE000000
FE000000
FE000000
FF000000
7F800800
7FC07800
3FFFF800
1FFFF800
0FFFF800
03FF0000
ENDCHAR
STARTCHAR ccircumflex
ENCODING 265
SWIDTH 548 0
DWIDTH 19 0
BBX 18 23 3 0
BITMAP
00FC00
01FC00
03DE00
0F0F00
000000
003F00
01FFC0
03FFC0
0FFF80
1FE380
3F8080
3F0000
7F0000
7E0000
FE0000
FE0000
FE0000
FE0100
FF0700
FFFE00
7FFE00
3FFE00
0FF000
ENDCHAR
STARTCHAR Cdotaccent
ENCODING 266
SWIDTH 737 0
DWIDTH 25 0
BBX 25 30 3 0
BITMAP
000F8000
000F8000
001F0000
001F0000
00000000
0007FC00
003FFF80
00FFFF80
03FFFF80
07FC0F00
0FF00100
1FE00000
1FC00000
3F800000
3F000000
7F000000
7F000000
FE000000
FE000000
FE000000
FE000000
FE000000
FE000000
FF000000
7F800800
7FC07800
3FFFF800
1FFFF800
0FFFF800
03FF0000
ENDCHAR
STARTCHAR cdotaccent
ENCODING 267
SWIDTH 548 0
DWIDTH 19 0
BBX 18 23 3 0
BITMAP
007C00
007C00
00F800
00F800
000000
003F00
01FFC0
03FFC0
0FFF80
1FE380
3F8080
3F0000
7F0000
7E0000
FE0000
FE0000
FE0000
FE0100
FF0700
FFFE00
7FFE00
3FFE00
0FF000
ENDCHAR
STARTCHAR Ccaron
ENCODING 268
SWIDTH 737 0
DWIDTH 25 0
BBX 25 30 3 0
BITMAP
00F0F000
007BC000
003F8000
003F0000
00000000
0007FC00
003FFF80
00FFFF80
03FFFF80
07FC0F00
0FF00100
1FE00000
1FC00000
3F800000
3F000000
7F000000
7F000000
FE000000
FE000000
FE000000
FE000000
FE000000
FE000000
FF000000
7F800800
7FC07800
3FFFF800
1FFFF800
0FFFF800
03FF0000
ENDCHAR
STARTCHAR ccaron
ENCODING 269
SWIDTH 548 0
DWIDTH 19 0
BBX 18 23 3 0
BITMAP
078780
03DE00
01FC00
01F800
000000
003F00
01FFC0
03FFC0
0FFF80
1FE380
3F8080
3F0000
7F0000
7E0000
FE0000
FE0000
FE0000
FE0100
FF0700
FFFE00
7FFE00
3FFE00
0FF000
ENDCHAR
STARTCHAR Dcaron
ENCODING 270
SWIDTH 822 0
DWIDTH 28 0
BBX 27 30 3 0
BITMAP
00787800
003DE000
001FC000
001F8000
00000000
07FFF800
07FFFF00
0FFFFF80
0FFFFFC0
0FE07FC0
0FE01FE0
0FC01FE0
1FC00FE0
1FC00FE0
1FC00FE0
1FC00FE0
1F800FE0
3F800FE0
3F801FC0
3F801FC0
3F801FC0
3F003F80
7F007F80
7F00FF00
7F01FE00
7F07FE00
7FFFF800
FFFFF000
FFFFC000
FFFE0000
ENDCHAR
STARTCHAR dcaron
ENCODING 271
SWIDTH 912 0
DWIDTH 31 0
BBX 32 26 3 0
BITMAP
0000FE7F
0000FE7F
0000FE7E
0000FC7E
0000FCFE
0001FCFE
0001FCFE
0001FC3C
007FF83C
01FFF9F8
03FFF9F0
07FFF980
0FC3F800
1F83F000
3F03F000
3F07F000
7E0FF000
7E1FF000
FE1FE000
FE37E000
FE77E000
FFEFE000
FFCFE000
FF8FC000
7F0FC000
3E1FC000
ENDCHAR
STARTCHAR Dcroat
ENCODING 272
SWIDTH 822 0
DWIDTH 28 0
BBX 28 25 2 0
BITMAP
03FFFC00
03FFFF80
07FFFFC0
07FFFFE0
07F03FE0
07F00FF0
07E00FF0
07E007F0
0FE007F0
0FE007F0
7FFF07F0
FFFE07F0
FFFE07F0
FFFE0FE0
1FC00FE0
1FC00FE0
1F801FC0
1F803FC0
3F807F80
3F80FF00
3F83FF00
3FFFFE00
3FFFF800
7FFFE000
7FFF8000
ENDCHAR
STARTCHAR dcroat
ENCODING 273
SWIDTH 681 0
DWIDTH 23 0
BBX 23 26 3 0
BITMAP
0000FE
0000FE
0000FE
0000FC
0000FC
000FFE
000FFE
000FFE
007FFE
01FFF8
03FFF8
07FFF8
0FC3F8
1F83F0
3F03F0
3F07F0
7E0FF0
7E1FF0
FE1FE0
FE37E0
FE77E0
FFEFE0
FFCFE0
FF8FC0
7F0FC0
3E1FC0
ENDCHAR
STARTCHAR Emacron
ENCODING 274
SWIDTH 642 0
DWIDTH 22 0
BBX 22 30 3 0
BITMAP
01FFC0
03FFC0
03FFC0
03FF80
000000
07FFFC
07FFFC
07FFF8
0FFFF8
0FE000
0FE000
0FC000
0FC000
1FC000
1FC000
1FFFC0
1FFFC0
1FFF80
3FFF80
3F8000
3F8000
3F0000
3F0000
7F0000
7F0000
7F0000
7FFFE0
7FFFC0
FFFFC0
FFFFC0
ENDCHAR
STARTCHAR emacron
ENCODING 275
SWIDTH 612 0
DWIDTH 21 0
BBX 18 23 3 0
BITMAP
03FF80
07FF80
07FF80
07FF00
000000
007E00
01FF80
07FFC0
0FFFC0
1F8FC0
3F0FC0
3E1F80
7E3F00
7FFE00
FFFC00
FFE000
FC0040
FE00C0
FF07C0
FFFF80
7FFF80
3FFF00
0FF000
ENDCHAR
STARTCHAR Ebreve
ENCODING 276
SWIDTH 642 0
DWIDTH 22 0
BBX 22 30 3 0
BITMAP
0383C0
03FF80
01FF00
00FC00
000000
07FFFC
07FFFC
07FFF8
0FFFF8
0FE000
0FE000
0FC000
0FC000
1FC000
1FC000
1FFFC0
1FFFC0
1FFF80
3FFF80
3F8000
3F8000
3F0000
3F0000
7F0000
7F0000
7F0000
7FFFE0
7FFFC0
FFFFC0
FFFFC0
ENDCHAR
STARTCHAR ebreve
ENCODING 277
SWIDTH 612 0
DWIDTH 21 0
BBX 18 23 3 0
BITMAP
070780
07FF00
03FE00
01F800
000000
007E00
01FF80
07FFC0
0FFFC0
1F8FC0
3F0FC0
3E1F80
7E3F00
7FFE00
FFFC00
FFE000
FC0040
FE00C0
FF07C0
FFFF80
7FFF80
3FFF00
0FF000
ENDCHAR
STARTCHAR Edotaccent
ENCODING 278
SWIDTH 642 0
DWIDTH 22 0
BBX 22 30 3 0
BITMAP
003E00
003E00
007C00
007C00
000000
07FFFC
07FFFC
07FFF8
0FFFF8
0FE000
0FE000
0FC000
0FC000
1FC000
1FC000
1FFFC0
1FFFC0
1FFF80
3FFF80
3F8000
3F8000
3F0000
3F0000
7F0000
7F0000
7F0000
7FFFE0
7FFFC0
FFFFC0
FFFFC0
ENDCHAR
STARTCHAR edotaccent
ENCODING 279
SWIDTH 612 0
DWIDTH 21 0
BBX 18 23 3 0
BITMAP
007C00
007C00
00F800
00F800
000000
007E00
01FF80
07FFC0
0FFFC0
1F8FC0
3F0FC0
3E1F80
7E3F00
7FFE00
FFFC00
FFE000
FC0040
FE00C0
FF07C0
FFFF80
7FFF80
3FFF00
0FF000
ENDCHAR
STARTCHAR Eogonek
ENCODING 280
SWIDTH 642 0
DWIDTH 22 0
BBX 22 31 3 -6
BITMAP
07FFFC
07FFFC
07FFF8
0FFFF8
0FE000
0FE000
0FC000
0FC000
1FC000
1FC000
1FFFC0
1FFFC0
1FFF80
3FFF80
3F8000
3F8000
3F0000
3F0000
7F0000
7F0000
7F0000
7FFFE0
7FFFC0
FFFFC0
FFFFC0
000000
000000
00E000
03C000
03E800
01F800
ENDCHAR
STARTCHAR eogonek
ENCODING 281
SWIDTH 612 0
DWIDTH 21 0
BBX 18 24 3 -6
BITMAP
007E00
01FF80
07FFC0
0FFFC0
1F8FC0
3F0FC0
3E1F80
7E3F00
7FFE00
FFFC00
FFE000
FC0040
FE00C0
FF07C0
FFFF80
7FFF80
3FFF00
0FF000
000000
000000
00E000
03C000
03E800
01F800
ENDCHAR
STARTCHAR Ecaron
ENCODING 282
SWIDTH 642 0
DWIDTH 22 0
BBX 22 30 3 0
BITMAP
03C3C0
01EF00
00FE00
00FC00
000000
07FFFC
07FFFC
07FFF8
0FFFF8
0FE000
0FE000
0FC000
0FC000
1FC000
1FC000
1FFFC0
1FFFC0
1FFF80
3FFF80
3F8000
3F8000
3F0000
3F0000
7F0000
7F0000
7F0000
7FFFE0
7FFFC0
FFFFC0
FFFFC0
ENDCHAR
STARTCHAR ecaron
ENCODING 283
SWIDTH 612 0
DWIDTH 21 0
BBX 18 23 3 0
BITMAP
078780
03DE00
01FC00
01F800
000000
007E00
01FF80
07FFC0
0FFFC0
1F8FC0
3F0FC0
3E1F80
7E3F00
7FFE00
FFFC00
FFE000
FC0040
FE00C0
FF07C0
FFFF80
7FFF80
3FFF00
0FF000
ENDCHAR
STARTCHAR Gcircumflex
ENCODING 284
SWIDTH 755 0
DWIDTH 26 0
BBX 25 30 3 0
BITMAP
000FC000
001FC000
003DE000
00F0F000
00000000
0007FC00
003FFF80
00FFFF80
03FFFF80
07FC0F00
0FF00100
1FE00000
1FC00000
3F800000
3F000000
7F000000
7F000000
FE000000
FE00FE00
FE00FC00
FE00FC00
FE00FC00
FE01FC00
FF01F800
7F81F800
7FC1F800
3FFFF800
1FFFF800
0FFFF000
03FF8000
ENDCHAR
STARTCHAR gcircumflex
ENCODING 285
SWIDTH 674 0
DWIDTH 23 0
BBX 22 30 2 -7
BITMAP
001F80
003F80
007BC0
01E1E0
000000
003FFC
00FFFC
01FFFC
03FFF8
07E1F8
0FC1F8
1F83F8
1F87F8
3F07F0
3F0FF0
7F1FF0
7F3BF0
7F7BF0
7FF7E0
7FE7E0
7FC7E0
3F8FE0
1F0FE0
000FC0
801FC0
F03FC0
FFFF80
7FFF00
7FFC00
7FF000
ENDCHAR
STARTCHAR Gbreve
ENCODING 286
SWIDTH 755 0
DWIDTH 26 0
BBX 25 30 3 0
BITMAP
00E0F000
00FFE000
007FC000
003F0000
00000000
0007FC00
003FFF80
00FFFF80
03FFFF80
07FC0F00
0FF00100
1FE00000
1FC00000
3F800000
3F000000
7F000000
7F000000
FE000000
FE00FE00
FE00FC00
FE00FC00
FE00FC00
FE01FC00
FF01F800
7F81F800
7FC1F800
3FFFF800
1FFFF800
0FFFF000
03FF8000
ENDCHAR
STARTCHAR gbreve
ENCODING 287
SWIDTH 674 0
DWIDTH 23 0
BBX 22 30 2 -7
BITMAP
01C1E0
01FFC0
00FF80
007E00
000000
003FFC
00FFFC
01FFFC
03FFF8
07E1F8
0FC1F8
1F83F8
1F87F8
3F07F0
3F0FF0
7F1FF0
7F3BF0
7F7BF0
7FF7E0
7FE7E0
7FC7E0
3F8FE0
1F0FE0
000FC0
801FC0
F03FC0
FFFF80
7FFF00
7FFC00
7FF000
ENDCHAR
STARTCHAR Gdotaccent
ENCODING 288
SWIDTH 755 0
DWIDTH 26 0
BBX 25 30 3 0
BITMAP
000F8000
000F8000
001F0000
001F0000
00000000
0007FC00
003FFF80
00FFFF80
03FFFF80
07FC0F00
0FF00100
1FE00000
1FC00000
3F800000
3F000000
7F000000
7F000000
FE000000
FE00FE00
FE00FC00
FE00FC00
FE00FC00
FE01FC00
FF01F800
7F81F800
7FC1F800
3FFFF800
1FFFF800
0FFFF000
03FF8000
ENDCHAR
STARTCHAR gdotaccent
ENCODING 289
SWIDTH 674 0
DWIDTH 23 0
BBX 22 30 2 -7
BITMAP
001F00
001F00
003E00
003E00
000000
003FFC
00FFFC
01FFFC
03FFF8
07E1F8
0FC1F8
1F83F8
1F87F8
3F07F0
3F0FF0
7F1FF0
7F3BF0
7F7BF0
7FF7E0
7FE7E0
7FC7E0
3F8FE0
1F0FE0
000FC0
801FC0
F03FC0
FFFF80
7FFF00
7FFC00
7FF000
ENDCHAR
STARTCHAR Gcommaaccent
ENCODING 290
SWIDTH 755 0
DWIDTH 26 0
BBX 25 39 3 -14
BITMAP
0007FC00
003FFF80
00FFFF80
03FFFF80
07FC0F00
0FF00100
1FE00000
1FC00000
3F800000
3F000000
7F000000
7F000000
FE000000
FE00FE00
FE00FC00
FE00FC00
FE00FC00
FE01FC00
FF01F800
7F81F800
7FC1F800
3FFFF800
1FFFF800
0FFFF000
03FF8000
00000000
007F0000
007F0000
007F0000
007E0000
00FE0000
00FE0000
00FE0000
003C0000
003C0000
00780000
01F80000
01E00000
01800000
ENDCHAR
STARTCHAR gcommaaccent
ENCODING 291
SWIDTH 674 0
DWIDTH 23 0
BBX 22 38 2 -7
BITMAP
0000C0
0007C0
000FC0
001F00
001E00
003F80
003F80
003F80
003F00
007F00
007F00
007F00
000000
003FFC
00FFFC
01FFFC
03FFF8
07E1F8
0FC1F8
1F83F8
1F87F8
3F07F0
3F0FF0
7F1FF0
7F3BF0
7F7BF0
7FF7E0
7FE7E0
7FC7E0
3F8FE0
1F0FE0
000FC0
801FC0
F03FC0
FFFF80
7FFF00
7FFC00
7FF000
ENDCHAR
STARTCHAR Hcircumflex
ENCODING 292
SWIDTH 813 0
DWIDTH 28 0
BBX 27 30 3 0
BITMAP
0007E000
000FE000
001EF000
00787800
00000000
07F00FE0
07E00FE0
0FE00FE0
0FE00FC0
0FE00FC0
0FC01FC0
0FC01FC0
1FC01FC0
1FC01F80
1FC01F80
1FFFFF80
1FFFFF80
3FFFFF80
3FFFFF00
3F803F00
3F007F00
3F007F00
7F007F00
7F007E00
7F007E00
7E00FE00
7E00FE00
FE00FE00
FE00FC00
FE01FC00
ENDCHAR
STARTCHAR hcircumflex
ENCODING 293
SWIDTH 675 0
DWIDTH 23 0
BBX 21 31 2 0
BITMAP
01F800
03F800
07BC00
1E1E00
000000
07F000
07F000
07E000
07E000
0FE000
0FE000
0FE000
0FC000
0FC1E0
1FC3F0
1FCFF8
1F9FF8
1F9FF8
1FBFF8
3FF3F8
3F63F0
3FE3F0
3FC7F0
3F87F0
7F07E0
7F07E0
7E0FE0
7E0FE0
7E0FE0
FE0FC0
FE0FC0
ENDCHAR
STARTCHAR Hbar
ENCODING 294
SWIDTH 813 0
DWIDTH 28 0
BBX 27 25 3 0
BITMAP
07F00FE0
07E00FE0
0FE00FE0
0FE00FC0
0FE00FC0
FFFFFFE0
FFFFFFE0
FFFFFFE0
FFFFFFE0
1FC01F80
1FFFFF80
1FFFFF80
3FFFFF80
3FFFFF00
3F803F00
3F007F00
3F007F00
7F007F00
7F007E00
7F007E00
7E00FE00
7E00FE00
FE00FE00
FE00FC00
FE01FC00
ENDCHAR
STARTCHAR hbar
ENCODING 295
SWIDTH 675 0
DWIDTH 23 0
BBX 21 26 2 0
BITMAP
07F000
07F000
07E000
07E000
0FE000
FFE000
FFE000
FFE000
FFE1E0
1FC3F0
1FCFF8
1F9FF8
1F9FF8
1FBFF8
3FF3F8
3F63F0
3FE3F0
3FC7F0
3F87F0
7F07E0
7F07E0
7E0FE0
7E0FE0
7E0FE0
FE0FC0
FE0FC0
ENDCHAR
STARTCHAR Itilde
ENCODING 296
SWIDTH 361 0
DWIDTH 12 0
BBX 13 30 3 0
BITMAP
1E38
7FF0
7FF0
E3E0
0000
07E0
0FE0
0FE0
0FC0
0FC0
0FC0
1FC0
1FC0
1F80
1F80
1F80
1F80
3F80
3F00
3F00
3F00
3F00
7F00
7F00
7E00
7E00
7E00
FE00
FE00
FC00
ENDCHAR
STARTCHAR itilde
ENCODING 297
SWIDTH 343 0
DWIDTH 12 0
BBX 13 23 2 0
BITMAP
1E38
7FF0
7FF0
E3E0
0000
0FE0
0FE0
0FC0
0FC0
0FC0
1FC0
1FC0
1F80
1F80
1F80
3F80
3F80
3F00
3F00
3F00
7F00
7F00
7E00
ENDCHAR
STARTCHAR Imacron
ENCODING 298
SWIDTH 361 0
DWIDTH 12 0
BBX 13 30 3 0
BITMAP
3FF8
7FF8
7FF8
7FF0
0000
07E0
0FE0
0FE0
0FC0
0FC0
0FC0
1FC0
1FC0
1F80
1F80
1F80
1F80
3F80
3F00
3F00
3F00
3F00
7F00
7F00
7E00
7E00
7E00
FE00
FE00
FC00
ENDCHAR
STARTCHAR imacron
ENCODING 299
SWIDTH 343 0
DWIDTH 12 0
BBX 12 23 3 0
BITMAP
7FF0
FFF0
FFF0
FFE0
0000
1FC0
1FC0
1F80
1F80
1F80
3F80
3F80
3F00
3F00
3F00
7F00
7F00
7E00
7E00
7E00
FE00
FE00
FC00
ENDCHAR
STARTCHAR Ibreve
ENCODING 300
SWIDTH 361 0
DWIDTH 12 0
BBX 13 30 3 0
BITMAP
7078
7FF0
3FE0
1F80
0000
07E0
0FE0
0FE0
0FC0
0FC0
0FC0
1FC0
1FC0
1F80
1F80
1F80
1F80
3F80
3F00
3F00
3F00
3F00
7F00
7F00
7E00
7E00
7E00
FE00
FE00
FC00
ENDCHAR
STARTCHAR ibreve
ENCODING 301
SWIDTH 343 0
DWIDTH 12 0
BBX 12 23 3 0
BITMAP
E0F0
FFE0
7FC0
3F00
0000
1FC0
1FC0
1F80
1F80
1F80
3F80
3F80
3F00
3F00
3F00
7F00
7F00
7E00
7E00
7E00
FE00
FE00
FC00
ENDCHAR
STARTCHAR Iogonek
ENCODING 302
SWIDTH 361 0
DWIDTH 12 0
BBX 11 31 3 -6
BITMAP
07E0
0FE0
0FE0
0FC0
0FC0
0FC0
1FC0
1FC0
1F80
1F80
1F80
1F80
3F80
3F00
3F00
3F00
3F00
7F00
7F00
7E00
7E00
7E00
FE00
FE00
FC00
0000
0000
1C00
7800
7D00
3F00
ENDCHAR
STARTCHAR iogonek
ENCODING 303
SWIDTH 343 0
DWIDTH 12 0
BBX 12 32 2 -6
BITMAP
07F0
07F0
07E0
07E0
0FE0
0000
0000
0000
0FC0
1FC0
1FC0
1FC0
1F80
1F80
3F80
3F80
3F80
3F00
3F00
7F00
7F00
7F00
7E00
7E00
FE00
FE00
0000
0000
0E00
3C00
3E80
1F80
ENDCHAR
STARTCHAR Idotaccent
ENCODING 304
SWIDTH 361 0
DWIDTH 12 0
BBX 11 30 3 0
BITMAP
07C0
07C0
0F80
0F80
0000
07E0
0FE0
0FE0
0FC0
0FC0
0FC0
1FC0
1FC0
1F80
1F80
1F80
1F80
3F80
3F00
3F00
3F00
3F00
7F00
7F00
7E00
7E00
7E00
FE00
FE00
FC00
ENDCHAR
STARTCHAR dotlessi
ENCODING 305
SWIDTH 343 0
DWIDTH 12 0
BBX 10 18 3 0
BITMAP
1FC0
1FC0
1F80
1F80
1F80
3F80
3F80
3F00
3F00
3F00
7F00
7F00
7E00
7E00
7E00
FE00
FE00
FC00
ENDCHAR
STARTCHAR IJ
ENCODING 306
SWIDTH 845 0
DWIDTH 28 0
BBX 27 31 3 -6
BITMAP
07E00FE0
0FE00FE0
0FE00FE0
0FC00FC0
0FC00FC0
0FC00FC0
1FC01FC0
1FC01FC0
1F801F80
1F801F80
1F801F80
1F803F80
3F803F80
3F003F00
3F003F00
3F003F00
3F003F00
7F007F00
7F007F00
7E007E00
7E007E00
7E007E00
FE00FE00
FE00FE00
FC00FC00
0000FC00
0041FC00
007FF800
00FFF000
00FFE000
007F8000
ENDCHAR
STARTCHAR ij
ENCODING 307
SWIDTH 733 0
DWIDTH 25 0
BBX 27 33 2 -7
BITMAP
07F00FE0
07F00FE0
07E00FC0
07E00FC0
0FE01FC0
00000000
00000000
00000000
0FC01F80
1FC01F80
1FC03F80
1FC03F80
1F803F00
1F803F00
3F807F00
3F807F00
3F807F00
3F007E00
3F007E00
7F00FE00
7F00FE00
7F00FE00
7E00FC00
7E00FC00
FE01FC00
FE01FC00
0001F800
0001F800
0083F000
01FFF000
01FFE000
01FF8000
00FE0000
ENDCHAR
STARTCHAR Jcircumflex
ENCODING 308
SWIDTH 502 0
DWIDTH 17 0
BBX 19 36 0 -6
BITMAP
001F80
003F80
007BC0
01E1E0
000000
000FE0
000FE0
000FE0
000FC0
000FC0
000FC0
001FC0
001FC0
001F80
001F80
001F80
003F80
003F80
003F00
003F00
003F00
003F00
007F00
007F00
007E00
007E00
007E00
00FE00
00FE00
00FC00
00FC00
41FC00
7FF800
FFF000
FFE000
7F8000
ENDCHAR
STARTCHAR jcircumflex
ENCODING 309
SWIDTH 407 0
DWIDTH 14 0
BBX 20 30 -2 -7
BITMAP
001F80
003F80
007BC0
01E1E0
000000
000FC0
000FC0
001FC0
001FC0
001F80
001F80
003F80
003F80
003F80
003F00
003F00
007F00
007F00
007F00
007E00
007E00
00FE00
00FE00
00FC00
00FC00
41F800
FFF800
FFF000
FFC000
7F0000
ENDCHAR
STARTCHAR Kcommaaccent
ENCODING 310
SWIDTH 753 0
DWIDTH 26 0
BBX 23 39 3 -14
BITMAP
07E03E
07E07C
0FE0F8
0FE1F0
0FC1F0
0FC3E0
0FC7C0
1FCF80
1FCF00
1F9F00
1FBE00
1FFE00
3FFE00
3FFF00
3F7F80
3F3F80
3F1FC0
7F1FC0
7F0FE0
7F0FE0
7E07F0
7E07F0
FE03F8
FE03F8
FE01FC
000000
00FE00
00FE00
00FE00
00FC00
01FC00
01FC00
01FC00
007800
007800
00F000
03F000
03C000
030000
ENDCHAR
STARTCHAR kcommaaccent
ENCODING 311
SWIDTH 666 0
DWIDTH 23 0
BBX 22 40 2 -14
BITMAP
07F000
07F000
07E000
07E000
0FE000
0FE000
0FE000
0FC000
0FC07C
1FC0F8
1FC1F0
1FC3E0
1F87C0
1F8F80
3F9F00
3FBE00
3FFE00
3FFF00
3F7F00
7F3F80
7F3F80
7E1FC0
7E1FC0
7E0FE0
FE0FE0
FE07F0
000000
01FC00
01FC00
01FC00
01F800
03F800
03F800
03F800
00F000
00F000
01E000
07E000
078000
060000
ENDCHAR
STARTCHAR kgreenlandic
ENCODING 312
SWIDTH 666 0
DWIDTH 23 0
BBX 22 18 2 0
BITMAP
0FC07C
1FC0F8
1FC1F0
1FC3E0
1F87C0
1F8F80
3F9F00
3FBE00
3FFE00
3FFF00
3F7F00
7F3F80
7F3F80
7E1FC0
7E1FC0
7E0FE0
FE0FE0
FE07F0
ENDCHAR
STARTCHAR Lacute
ENCODING 313
SWIDTH 623 0
DWIDTH 21 0
BBX 19 30 3 0
BITMAP
007E00
00F800
01E000
078000
000000
07F000
07E000
0FE000
0FE000
0FE000
0FE000
0FC000
1FC000
1FC000
1FC000
1FC000
1F8000
3F8000
3F8000
3F8000
3F8000
3F0000
7F0000
7F0000
7F0000
7F0000
7FFFE0
FFFFE0
FFFFE0
FFFFC0
ENDCHAR
STARTCHAR lacute
ENCODING 314
SWIDTH 343 0
DWIDTH 12 0
BBX 14 31 2 0
BITMAP
00FC
01F0
03C0
0F00
0000
07F0
07F0
07E0
07E0
0FE0
0FE0
0FE0
0FC0
0FC0
1FC0
1FC0
1FC0
1F80
1F80
3F80
3F80
3F80
3F00
3F00
7F00
7F00
7F00
7E00
7E00
FE00
FE00
ENDCHAR
STARTCHAR Lcommaaccent
ENCODING 315
SWIDTH 623 0
DWIDTH 21 0
BBX 19 39 3 -14
BITMAP
07F000
07E000
0FE000
0FE000
0FE000
0FE000
0FC000
1FC000
1FC000
1FC000
1FC000
1F8000
3F8000
3F8000
3F8000
3F8000
3F0000
7F0000
7F0000
7F0000
7F0000
7FFFE0
FFFFE0
FFFFE0
FFFFC0
000000
03F800
03F800
03F800
03F000
07F000
07F000
07F000
01E000
01E000
03C000
0FC000
0F0000
0C0000
ENDCHAR
STARTCHAR lcommaaccent
ENCODING 316
SWIDTH 343 0
DWIDTH 12 0
BBX 12 40 2 -14
BITMAP
07F0
07F0
07E0
07E0
0FE0
0FE0
0FE0
0FC0
0FC0
1FC0
1FC0
1FC0
1F80
1F80
3F80
3F80
3F80
3F00
3F00
7F00
7F00
7F00
7E00
7E00
FE00
FE00
0000
3F80
3F80
3F80
3F00
7F00
7F00
7F00
1E00
1E00
3C00
FC00
F000
C000
ENDCHAR
STARTCHAR Lcaron
ENCODING 317
SWIDTH 857 0
DWIDTH 29 0
BBX 30 26 3 0
BITMAP
000001FC
07F001FC
07E001F8
0FE001F8
0FE003F8
0FE003F8
0FE003F8
0FC000F0
1FC000F0
1FC007E0
1FC007C0
1FC00600
1F800000
3F800000
3F800000
3F800000
3F800000
3F000000
7F000000
7F000000
7F000000
7F000000
7FFFE000
FFFFE000
FFFFE000
FFFFC000
ENDCHAR
STARTCHAR lcaron
ENCODING 318
SWIDTH 591 0
DWIDTH 20 0
BBX 22 26 2 0
BITMAP
07F1FC
07F1FC
07E1F8
07E1F8
0FE3F8
0FE3F8
0FE3F8
0FC0F0
0FC0F0
1FC7E0
1FC7C0
1FC600
1F8000
1F8000
3F8000
3F8000
3F8000
3F0000
3F0000
7F0000
7F0000
7F0000
7E0000
7E0000
FE0000
FE0000
ENDCHAR
STARTCHAR Ldot
ENCODING 319
SWIDTH 935 0
DWIDTH 43 0
BBX 34 25 3 0
BITMAP
07F0000000
07E0000000
0FE0000000
0FE0000000
0FE0000000
0FE0000000
0FC0000000
1FC0000000
1FC0000000
1FC0000000
1FC0000000
1F80000000
3F80000000
3F800007C0
3F800007C0
3F80000F80
3F00000F80
7F00000000
7F00000000
7F00000000
7F00000000
7FFFE00000
FFFFE00000
FFFFE00000
FFFFC00000
ENDCHAR
STARTCHAR ldot
ENCODING 320
SWIDTH 669 0
DWIDTH 34 0
BBX 26 26 2 0
BITMAP
07F00000
07F00000
07E00000
07E00000
0FE00000
0FE00000
0FE00000
0FC00000
0FC00000
1FC00000
1FC00000
1FC00000
1F800000
1F800000
3F8007C0
3F8007C0
3F800F80
3F000F80
3F000000
7F000000
7F000000
7F000000
7E000000
7E000000
FE000000
FE000000
ENDCHAR
STARTCHAR Lslash
ENCODING 321
SWIDTH 623 0
DWIDTH 21 0
BBX 21 25 1 0
BITMAP
01FC00
01F800
01F800
03F800
03F800
03F800
03F800
03F100
07F700
07FE00
07FE00
07FC00
0FF800
3FE000
7FE000
7FE000
FFE000
EFC000
9FC000
1FC000
1FC000
1FFFF8
1FFFF8
3FFFF8
3FFFF0
ENDCHAR
STARTCHAR lslash
ENCODING 322
SWIDTH 343 0
DWIDTH 12 0
BBX 16 26 1 0
BITMAP
01FC
01FC
01F8
03F8
03F8
03F8
03F9
03F7
07FF
07FE
07FE
07F8
0FF0
3FE0
7FE0
7FE0
FFE0
CFC0
9FC0
1FC0
1FC0
1F80
1F80
3F80
3F80
3F80
ENDCHAR
STARTCHAR Nacute
ENCODING 323
SWIDTH 789 0
DWIDTH 27 0
BBX 26 30 3 0
BITMAP
0003F000
0007C000
000F0000
003C0000
00000000
07E007C0
07E007C0
0FF007C0
0FF00F80
0FF80F80
0FF80F80
0FFC0F80
1FFC0F80
1FFE1F00
1FFE1F00
1F7E1F00
1F7F1F00
3E3F1F00
3E3FBE00
3E1FBE00
3E1FFE00
3E0FFE00
7C0FFE00
7C07FC00
7C07FC00
7C03FC00
7C03FC00
F801FC00
F801F800
F800F800
ENDCHAR
STARTCHAR nacute
ENCODING 324
SWIDTH 675 0
DWIDTH 23 0
BBX 21 23 2 0
BITMAP
000FC0
001F00
003C00
00F000
000000
0FC1E0
1FC7F0
1FCFF8
1F9FF8
1F9FF8
1FBBF8
3FF3F8
3F63F0
3FC7F0
3FC7F0
3F87F0
7F07E0
7F07E0
7E0FE0
7E0FE0
7E0FE0
FE0FC0
FE0FC0
ENDCHAR
STARTCHAR Ncommaaccent
ENCODING 325
SWIDTH 789 0
DWIDTH 27 0
BBX 26 39 3 -14
BITMAP
07E007C0
07E007C0
0FF007C0
0FF00F80
0FF80F80
0FF80F80
0FFC0F80
1FFC0F80
1FFE1F00
1FFE1F00
1F7E1F00
1F7F1F00
3E3F1F00
3E3FBE00
3E1FBE00
3E1FFE00
3E0FFE00
7C0FFE00
7C07FC00
7C07FC00
7C03FC00
7C03FC00
F801FC00
F801F800
F800F800
00000000
007F0000
007F0000
007F0000
007E0000
00FE0000
00FE0000
00FE0000
003C0000
003C0000
00780000
01F80000
01E00000
01800000
ENDCHAR
STARTCHAR ncommaaccent
ENCODING 326
SWIDTH 675 0
DWIDTH 23 0
BBX 21 32 2 -14
BITMAP
0FC1E0
1FC7F0
1FCFF8
1F9FF8
1F9FF8
1FBBF8
3FF3F8
3F63F0
3FC7F0
3FC7F0
3F87F0
7F07E0
7F07E0
7E0FE0
7E0FE0
7E0FE0
FE0FC0
FE0FC0
000000
01FC00
01FC00
01FC00
01F800
03F800
03F800
03F800
00F000
00F000
01E000
07E000
078000
060000
ENDCHAR
STARTCHAR Ncaron
ENCODING 327
SWIDTH 789 0
DWIDTH 27 0
BBX 26 30 3 0
BITMAP
00F0F000
007BC000
003F8000
003F0000
00000000
07E007C0
07E007C0
0FF007C0
0FF00F80
0FF80F80
0FF80F80
0FFC0F80
1FFC0F80
1FFE1F00
1FFE1F00
1F7E1F00
1F7F1F00
3E3F1F00
3E3FBE00
3E1FBE00
3E1FFE00
3E0FFE00
7C0FFE00
7C07FC00
7C07FC00
7C03FC00
7C03FC00
F801FC00
F801F800
F800F800
ENDCHAR
STARTCHAR ncaron
ENCODING 328
SWIDTH 675 0
DWIDTH 23 0
BBX 21 23 2 0
BITMAP
03C3C0
01EF00
00FE00
00FC00
000000
0FC1E0
1FC7F0
1FCFF8
1F9FF8
1F9FF8
1FBBF8
3FF3F8
3F63F0
3FC7F0
3FC7F0
3F87F0
7F07E0
7F07E0
7E0FE0
7E0FE0
7E0FE0
FE0FC0
FE0FC0
ENDCHAR
STARTCHAR napostrophe
ENCODING 329
SWIDTH 927 0
DWIDTH 32 0
BBX 28 26 4 0
BITMAP
3F800000
3F800000
3F000000
3F000000
7F000000
7F000000
7F000000
1E000000
1E1F83C0
FC3F8FE0
F83F9FF0
C03F3FF0
003F3FF0
003F77F0
007FE7F0
007EC7E0
007F8FE0
007F8FE0
007F0FE0
00FE0FC0
00FE0FC0
00FC1FC0
00FC1FC0
00FC1FC0
01FC1F80
01FC1F80
ENDCHAR
STARTCHAR Eng
ENCODING 330
SWIDTH 789 0
DWIDTH 27 0
BBX 26 32 3 -7
BITMAP
07E007C0
07E007C0
0FF007C0
0FF00F80
0FF80F80
0FF80F80
0FFC0F80
1FFC0F80
1FFE1F00
1FFE1F00
1F7E1F00
1F7F1F00
3E3F1F00
3E3FBE00
3E1FBE00
3E1FFE00
3E0FFE00
7C0FFE00
7C07FE00
7C07FE00
7C03FE00
7C03FC00
F801FC00
F801FC00
F801FC00
0001F800
0001F800
0083F000
01FFF000
01FFE000
01FF8000
00FE0000
ENDCHAR
STARTCHAR eng
ENCODING 331
SWIDTH 675 0
DWIDTH 23 0
BBX 21 25 2 -7
BITMAP
0FC1E0
1FC7F0
1FCFF8
1F9FF8
1F9FF8
1FBBF8
3FF3F8
3F63F0
3FC7F0
3FC7F0
3F87F0
7F07F0
7F07F0
7E07F0
7E07E0
7E07E0
FE0FE0
FE0FE0
000FC0
000FC0
041F80
0FFF80
0FFF00
0FFC00
07F000
ENDCHAR
STARTCHAR Omacron
ENCODING 332
SWIDTH 855 0
DWIDTH 29 0
BBX 27 30 3 0
BITMAP
003FF800
007FF800
007FF800
007FF000
00000000
000FF800
003FFE00
00FFFF80
03FFFFC0
07F83FC0
0FE01FE0
1FC00FE0
1F800FE0
3F800FE0
3F000FE0
7F000FE0
7F000FE0
FE000FE0
FE000FE0
FE001FC0
FE001FC0
FE003F80
FE003F80
FF007F00
7F00FE00
7FC3FC00
3FFFF800
1FFFE000
0FFFC000
01FE0000
ENDCHAR
STARTCHAR omacron
ENCODING 333
SWIDTH 663 0
DWIDTH 23 0
BBX 21 23 3 0
BITMAP
01FFC0
03FFC0
03FFC0
03FF80
000000
007F80
01FFE0
07FFF0
0FFFF0
1FC7F8
3F83F8
3F03F8
7E03F8
7E03F0
FE03F0
FE07F0
FE07E0
FE0FE0
FF1FC0
FFFF80
7FFE00
3FFC00
0FE000
ENDCHAR
STARTCHAR Obreve
ENCODING 334
SWIDTH 855 0
DWIDTH 29 0
BBX 27 30 3 0
BITMAP
00383C00
003FF800
001FF000
000FC000
00000000
000FF800
003FFE00
00FFFF80
03FFFFC0
07F83FC0
0FE01FE0
1FC00FE0
1F800FE0
3F800FE0
3F000FE0
7F000FE0
7F000FE0
FE000FE0
FE000FE0
FE001FC0
FE001FC0
FE003F80
FE003F80
FF007F00
7F00FE00
7FC3FC00
3FFFF800
1FFFE000
0FFFC000
01FE0000
ENDCHAR
STARTCHAR obreve
ENCODING 335
SWIDTH 663 0
DWIDTH 23 0
BBX 21 23 3 0
BITMAP
0383C0
03FF80
01FF00
00FC00
000000
007F80
01FFE0
07FFF0
0FFFF0
1FC7F8
3F83F8
3F03F8
7E03F8
7E03F0
FE03F0
FE07F0
FE07E0
FE0FE0
FF1FC0
FFFF80
7FFE00
3FFC00
0FE000
ENDCHAR
STARTCHAR Ohungarumlaut
ENCODING 336
SWIDTH 855 0
DWIDTH 29 0
BBX 27 31 3 0
BITMAP
00079E00
000F3800
001E7000
003CE000
0071C000
00000000
000FF800
003FFE00
00FFFF80
03FFFFC0
07F83FC0
0FE01FE0
1FC00FE0
1F800FE0
3F800FE0
3F000FE0
7F000FE0
7F000FE0
FE000FE0
FE000FE0
FE001FC0
FE001FC0
FE003F80
FE003F80
FF007F00
7F00FE00
7FC3FC00
3FFFF800
1FFFE000
0FFFC000
01FE0000
ENDCHAR
STARTCHAR ohungarumlaut
ENCODING 337
SWIDTH 663 0
DWIDTH 23 0
BBX 21 24 3 0
BITMAP
003CF0
0079C0
00F380
01E700
038E00
000000
007F80
01FFE0
07FFF0
0FFFF0
1FC7F8
3F83F8
3F03F8
7E03F8
7E03F0
FE03F0
FE07F0
FE07E0
FE0FE0
FF1FC0
FFFF80
7FFE00
3FFC00
0FE000
ENDCHAR
STARTCHAR OE
ENCODING 338
SWIDTH 1103 0
DWIDTH 37 0
BBX 37 25 3 0
BITMAP
000FFFFFF8
003FFFFFF8
00FFFFFFF0
03FFFFFFF0
07F87FC000
0FE03FC000
0FC01F8000
1F801F8000
3F803F8000
3F003F8000
7F003FFF80
7F003FFF80
FE003FFF00
FE007FFF00
FE007F0000
FE007F0000
FE007F0000
FE007E0000
FF00FE0000
7F00FE0000
7FC3FE0000
3FFFFFFFC0
1FFFFFFF80
0FFFFFFF80
01FFFFFF80
ENDCHAR
STARTCHAR oe
ENCODING 339
SWIDTH 1004 0
DWIDTH 34 0
BBX 32 18 2 0
BITMAP
003F81F8
01FFE7FE
07FFFFFF
0FFFFFFF
1FC7FE3F
3F83FC3E
3F03F87E
7E03F8FC
7E03FFF8
FE03FFE0
FE03FF80
FE07F001
FE0FF007
FF1FF83F
FFFFFFFE
7FFFFFFE
3FF8FFFC
0FE03FC0
ENDCHAR
STARTCHAR Racute
ENCODING 340
SWIDTH 708 0
DWIDTH 24 0
BBX 22 30 3 0
BITMAP
0007E0
000F80
001E00
007800
000000
07FFE0
07FFF8
0FFFFC
0FFFFC
0FC1FC
0FC1FC
0FC1FC
1F81FC
1F81F8
1F83F0
1F87F0
1FFFE0
3FFF80
3FFF00
3FFF00
3F3F80
3F1F80
7F1F80
7E1FC0
7E0FC0
7E0FE0
7E0FE0
FE07E0
FC07F0
FC07F0
ENDCHAR
STARTCHAR racute
ENCODING 341
SWIDTH 542 0
DWIDTH 18 0
BBX 19 23 2 0
BITMAP
003F00
007C00
00F000
03C000
000000
0FC1E0
1FC3C0
1FC7C0
1F8FC0
1F9F80
1FBF80
3FB800
3F7000
3FE000
3FC000
3F8000
7F0000
7F0000
7F0000
7E0000
7E0000
FE0000
FE0000
ENDCHAR
STARTCHAR Rcommaaccent
ENCODING 342
SWIDTH 708 0
DWIDTH 24 0
BBX 22 39 3 -14
BITMAP
07FFE0
07FFF8
0FFFFC
0FFFFC
0FC1FC
0FC1FC
0FC1FC
1F81FC
1F81F8
1F83F0
1F87F0
1FFFE0
3FFF80
3FFF00
3FFF00
3F3F80
3F1F80
7F1F80
7E1FC0
7E0FC0
7E0FE0
7E0FE0
FE07E0
FC07F0
FC07F0
000000
01FC00
01FC00
01FC00
01F800
03F800
03F800
03F800
00F000
00F000
01E000
07E000
078000
060000
ENDCHAR
STARTCHAR rcommaaccent
ENCODING 343
SWIDTH 542 0
DWIDTH 18 0
BBX 19 32 2 -14
BITMAP
0FC1E0
1FC3C0
1FC7C0
1F8FC0
1F9F80
1FBF80
3FB800
3F7000
3FE000
3FC000
3F8000
7F0000
7F0000
7F0000
7E0000
7E0000
FE0000
FE0000
000000
1FC000
1FC000
1FC000
1F8000
3F8000
3F8000
3F8000
0F0000
0F0000
1E0000
7E0000
780000
600000
ENDCHAR
STARTCHAR Rcaron
ENCODING 344
SWIDTH 708 0
DWIDTH 24 0
BBX 22 30 3 0
BITMAP
01E1E0
00F780
007F00
007E00
000000
07FFE0
07FFF8
0FFFFC
0FFFFC
0FC1FC
0FC1FC
0FC1FC
1F81FC
1F81F8
1F83F0
1F87F0
1FFFE0
3FFF80
3FFF00
3FFF00
3F3F80
3F1F80
7F1F80
7E1FC0
7E0FC0
7E0FE0
7E0FE0
FE07E0
FC07F0
FC07F0
ENDCHAR
STARTCHAR rcaron
ENCODING 345
SWIDTH 542 0
DWIDTH 18 0
BBX 19 23 2 0
BITMAP
078780
03DE00
01FC00
01F800
000000
0FC1E0
1FC3C0
1FC7C0
1F8FC0
1F9F80
1FBF80
3FB800
3F7000
3FE000
3FC000
3F8000
7F0000
7F0000
7F0000
7E0000
7E0000
FE0000
FE0000
ENDCHAR
STARTCHAR Sacute
ENCODING 346
SWIDTH 639 0
DWIDTH 22 0
BBX 20 30 3 0
BITMAP
001F80
003E00
007800
01E000
000000
007FC0
01FFF0
03FFF0
07FFE0
0FE060
0FC000
1FC000
1FC000
1FE000
0FF000
0FFC00
07FE00
03FF00
01FF80
00FFC0
003FC0
001FC0
001FC0
001FC0
001FC0
603F80
7FFF80
FFFE00
FFFC00
FFE000
ENDCHAR
STARTCHAR sacute
ENCODING 347
SWIDTH 527 0
DWIDTH 18 0
BBX 17 23 2 0
BITMAP
003F00
007C00
00F000
03C000
000000
00FF80
03FF80
0FFF00
0FFF00
1FC000
1FC000
0FC000
0FE000
07F800
03FC00
00FE00
007E00
407E00
70FE00
FFFE00
FFFC00
FFF800
1FE000
ENDCHAR
STARTCHAR Scircumflex
ENCODING 348
SWIDTH 639 0
DWIDTH 22 0
BBX 20 30 3 0
BITMAP
007E00
00FE00
01EF00
078780
000000
007FC0
01FFF0
03FFF0
07FFE0
0FE060
0FC000
1FC000
1FC000
1FE000
0FF000
0FFC00
07FE00
03FF00
01FF80
00FFC0
003FC0
001FC0
001FC0
001FC0
001FC0
603F80
7FFF80
FFFE00
FFFC00
FFE000
ENDCHAR
STARTCHAR scircumflex
ENCODING 349
SWIDTH 527 0
DWIDTH 18 0
BBX 17 23 2 0
BITMAP
00FC00
01FC00
03DE00
0F0F00
000000
00FF80
03FF80
0FFF00
0FFF00
1FC000
1FC000
0FC000
0FE000
07F800
03FC00
00FE00
007E00
407E00
70FE00
FFFE00
FFFC00
FFF800
1FE000
ENDCHAR
STARTCHAR Scedilla
ENCODING 350
SWIDTH 639 0
DWIDTH 22 0
BBX 20 32 3 -7
BITMAP
007FC0
01FFF0
03FFF0
07FFE0
0FE060
0FC000
1FC000
1FC000
1FE000
0FF000
0FFC00
07FE00
03FF00
01FF80
00FFC0
003FC0
001FC0
001FC0
001FC0
001FC0
603F80
7FFF80
FFFE00
FFFC00
FFE000
007000
00E000
00F000
003800
003800
03F800
03F000
ENDCHAR
STARTCHAR scedilla
ENCODING 351
SWIDTH 527 0
DWIDTH 18 0
BBX 17 25 2 -7
BITMAP
00FF80
03FF80
0FFF00
0FFF00
1FC000
1FC000
0FC000
0FE000
07F800
03FC00
00FE00
007E00
407E00
70FE00
FFFE00
FFFC00
FFF800
1FE000
01C000
038000
03C000
00E000
00E000
0FE000
0FC000
ENDCHAR
STARTCHAR Scaron
ENCODING 352
SWIDTH 639 0
DWIDTH 22 0
BBX 20 31 3 0
BITMAP
00F0F0
007BC0
003F80
003F00
000000
000000
007FC0
01FFF0
03FFF0
07FFE0
0FE060
0FC000
1FC000
1FC000
1FE000
0FF000
0FFC00
07FE00
03FF00
01FF80
00FFC0
003FC0
001FC0
001FC0
001FC0
001FC0
603F80
7FFF80
FFFE00
FFFC00
FFE000
ENDCHAR
STARTCHAR scaron
ENCODING 353
SWIDTH 527 0
DWIDTH 18 0
BBX 19 24 2 0
BITMAP
01E1E0
00F780
007F00
007E00
000000
000000
00FF80
03FF80
0FFF00
0FFF00
1FC000
1FC000
0FC000
0FE000
07F800
03FC00
00FE00
007E00
407E00
70FE00
FFFE00
FFFC00
FFF800
1FE000
ENDCHAR
STARTCHAR Tcommaaccent
ENCODING 354
SWIDTH 747 0
DWIDTH 25 0
BBX 25 32 5 -7
BITMAP
7FFFFF80
FFFFFF80
FFFFFF80
FFFFFF00
007E0000
007E0000
00FE0000
00FE0000
00FC0000
00FC0000
00FC0000
01FC0000
01FC0000
01FC0000
01F80000
01F80000
03F80000
03F80000
03F80000
03F00000
03F00000
07F00000
07F00000
07F00000
07E00000
00700000
00E00000
00F00000
00380000
00380000
03F80000
03F00000
ENDCHAR
STARTCHAR tcommaaccent
ENCODING 355
SWIDTH 437 0
DWIDTH 15 0
BBX 13 30 4 -7
BITMAP
00E0
0FC0
1FC0
1FC0
1FC0
7FF8
FFF8
FFF8
FFF0
3F80
3F80
3F00
7F00
7F00
7F00
7E00
7E00
FE00
FF00
FFE0
FFC0
7FC0
3F80
0700
0E00
0F00
0380
0380
3F80
3F00
ENDCHAR
STARTCHAR Tcaron
ENCODING 356
SWIDTH 747 0
DWIDTH 25 0
BBX 25 30 5 0
BITMAP
01E1E000
00F78000
007F0000
007E0000
00000000
7FFFFF80
FFFFFF80
FFFFFF80
FFFFFF00
007E0000
007E0000
00FE0000
00FE0000
00FC0000
00FC0000
00FC0000
01FC0000
01FC0000
01FC0000
01F80000
01F80000
03F80000
03F80000
03F80000
03F00000
03F00000
07F00000
07F00000
07F00000
07E00000
ENDCHAR
STARTCHAR tcaron
ENCODING 357
SWIDTH 680 0
DWIDTH 23 0
BBX 23 26 4 0
BITMAP
0000FE
0000FE
0000FC
00E0FC
0FC1FC
1FC1FC
1FC1FC
1FC078
7FF878
FFFBF0
FFFBE0
FFF300
3F8000
3F8000
3F0000
7F0000
7F0000
7F0000
7E0000
7E0000
FE0000
FF0000
FFE000
FFC000
7FC000
3F8000
ENDCHAR
STARTCHAR Tbar
ENCODING 358
SWIDTH 747 0
DWIDTH 25 0
BBX 25 25 5 0
BITMAP
7FFFFF80
FFFFFF80
FFFFFF80
FFFFFF00
007E0000
007E0000
00FE0000
00FE0000
00FC0000
00FC0000
01FFC000
01FFC000
01FFC000
01FFC000
01F80000
01F80000
03F80000
03F80000
03F80000
03F00000
03F00000
07F00000
07F00000
07F00000
07E00000
ENDCHAR
STARTCHAR tbar
ENCODING 359
SWIDTH 437 0
DWIDTH 15 0
BBX 13 23 4 0
BITMAP
00E0
0FC0
1FC0
1FC0
1FC0
7FF8
FFF8
FFF8
FFF0
3F80
3F80
3F00
7FF0
7FF0
7FF0
7FF0
7E00
FE00
FF00
FFE0
FFC0
7FC0
3F80
ENDCHAR
STARTCHAR Utilde
ENCODING 360
SWIDTH 759 0
DWIDTH 26 0
BBX 24 30 4 0
BITMAP
0078E0
01FFC0
01FFC0
038F80
000000
1FC03F
1F803F
1F803F
1F803E
3F807E
3F807E
3F007E
3F007E
3F007C
7F00FC
7F00FC
7E00FC
7E00FC
7E00F8
FE01F8
FE01F8
FE01F8
FE01F0
FE03F0
FE03E0
7F07E0
7FFFC0
3FFF80
1FFF00
03FC00
ENDCHAR
STARTCHAR utilde
ENCODING 361
SWIDTH 675 0
DWIDTH 23 0
BBX 21 23 3 0
BITMAP
00F1C0
03FF80
03FF80
071F00
000000
1F83F8
1F83F8
3F83F0
3F83F0
3F07F0
3F07F0
3F07F0
7F0FE0
7F1FE0
7E1FE0
7E37E0
FE7FE0
FEEFC0
FFCFC0
FFCFC0
FF9FC0
7F1FC0
3C1F80
ENDCHAR
STARTCHAR Umacron
ENCODING 362
SWIDTH 759 0
DWIDTH 26 0
BBX 24 30 4 0
BITMAP
00FFE0
01FFE0
01FFE0
01FFC0
000000
1FC03F
1F803F
1F803F
1F803E
3F807E
3F807E
3F007E
3F007E
3F007C
7F00FC
7F00FC
7E00FC
7E00FC
7E00F8
FE01F8
FE01F8
FE01F8
FE01F0
FE03F0
FE03E0
7F07E0
7FFFC0
3FFF80
1FFF00
03FC00
ENDCHAR
STARTCHAR umacron
ENCODING 363
SWIDTH 675 0
DWIDTH 23 0
BBX 21 23 3 0
BITMAP
03FF80
07FF80
07FF80
07FF00
000000
1F83F8
1F83F8
3F83F0
3F83F0
3F07F0
3F07F0
3F07F0
7F0FE0
7F1FE0
7E1FE0
7E37E0
FE7FE0
FEEFC0
FFCFC0
FFCFC0
FF9FC0
7F1FC0
3C1F80
ENDCHAR
STARTCHAR Ubreve
ENCODING 364
SWIDTH 759 0
DWIDTH 26 0
BBX 24 30 4 0
BITMAP
01C1E0
01FFC0
00FF80
007E00
000000
1FC03F
1F803F
1F803F
1F803E
3F807E
3F807E
3F007E
3F007E
3F007C
7F00FC
7F00FC
7E00FC
7E00FC
7E00F8
FE01F8
FE01F8
FE01F8
FE01F0
FE03F0
FE03E0
7F07E0
7FFFC0
3FFF80
1FFF00
03FC00
ENDCHAR
STARTCHAR ubreve
ENCODING 365
SWIDTH 675 0
DWIDTH 23 0
BBX 21 23 3 0
BITMAP
0383C0
03FF80
01FF00
00FC00
000000
1F83F8
1F83F8
3F83F0
3F83F0
3F07F0
3F07F0
3F07F0
7F0FE0
7F1FE0
7E1FE0
7E37E0
FE7FE0
FEEFC0
FFCFC0
FFCFC0
FF9FC0
7F1FC0
3C1F80
ENDCHAR
STARTCHAR Uring
ENCODING 366
SWIDTH 759 0
DWIDTH 26 0
BBX 24 31 4 0
BITMAP
001C00
003E00
003600
003E00
001C00
000000
1FC03F
1F803F
1F803F
1F803E
3F807E
3F807E
3F007E
3F007E
3F007C
7F00FC
7F00FC
7E00FC
7E00FC
7E00F8
FE01F8
FE01F8
FE01F8
FE01F0
FE03F0
FE03E0
7F07E0
7FFFC0
3FFF80
1FFF00
03FC00
ENDCHAR
STARTCHAR uring
ENCODING 367
SWIDTH 675 0
DWIDTH 23 0
BBX 21 24 3 0
BITMAP
003800
007C00
006C00
007C00
003800
000000
1F83F8
1F83F8
3F83F0
3F83F0
3F07F0
3F07F0
3F07F0
7F0FE0
7F1FE0
7E1FE0
7E37E0
FE7FE0
FEEFC0
FFCFC0
FFCFC0
FF9FC0
7F1FC0
3C1F80
ENDCHAR
STARTCHAR Uhungarumlaut
ENCODING 368
SWIDTH 759 0
DWIDTH 26 0
BBX 24 31 4 0
BITMAP
001E78
003CE0
0079C0
00F380
01C700
000000
1FC03F
1F803F
1F803F
1F803E
3F807E
3F807E
3F007E
3F007E
3F007C
7F00FC
7F00FC
7E00FC
7E00FC
7E00F8
FE01F8
FE01F8
FE01F8
FE01F0
FE03F0
FE03E0
7F07E0
7FFFC0
3FFF80
1FFF00
03FC00
ENDCHAR
STARTCHAR uhungarumlaut
ENCODING 369
SWIDTH 675 0
DWIDTH 23 0
BBX 21 24 3 0
BITMAP
0079E0
00F380
01E700
03CE00
071C00
000000
1F83F8
1F83F8
3F83F0
3F83F0
3F07F0
3F07F0
3F07F0
7F0FE0
7F1FE0
7E1FE0
7E37E0
FE7FE0
FEEFC0
FFCFC0
FFCFC0
FF9FC0
7F1FC0
3C1F80
ENDCHAR
STARTCHAR Uogonek
ENCODING 370
SWIDTH 759 0
DWIDTH 26 0
BBX 24 31 4 -6
BITMAP
1FC03F
1F803F
1F803F
1F803E
3F807E
3F807E
3F007E
3F007E
3F007C
7F00FC
7F00FC
7E00FC
7E00FC
7E00F8
FE01F8
FE01F8
FE01F8
FE01F0
FE03F0
FE03E0
7F07E0
7FFFC0
3FFF80
1FFF00
03FC00
000000
000000
007000
01E000
01F400
00FC00
ENDCHAR
STARTCHAR uogonek
ENCODING 371
SWIDTH 675 0
DWIDTH 23 0
BBX 21 24 3 -6
BITMAP
1F83F8
1F83F8
3F83F0
3F83F0
3F07F0
3F07F0
3F07F0
7F0FE0
7F1FE0
7E1FE0
7E37E0
FE7FE0
FEEFC0
FFCFC0
FFCFC0
FF9FC0
7F1FC0
3C1F80
000000
000000
007000
01E000
01F400
00FC00
ENDCHAR
STARTCHAR Wcircumflex
ENCODING 372
SWIDTH 991 0
DWIDTH 34 0
BBX 31 30 6 0
BITMAP
000FC000
001FC000
003DE000
00F0F000
00000000
FC07E03E
FC07E03C
FC07E07C
FC0FE078
FC0FE0F8
FC1FE0F0
FC1FE1F0
FC1FE1F0
FC3FE1E0
FC3FE3E0
FC7FE3C0
7C7FE7C0
7CF7E780
7EF7EF80
7EF7EF00
7FE7FF00
7FE7FE00
7FC7FE00
7FC7FE00
7FC7FC00
7F87FC00
7F87F800
7F07F800
7F07F000
7F07F000
ENDCHAR
STARTCHAR wcircumflex
ENCODING 373
SWIDTH 878 0
DWIDTH 30 0
BBX 28 23 5 0
BITMAP
001F8000
003F8000
007BC000
01E1E000
00000000
FC0F81F0
FC1F81E0
FC1F83E0
FC3F83C0
FC3F87C0
FC7F8780
FC7FCF80
FCFFCF00
FCFFDF00
FDEFDE00
FDEFFE00
FFCFFC00
7FCFFC00
7F87F800
7F87F800
7F07F000
7F07F000
7E07E000
ENDCHAR
STARTCHAR Ycircumflex
ENCODING 374
SWIDTH 681 0
DWIDTH 23 0
BBX 22 30 5 0
BITMAP
00FC00
01FC00
03DE00
0F0F00
000000
FE00FC
7E00F8
7E01F0
7F03E0
3F07C0
3F87C0
3F8F80
1F9F00
1FFE00
1FFE00
0FFC00
0FF800
07F000
07F000
07E000
07E000
0FE000
0FE000
0FE000
0FC000
0FC000
1FC000
1FC000
1FC000
1F8000
ENDCHAR
STARTCHAR ycircumflex
ENCODING 375
SWIDTH 633 0
DWIDTH 21 0
BBX 24 30 1 -7
BITMAP
003F00
007F00
00F780
03C3C0
000000
1FC01F
1FC03E
1FC07C
1FC07C
0FC0F8
0FE1F0
0FE1F0
0FE3E0
0FE7C0
07E7C0
07EF80
07FF00
07FF00
07FE00
03FC00
03F800
03F800
03F000
03E000
07E000
0FC000
1F8000
3F8000
7F0000
FE0000
ENDCHAR
STARTCHAR Ydieresis
ENCODING 376
SWIDTH 681 0
DWIDTH 23 0
BBX 22 31 5 0
BITMAP
01E3C0
01E3C0
03C780
03C780
000000
000000
FE00FC
7E00F8
7E01F0
7F03E0
3F07C0
3F87C0
3F8F80
1F9F00
1FFE00
1FFE00
0FFC00
0FF800
07F000
07F000
07E000
07E000
0FE000
0FE000
0FE000
0FC000
0FC000
1FC000
1FC000
1FC000
1F8000
ENDCHAR
STARTCHAR Zacute
ENCODING 377
SWIDTH 687 0
DWIDTH 23 0
BBX 24 30 2 0
BITMAP
0001F8
0003E0
000780
001E00
000000
03FFFF
07FFFF
07FFFF
07FFFE
0001FE
0003FC
0007F8
000FF0
001FE0
001FE0
003FC0
007F80
00FF00
01FE00
03FC00
07FC00
07F800
0FF000
1FE000
3FC000
7F8000
7FFFF0
7FFFF0
FFFFF0
FFFFF0
ENDCHAR
STARTCHAR zacute
ENCODING 378
SWIDTH 630 0
DWIDTH 21 0
BBX 21 23 2 0
BITMAP
000FC0
001F00
003C00
00F000
000000
0FFFF8
0FFFF8
0FFFF0
1FFFF0
000FE0
001FC0
003F80
00FF00
01FE00
03FC00
07F800
0FE000
1FC000
3F8000
7FFFE0
7FFFE0
FFFFC0
FFFFC0
ENDCHAR
STARTCHAR Zdotaccent
ENCODING 379
SWIDTH 687 0
DWIDTH 23 0
BBX 24 30 2 0
BITMAP
0007C0
0007C0
000F80
000F80
000000
03FFFF
07FFFF
07FFFF
07FFFE
0001FE
0003FC
0007F8
000FF0
001FE0
001FE0
003FC0
007F80
00FF00
01FE00
03FC00
07FC00
07F800
0FF000
1FE000
3FC000
7F8000
7FFFF0
7FFFF0
FFFFF0
FFFFF0
ENDCHAR
STARTCHAR zdotaccent
ENCODING 380
SWIDTH 630 0
DWIDTH 21 0
BBX 21 23 2 0
BITMAP
003E00
003E00
007C00
007C00
000000
0FFFF8
0FFFF8
0FFFF0
1FFFF0
000FE0
001FC0
003F80
00FF00
01FE00
03FC00
07F800
0FE000
1FC000
3F8000
7FFFE0
7FFFE0
FFFFC0
FFFFC0
ENDCHAR
STARTCHAR Zcaron
ENCODING 381
SWIDTH 687 0
DWIDTH 23 0
BBX 24 31 2 0
BITMAP
003C3C
001EF0
000FE0
000FC0
000000
000000
03FFFF
07FFFF
07FFFF
07FFFE
0001FE
0003FC
0007F8
000FF0
001FE0
001FE0
003FC0
007F80
00FF00
01FE00
03FC00
07FC00
07F800
0FF000
1FE000
3FC000
7F8000
7FFFF0
7FFFF0
FFFFF0
FFFFF0
ENDCHAR
STARTCHAR zcaron
ENCODING 382
SWIDTH 630 0
DWIDTH 21 0
BBX 21 24 2 0
BITMAP
007878
003DE0
001FC0
001F80
000000
000000
0FFFF8
0FFFF8
0FFFF0
1FFFF0
000FE0
001FC0
003F80
00FF00
01FE00
03FC00
07F800
0FE000
1FC000
3F8000
7FFFE0
7FFFE0
FFFFC0
FFFFC0
ENDCHAR
STARTCHAR uni0186
ENCODING 390
SWIDTH 737 0
DWIDTH 25 0
BBX 25 25 3 0
BITMAP
007FE000
0FFFF800
0FFFFC00
0FFFFE00
0F01FF00
0800FF00
00007F80
00003F80
00003F80
00003F80
00003F80
00003F80
00003F80
00007F00
00007F00
00007E00
0000FE00
0001FC00
0003FC00
4007F800
781FF000
FFFFE000
FFFF8000
FFFE0000
1FF00000
ENDCHAR
STARTCHAR uni0189
ENCODING 393
SWIDTH 822 0
DWIDTH 28 0
BBX 28 25 2 0
BITMAP
03FFFC00
03FFFF80
07FFFFC0
07FFFFE0
07F03FE0
07F00FF0
07E00FF0
07E007F0
0FE007F0
0FE007F0
7FFF07F0
FFFE07F0
FFFE07F0
FFFE0FE0
1FC00FE0
1FC00FE0
1F801FC0
1F803FC0
3F807F80
3F80FF00
3F83FF00
3FFFFE00
3FFFF800
7FFFE000
7FFF8000
ENDCHAR
STARTCHAR uni018E
ENCODING 398
SWIDTH 642 0
DWIDTH 22 0
BBX 22 25 3 0
BITMAP
0FFFFC
0FFFFC
0FFFF8
1FFFF8
0003F8
0003F8
0003F8
0003F0
0003F0
0007F0
0007F0
07FFF0
07FFE0
0FFFE0
0FFFE0
000FE0
000FE0
000FC0
000FC0
001FC0
001FC0
7FFFC0
7FFF80
FFFF80
FFFF80
ENDCHAR
STARTCHAR florin
ENCODING 402
SWIDTH 687 0
DWIDTH 23 0
BBX 19 31 7 -6
BITMAP
001FC0
007FE0
00FFE0
01FFE0
03F840
03F000
07E000
07E000
07E000
0FE000
0FC000
7FF800
7FF800
7FF800
7FF800
1F8000
1F8000
1F8000
3F8000
3F8000
3F0000
3F0000
3F0000
7F0000
7F0000
7F0000
7E0000
7E0000
FE0000
FE0000
FE0000
ENDCHAR
STARTCHAR uni0197
ENCODING 407
SWIDTH 361 0
DWIDTH 12 0
BBX 11 25 3 0
BITMAP
07E0
0FE0
0FE0
0FC0
0FC0
0FC0
1FC0
1FC0
1F80
1F80
FFE0
FFE0
FFE0
FFE0
3F00
3F00
3F00
7F00
7F00
7E00
7E00
7E00
FE00
FE00
FC00
ENDCHAR
STARTCHAR uni019A
ENCODING 410
SWIDTH 343 0
DWIDTH 12 0
BBX 12 26 2 0
BITMAP
07F0
07F0
07E0
07E0
0FE0
0FE0
0FE0
0FC0
0FC0
1FC0
1FC0
7FF0
7FF0
7FF0
7FF0
3F80
3F80
3F00
3F00
7F00
7F00
7F00
7E00
7E00
FE00
FE00
ENDCHAR
STARTCHAR uni019D
ENCODING 413
SWIDTH 789 0
DWIDTH 27 0
BBX 35 32 -6 -7
BITMAP
0003F003E0
0003F003E0
0007F803E0
0007F807C0
0007FC07C0
0007FC07C0
0007FE07C0
000FFE07C0
000FFF0F80
000FFF0F80
000FBF0F80
000FBF8F80
001F1F8F80
001F1FDF00
001F0FDF00
001F0FFF00
001F07FF00
003F07FF00
007F01FE00
007F01FE00
007F01FE00
007E01FE00
007E00FE00
00FE00FC00
00FE007C00
00FC000000
00FC000000
41F8000000
FFF8000000
FFF0000000
FFC0000000
7F00000000
ENDCHAR
STARTCHAR uni019F
ENCODING 415
SWIDTH 855 0
DWIDTH 29 0
BBX 27 25 3 0
BITMAP
000FF800
003FFE00
00FFFF80
03FFFFC0
07F83FC0
0FE01FE0
1FC00FE0
1F800FE0
3F800FE0
3F000FE0
FFFFFFE0
FFFFFFE0
FFFFFFE0
FFFFFFE0
FE001FC0
FE001FC0
FE003F80
FE003F80
FF007F00
7F00FE00
7FC3FC00
3FFFF800
1FFFE000
0FFFC000
01FE0000
ENDCHAR
STARTCHAR Ohorn
ENCODING 416
SWIDTH 855 0
DWIDTH 29 0
BBX 33 25 3 0
BITMAP
000FF83F80
003FFE3F80
00FFFFBF00
03FFFFFF00
07F83FFF00
0FE01FFF00
1FC00FFF00
1F800FFE00
3F800FFE00
3F000FFC00
7F000FF800
7F000FE000
FE000FE000
FE000FE000
FE001FC000
FE001FC000
FE003F8000
FE003F8000
FF007F0000
7F00FE0000
7FC3FC0000
3FFFF80000
1FFFE00000
0FFFC00000
01FE000000
ENDCHAR
STARTCHAR ohorn
ENCODING 417
SWIDTH 663 0
DWIDTH 23 0
BBX 28 18 3 0
BITMAP
007F87F0
01FFE7F0
07FFF7E0
0FFFF7E0
1FC7FFE0
3F83FFE0
3F03FFE0
7E03FBC0
7E03F3C0
FE03FF80
FE07FF00
FE07F800
FE0FE000
FF1FC000
FFFF8000
7FFE0000
3FFC0000
0FE00000
ENDCHAR
STARTCHAR Uhorn
ENCODING 431
SWIDTH 759 0
DWIDTH 26 0
BBX 31 25 4 0
BITMAP
1FC03FFE
1F803FFE
1F803FFC
1F803EFC
3F807FFC
3F807FFC
3F007FFC
3F007E78
3F007C78
7F00FFF0
7F00FFE0
7E00FF00
7E00FC00
7E00F800
FE01F800
FE01F800
FE01F800
FE01F000
FE03F000
FE03E000
7F07E000
7FFFC000
3FFF8000
1FFF0000
03FC0000
ENDCHAR
STARTCHAR uhorn
ENCODING 432
SWIDTH 675 0
DWIDTH 23 0
BBX 28 18 3 0
BITMAP
1F83FFF0
1F83FFF0
3F83F7E0
3F83F7E0
3F07FFE0
3F07FFE0
3F07FFE0
7F0FE3C0
7F1FE3C0
7E1FFF80
7E37FF00
FE7FF800
FEEFC000
FFCFC000
FFCFC000
FF9FC000
7F1FC000
3C1F8000
ENDCHAR
STARTCHAR uni01B5
ENCODING 437
SWIDTH 687 0
DWIDTH 23 0
BBX 24 25 2 0
BITMAP
03FFFF
07FFFF
07FFFF
07FFFE
0001FE
0003FC
0007F8
000FF0
001FE0
001FE0
01FFC0
01FFC0
01FFC0
01FFC0
03FC00
07FC00
07F800
0FF000
1FE000
3FC000
7F8000
7FFFF0
7FFFF0
FFFFF0
FFFFF0
ENDCHAR
STARTCHAR uni01B6
ENCODING 438
SWIDTH 630 0
DWIDTH 21 0
BBX 21 18 2 0
BITMAP
0FFFF8
0FFFF8
0FFFF0
1FFFF0
000FE0
001FC0
003F80
07FF00
07FF00
07FF00
07FF00
0FE000
1FC000
3F8000
7FFFE0
7FFFE0
FFFFC0
FFFFC0
ENDCHAR
STARTCHAR uni01BB
ENCODING 443
SWIDTH 687 0
DWIDTH 23 0
BBX 22 25 3 0
BITMAP
00FF80
07FFF0
07FFF8
07FFF8
0C03FC
0001FC
0001FC
0001FC
0001F8
0003F8
FFFFFC
FFFFFC
FFFFFC
FFFFFC
00FE00
03F800
07F000
0FC000
1F8000
3F0000
7F0000
7FFFE0
FFFFE0
FFFFE0
FFFFC0
ENDCHAR
STARTCHAR uni01BC
ENCODING 444
SWIDTH 687 0
DWIDTH 23 0
BBX 21 25 4 0
BITMAP
07FFF8
07FFF8
07FFF0
07FFF0
0F0000
0F0000
0E0000
0E0000
1FE000
1FFC00
1FFE00
1FFF00
00FF80
003FC0
001FC0
001FC0
001FC0
001FC0
001FC0
003FC0
607F80
7FFF00
FFFE00
FFFC00
7FE000
ENDCHAR
STARTCHAR uni01C0
ENCODING 448
SWIDTH 259 0
DWIDTH 9 0
BBX 10 32 2 -6
BITMAP
03C0
03C0
03C0
0380
0780
0780
0780
0780
0700
0F00
0F00
0F00
0F00
0E00
1E00
1E00
1E00
1E00
1C00
3C00
3C00
3C00
3C00
3800
7800
7800
7800
7800
7000
F000
F000
F000
ENDCHAR
STARTCHAR uni01C2
ENCODING 450
SWIDTH 687 0
DWIDTH 23 0
BBX 22 32 3 -6
BITMAP
000F00
000F00
000F00
000E00
001E00
001E00
001E00
001E00
001C00
003C00
3FFFFC
3FFFFC
3FFFF8
3FFFF8
007800
007800
007800
007800
7FFFF0
7FFFF0
FFFFF0
FFFFF0
00F000
00E000
01E000
01E000
01E000
01E000
01C000
03C000
03C000
03C000
ENDCHAR
STARTCHAR uni01C3
ENCODING 451
SWIDTH 343 0
DWIDTH 12 0
BBX 11 25 3 0
BITMAP
07E0
0FE0
0FE0
0FC0
0FC0
0FC0
0FC0
0F80
1F80
1F80
1F80
1F00
1F00
1F00
1E00
1E00
3E00
0000
0000
0000
0000
7E00
7E00
FE00
FC00
ENDCHAR
STARTCHAR uni01CD
ENCODING 461
SWIDTH 771 0
DWIDTH 26 0
BBX 25 30 1 0
BITMAP
00787800
003DE000
001FC000
001F8000
00000000
0007F000
0007F000
000FF800
000FF800
001FF800
001FF800
003FF800
003DFC00
007DFC00
00F8FC00
00F8FC00
01F0FC00
01F0FE00
03E0FE00
03E07E00
07FFFE00
07FFFE00
0FFFFF00
0FFFFF00
1F003F00
1E003F00
3E003F00
7C003F80
7C003F80
F8001F80
ENDCHAR
STARTCHAR uni01CE
ENCODING 462
SWIDTH 681 0
DWIDTH 23 0
BBX 21 23 3 0
BITMAP
01E1E0
00F780
007F00
007E00
000000
007FF8
01FFF8
03FFF8
07FFF0
0FC3F0
1F83F0
3F07F0
3F07F0
7E0FE0
7E1FE0
FE3FE0
FE37E0
FE7FE0
FFEFC0
FFCFC0
FF8FC0
7F1FC0
3C1FC0
ENDCHAR
STARTCHAR uni01CF
ENCODING 463
SWIDTH 361 0
DWIDTH 12 0
BBX 13 30 3 0
BITMAP
7878
3DE0
1FC0
1F80
0000
07E0
0FE0
0FE0
0FC0
0FC0
0FC0
1FC0
1FC0
1F80
1F80
1F80
1F80
3F80
3F00
3F00
3F00
3F00
7F00
7F00
7E00
7E00
7E00
FE00
FE00
FC00
ENDCHAR
STARTCHAR uni01D0
ENCODING 464
SWIDTH 343 0
DWIDTH 12 0
BBX 12 23 3 0
BITMAP
F0F0
7BC0
3F80
3F00
0000
1FC0
1FC0
1F80
1F80
1F80
3F80
3F80
3F00
3F00
3F00
7F00
7F00
7E00
7E00
7E00
FE00
FE00
FC00
ENDCHAR
STARTCHAR uni01D1
ENCODING 465
SWIDTH 855 0
DWIDTH 29 0
BBX 27 30 3 0
BITMAP
003C3C00
001EF000
000FE000
000FC000
00000000
000FF800
003FFE00
00FFFF80
03FFFFC0
07F83FC0
0FE01FE0
1FC00FE0
1F800FE0
3F800FE0
3F000FE0
7F000FE0
7F000FE0
FE000FE0
FE000FE0
FE001FC0
FE001FC0
FE003F80
FE003F80
FF007F00
7F00FE00
7FC3FC00
3FFFF800
1FFFE000
0FFFC000
01FE0000
ENDCHAR
STARTCHAR uni01D2
ENCODING 466
SWIDTH 663 0
DWIDTH 23 0
BBX 21 23 3 0
BITMAP
03C3C0
01EF00
00FE00
00FC00
000000
007F80
01FFE0
07FFF0
0FFFF0
1FC7F8
3F83F8
3F03F8
7E03F8
7E03F0
FE03F0
FE07F0
FE07E0
FE0FE0
FF1FC0
FFFF80
7FFE00
3FFC00
0FE000
ENDCHAR
STARTCHAR uni01D3
ENCODING 467
SWIDTH 759 0
DWIDTH 26 0
BBX 24 30 4 0
BITMAP
01E1E0
00F780
007F00
007E00
000000
1FC03F
1F803F
1F803F
1F803E
3F807E
3F807E
3F007E
3F007E
3F007C
7F00FC
7F00FC
7E00FC
7E00FC
7E00F8
FE01F8
FE01F8
FE01F8
FE01F0
FE03F0
FE03E0
7F07E0
7FFFC0
3FFF80
1FFF00
03FC00
ENDCHAR
STARTCHAR uni01D4
ENCODING 468
SWIDTH 675 0
DWIDTH 23 0
BBX 21 23 3 0
BITMAP
03C3C0
01EF00
00FE00
00FC00
000000
1F83F8
1F83F8
3F83F0
3F83F0
3F07F0
3F07F0
3F07F0
7F0FE0
7F1FE0
7E1FE0
7E37E0
FE7FE0
FEEFC0
FFCFC0
FFCFC0
FF9FC0
7F1FC0
3C1F80
ENDCHAR
STARTCHAR uni01D5
ENCODING 469
SWIDTH 759 0
DWIDTH 26 0
BBX 24 36 4 0
BITMAP
00FFE0
01FFE0
01FFE0
01FFC0
000000
0078F0
0078F0
00F1E0
00F1E0
000000
000000
1FC03F
1F803F
1F803F
1F803E
3F807E
3F807E
3F007E
3F007E
3F007C
7F00FC
7F00FC
7E00FC
7E00FC
7E00F8
FE01F8
FE01F8
FE01F8
FE01F0
FE03F0
FE03E0
7F07E0
7FFFC0
3FFF80
1FFF00
03FC00
ENDCHAR
STARTCHAR uni01D6
ENCODING 470
SWIDTH 675 0
DWIDTH 23 0
BBX 21 29 3 0
BITMAP
00FFE0
01FFE0
01FFE0
01FFC0
000000
0078F0
0078F0
00F1E0
00F1E0
000000
000000
1F83F8
1F83F8
3F83F0
3F83F0
3F07F0
3F07F0
3F07F0
7F0FE0
7F1FE0
7E1FE0
7E37E0
FE7FE0
FEEFC0
FFCFC0
FFCFC0
FF9FC0
7F1FC0
3C1F80
ENDCHAR
STARTCHAR uni01D7
ENCODING 471
SWIDTH 759 0
DWIDTH 26 0
BBX 24 36 4 0
BITMAP
0007E0
000F80
001E00
007800
000000
0078F0
0078F0
00F1E0
00F1E0
000000
000000
1FC03F
1F803F
1F803F
1F803E
3F807E
3F807E
3F007E
3F007E
3F007C
7F00FC
7F00FC
7E00FC
7E00FC
7E00F8
FE01F8
FE01F8
FE01F8
FE01F0
FE03F0
FE03E0
7F07E0
7FFFC0
3FFF80
1FFF00
03FC00
ENDCHAR
STARTCHAR uni01D8
ENCODING 472
SWIDTH 675 0
DWIDTH 23 0
BBX 21 29 3 0
BITMAP
0007E0
000F80
001E00
007800
000000
0078F0
0078F0
00F1E0
00F1E0
000000
000000
1F83F8
1F83F8
3F83F0
3F83F0
3F07F0
3F07F0
3F07F0
7F0FE0
7F1FE0
7E1FE0
7E37E0
FE7FE0
FEEFC0
FFCFC0
FFCFC0
FF9FC0
7F1FC0
3C1F80
ENDCHAR
STARTCHAR uni01D9
ENCODING 473
SWIDTH 759 0
DWIDTH 26 0
BBX 24 36 4 0
BITMAP
00F0F0
007BC0
003F80
003F00
000000
0078F0
0078F0
00F1E0
00F1E0
000000
000000
1FC03F
1F803F
1F803F
1F803E
3F807E
3F807E
3F007E
3F007E
3F007C
7F00FC
7F00FC
7E00FC
7E00FC
7E00F8
FE01F8
FE01F8
FE01F8
FE01F0
FE03F0
FE03E0
7F07E0
7FFFC0
3FFF80
1FFF00
03FC00
ENDCHAR
STARTCHAR uni01DA
ENCODING 474
SWIDTH 675 0
DWIDTH 23 0
BBX 21 29 3 0
BITMAP
01E1E0
00F780
007F00
007E00
000000
0078F0
0078F0
00F1E0
00F1E0
000000
000000
1F83F8
1F83F8
3F83F0
3F83F0
3F07F0
3F07F0
3F07F0
7F0FE0
7F1FE0
7E1FE0
7E37E0
FE7FE0
FEEFC0
FFCFC0
FFCFC0
FF9FC0
7F1FC0
3C1F80
ENDCHAR
STARTCHAR uni01DB
ENCODING 475
SWIDTH 759 0
DWIDTH 26 0
BBX 24 36 4 0
BITMAP
00FC00
003C00
001E00
000F00
000000
0078F0
0078F0
00F1E0
00F1E0
000000
000000
1FC03F
1F803F
1F803F
1F803E
3F807E
3F807E
3F007E
3F007E
3F007C
7F00FC
7F00FC
7E00FC
7E00FC
7E00F8
FE01F8
FE01F8
FE01F8
FE01F0
FE03F0
FE03E0
7F07E0
7FFFC0
3FFF80
1FFF00
03FC00
ENDCHAR
STARTCHAR uni01DC
ENCODING 476
SWIDTH 675 0
DWIDTH 23 0
BBX 21 29 3 0
BITMAP
01F800
007800
003C00
001E00
000000
0078F0
0078F0
00F1E0
00F1E0
000000
000000
1F83F8
1F83F8
3F83F0
3F83F0
3F07F0
3F07F0
3F07F0
7F0FE0
7F1FE0
7E1FE0
7E37E0
FE7FE0
FEEFC0
FFCFC0
FFCFC0
FF9FC0
7F1FC0
3C1F80
ENDCHAR
STARTCHAR uni01DD
ENCODING 477
SWIDTH 612 0
DWIDTH 21 0
BBX 18 18 3 0
BITMAP
03FC00
3FFF00
7FFF80
7FFFC0
F83FC0
C01FC0
800FC0
01FFC0
0FFFC0
1FFF80
3F1F80
7E1F00
FC3F00
FC7E00
FFFC00
FFF800
7FE000
1F8000
ENDCHAR
STARTCHAR uni01DE
ENCODING 478
SWIDTH 771 0
DWIDTH 26 0
BBX 25 36 1 0
BITMAP
001FFC00
003FFC00
003FFC00
003FF800
00000000
00078F00
00078F00
000F1E00
000F1E00
00000000
00000000
0007F000
0007F000
000FF800
000FF800
001FF800
001FF800
003FF800
003DFC00
007DFC00
00F8FC00
00F8FC00
01F0FC00
01F0FE00
03E0FE00
03E07E00
07FFFE00
07FFFE00
0FFFFF00
0FFFFF00
1F003F00
1E003F00
3E003F00
7C003F80
7C003F80
F8001F80
ENDCHAR
STARTCHAR uni01DF
ENCODING 479
SWIDTH 681 0
DWIDTH 23 0
BBX 21 29 3 0
BITMAP
00FFE0
01FFE0
01FFE0
01FFC0
000000
0078F0
0078F0
00F1E0
00F1E0
000000
000000
007FF8
01FFF8
03FFF8
07FFF0
0FC3F0
1F83F0
3F07F0
3F07F0
7E0FE0
7E1FE0
FE3FE0
FE37E0
FE7FE0
FFEFC0
FFCFC0
FF8FC0
7F1FC0
3C1FC0
ENDCHAR
STARTCHAR uni01E0
ENCODING 480
SWIDTH 771 0
DWIDTH 26 0
BBX 25 35 1 0
BITMAP
003FF800
007FF800
007FF800
007FF000
00000000
0007C000
0007C000
000F8000
000F8000
00000000
0007F000
0007F000
000FF800
000FF800
001FF800
001FF800
003FF800
003DFC00
007DFC00
00F8FC00
00F8FC00
01F0FC00
01F0FE00
03E0FE00
03E07E00
07FFFE00
07FFFE00
0FFFFF00
0FFFFF00
1F003F00
1E003F00
3E003F00
7C003F80
7C003F80
F8001F80
ENDCHAR
STARTCHAR uni01E1
ENCODING 481
SWIDTH 681 0
DWIDTH 23 0
BBX 21 28 3 0
BITMAP
00FFE0
01FFE0
01FFE0
01FFC0
000000
001F00
001F00
003E00
003E00
000000
007FF8
01FFF8
03FFF8
07FFF0
0FC3F0
1F83F0
3F07F0
3F07F0
7E0FE0
7E1FE0
FE3FE0
FE37E0
FE7FE0
FFEFC0
FFCFC0
FF8FC0
7F1FC0
3C1FC0
ENDCHAR
STARTCHAR uni01E2
ENCODING 482
SWIDTH 1004 0
DWIDTH 34 0
BBX 36 30 1 0
BITMAP
00007FF000
0000FFF000
0000FFF000
0000FFE000
0000000000
00003FFFF0
00003FFFF0
00007FFFE0
0000FFFFE0
0001FF8000
0001FF8000
0003FF8000
0007FF0000
000FBF0000
000FBF0000
001F7FFF00
003E7FFF00
007C7FFF00
007C7FFE00
00F87E0000
01FFFE0000
03FFFE0000
03FFFE0000
07FFFC0000
0F80FC0000
1F00FC0000
1F01FFFF80
3E01FFFF00
7C01FFFF00
F801FFFF00
ENDCHAR
STARTCHAR uni01E3
ENCODING 483
SWIDTH 987 0
DWIDTH 34 0
BBX 31 23 3 0
BITMAP
000FFE00
001FFE00
001FFE00
001FFC00
00000000
007FFDF0
01FFFFFC
03FFFFFE
07FFFFFE
0FC3FC7E
1F83F87C
3F07F07C
3F07F1F8
7E0FFFF0
7E1FFFC0
FE3FFF00
FE77E002
FFF7F006
FFE7F03E
FFC3FFFC
FF83FFFC
7F01FFF8
3C007F80
ENDCHAR
STARTCHAR uni01E4
ENCODING 484
SWIDTH 755 0
DWIDTH 26 0
BBX 28 25 3 0
BITMAP
0007FC00
003FFF80
00FFFF80
03FFFF80
07FC0F00
0FF00100
1FE00000
1FC00000
3F800000
3F000000
7F000000
7F000000
FE000000
FE00FE00
FE00FC00
FE00FC00
FE00FC00
FE01FFF0
FF01FFF0
7F81FFF0
7FC1FFF0
3FFFF800
1FFFF800
0FFFF000
03FF8000
ENDCHAR
STARTCHAR uni01E5
ENCODING 485
SWIDTH 674 0
DWIDTH 23 0
BBX 22 25 2 -7
BITMAP
003FFC
00FFFC
01FFFC
03FFF8
07E1F8
0FC1F8
1F83F8
1F87F8
3F07F0
3F0FF0
7F1FF0
7F3BF0
7F7BF0
7FF7E0
7FE7E0
7FC7E0
FFFFFC
FFFFFC
FFFFFC
FFFFFC
F03FC0
FFFF80
7FFF00
7FFC00
7FF000
ENDCHAR
STARTCHAR Gcaron
ENCODING 486
SWIDTH 755 0
DWIDTH 26 0
BBX 25 30 3 0
BITMAP
00F0F000
007BC000
003F8000
003F0000
00000000
0007FC00
003FFF80
00FFFF80
03FFFF80
07FC0F00
0FF00100
1FE00000
1FC00000
3F800000
3F000000
7F000000
7F000000
FE000000
FE00FE00
FE00FC00
FE00FC00
FE00FC00
FE01FC00
FF01F800
7F81F800
7FC1F800
3FFFF800
1FFFF800
0FFFF000
03FF8000
ENDCHAR
STARTCHAR gcaron
ENCODING 487
SWIDTH 674 0
DWIDTH 23 0
BBX 22 30 2 -7
BITMAP
01E1E0
00F780
007F00
007E00
000000
003FFC
00FFFC
01FFFC
03FFF8
07E1F8
0FC1F8
1F83F8
1F87F8
3F07F0
3F0FF0
7F1FF0
7F3BF0
7F7BF0
7FF7E0
7FE7E0
7FC7E0
3F8FE0
1F0FE0
000FC0
801FC0
F03FC0
FFFF80
7FFF00
7FFC00
7FF000
ENDCHAR
STARTCHAR uni01E8
ENCODING 488
SWIDTH 753 0
DWIDTH 26 0
BBX 23 30 3 0
BITMAP
03C3C0
01EF00
00FE00
00FC00
000000
07E03E
07E07C
0FE0F8
0FE1F0
0FC1F0
0FC3E0
0FC7C0
1FCF80
1FCF00
1F9F00
1FBE00
1FFE00
3FFE00
3FFF00
3F7F80
3F3F80
3F1FC0
7F1FC0
7F0FE0
7F0FE0
7E07F0
7E07F0
FE03F8
FE03F8
FE01FC
ENDCHAR
STARTCHAR uni01E9
ENCODING 489
SWIDTH 666 0
DWIDTH 23 0
BBX 22 31 2 0
BITMAP
1E1E00
0F7800
07F000
07E000
000000
07F000
07F000
07E000
07E000
0FE000
0FE000
0FE000
0FC000
0FC07C
1FC0F8
1FC1F0
1FC3E0
1F87C0
1F8F80
3F9F00
3FBE00
3FFE00
3FFF00
3F7F00
7F3F80
7F3F80
7E1FC0
7E1FC0
7E0FE0
FE0FE0
FE07F0
ENDCHAR
STARTCHAR uni01EA
ENCODING 490
SWIDTH 855 0
DWIDTH 29 0
BBX 27 31 3 -6
BITMAP
000FF800
003FFE00
00FFFF80
03FFFFC0
07F83FC0
0FE01FE0
1FC00FE0
1F800FE0
3F800FE0
3F000FE0
7F000FE0
7F000FE0
FE000FE0
FE000FE0
FE001FC0
FE001FC0
FE003F80
FE003F80
FF007F00
7F00FE00
7FC3FC00
3FFFF800
1FFFE000
0FFFC000
01FE0000
00000000
00000000
001C0000
00780000
007D0000
003F0000
ENDCHAR
STARTCHAR uni01EB
ENCODING 491
SWIDTH 663 0
DWIDTH 23 0
BBX 21 24 3 -6
BITMAP
007F80
01FFE0
07FFF0
0FFFF0
1FC7F8
3F83F8
3F03F8
7E03F8
7E03F0
FE03F0
FE07F0
FE07E0
FE0FE0
FF1FC0
FFFF80
7FFE00
3FFC00
0FE000
000000
000000
00E000
03C000
03E800
01F800
ENDCHAR
STARTCHAR uni01EC
ENCODING 492
SWIDTH 855 0
DWIDTH 29 0
BBX 27 36 3 -6
BITMAP
003FF800
007FF800
007FF800
007FF000
00000000
000FF800
003FFE00
00FFFF80
03FFFFC0
07F83FC0
0FE01FE0
1FC00FE0
1F800FE0
3F800FE0
3F000FE0
7F000FE0
7F000FE0
FE000FE0
FE000FE0
FE001FC0
FE001FC0
FE003F80
FE003F80
FF007F00
7F00FE00
7FC3FC00
3FFFF800
1FFFE000
0FFFC000
01FE0000
00000000
00000000
001C0000
00780000
007D0000
003F0000
ENDCHAR
STARTCHAR uni01ED
ENCODING 493
SWIDTH 663 0
DWIDTH 23 0
BBX 21 29 3 -6
BITMAP
01FFC0
03FFC0
03FFC0
03FF80
000000
007F80
01FFE0
07FFF0
0FFFF0
1FC7F8
3F83F8
3F03F8
7E03F8
7E03F0
FE03F0
FE07F0
FE07E0
FE0FE0
FF1FC0
FFFF80
7FFE00
3FFC00
0FE000
000000
000000
00E000
03C000
03E800
01F800
ENDCHAR
STARTCHAR uni01F0
ENCODING 496
SWIDTH 407 0
DWIDTH 14 0
BBX 20 30 -2 -7
BITMAP
01E1E0
00F780
007F00
007E00
000000
000FC0
000FC0
001FC0
001FC0
001F80
001F80
003F80
003F80
003F80
003F00
003F00
007F00
007F00
007F00
007E00
007E00
00FE00
00FE00
00FC00
00FC00
41F800
FFF800
FFF000
FFC000
7F0000
ENDCHAR
STARTCHAR uni01F4
ENCODING 500
SWIDTH 755 0
DWIDTH 26 0
BBX 25 30 3 0
BITMAP
0003F000
0007C000
000F0000
003C0000
00000000
0007FC00
003FFF80
00FFFF80
03FFFF80
07FC0F00
0FF00100
1FE00000
1FC00000
3F800000
3F000000
7F000000
7F000000
FE000000
FE00FE00
FE00FC00
FE00FC00
FE00FC00
FE01FC00
FF01F800
7F81F800
7FC1F800
3FFFF800
1FFFF800
0FFFF000
03FF8000
ENDCHAR
STARTCHAR uni01F5
ENCODING 501
SWIDTH 674 0
DWIDTH 23 0
BBX 22 30 2 -7
BITMAP
0007E0
000F80
001E00
007800
000000
003FFC
00FFFC
01FFFC
03FFF8
07E1F8
0FC1F8
1F83F8
1F87F8
3F07F0
3F0FF0
7F1FF0
7F3BF0
7F7BF0
7FF7E0
7FE7E0
7FC7E0
3F8FE0
1F0FE0
000FC0
801FC0
F03FC0
FFFF80
7FFF00
7FFC00
7FF000
ENDCHAR
STARTCHAR uni01F8
ENCODING 504
SWIDTH 789 0
DWIDTH 27 0
BBX 26 30 3 0
BITMAP
007E0000
001E0000
000F0000
00078000
00000000
07E007C0
07E007C0
0FF007C0
0FF00F80
0FF80F80
0FF80F80
0FFC0F80
1FFC0F80
1FFE1F00
1FFE1F00
1F7E1F00
1F7F1F00
3E3F1F00
3E3FBE00
3E1FBE00
3E1FFE00
3E0FFE00
7C0FFE00
7C07FC00
7C07FC00
7C03FC00
7C03FC00
F801FC00
F801F800
F800F800
ENDCHAR
STARTCHAR uni01F9
ENCODING 505
SWIDTH 675 0
DWIDTH 23 0
BBX 21 23 2 0
BITMAP
03F000
00F000
007800
003C00
000000
0FC1E0
1FC7F0
1FCFF8
1F9FF8
1F9FF8
1FBBF8
3FF3F8
3F63F0
3FC7F0
3FC7F0
3F87F0
7F07E0
7F07E0
7E0FE0
7E0FE0
7E0FE0
FE0FC0
FE0FC0
ENDCHAR
STARTCHAR Aringacute
ENCODING 506
SWIDTH 771 0
DWIDTH 26 0
BBX 25 37 1 0
BITMAP
0000FC00
0001F000
0003C000
000F0000
00000000
00007000
0000F800
0000D800
0000F800
00007000
00000000
00000000
0007F000
0007F000
000FF800
000FF800
001FF800
001FF800
003FF800
003DFC00
007DFC00
00F8FC00
00F8FC00
01F0FC00
01F0FE00
03E0FE00
03E07E00
07FFFE00
07FFFE00
0FFFFF00
0FFFFF00
1F003F00
1E003F00
3E003F00
7C003F80
7C003F80
F8001F80
ENDCHAR
STARTCHAR aringacute
ENCODING 507
SWIDTH 681 0
DWIDTH 23 0
BBX 21 30 3 0
BITMAP
0003F0
0007C0
000F00
003C00
000000
000700
000F80
000D80
000F80
000700
000000
000000
007FF8
01FFF8
03FFF8
07FFF0
0FC3F0
1F83F0
3F07F0
3F07F0
7E0FE0
7E1FE0
FE3FE0
FE37E0
FE7FE0
FFEFC0
FFCFC0
FF8FC0
7F1FC0
3C1FC0
ENDCHAR
STARTCHAR AEacute
ENCODING 508
SWIDTH 1004 0
DWIDTH 34 0
BBX 36 30 1 0
BITMAP
000001F800
000003E000
0000078000
00001E0000
0000000000
00003FFFF0
00003FFFF0
00007FFFE0
0000FFFFE0
0001FF8000
0001FF8000
0003FF8000
0007FF0000
000FBF0000
000FBF0000
001F7FFF00
003E7FFF00
007C7FFF00
007C7FFE00
00F87E0000
01FFFE0000
03FFFE0000
03FFFE0000
07FFFC0000
0F80FC0000
1F00FC0000
1F01FFFF80
3E01FFFF00
7C01FFFF00
F801FFFF00
ENDCHAR
STARTCHAR aeacute
ENCODING 509
SWIDTH 987 0
DWIDTH 34 0
BBX 31 23 3 0
BITMAP
00003F00
00007C00
0000F000
0003C000
00000000
007FFDF0
01FFFFFC
03FFFFFE
07FFFFFE
0FC3FC7E
1F83F87C
3F07F07C
3F07F1F8
7E0FFFF0
7E1FFFC0
FE3FFF00
FE77E002
FFF7F006
FFE7F03E
FFC3FFFC
FF83FFFC
7F01FFF8
3C007F80
ENDCHAR
STARTCHAR Oslashacute
ENCODING 510
SWIDTH 855 0
DWIDTH 29 0
BBX 32 30 5 0
BITMAP
00001F80
00003E00
00007800
0001E000
00000000
0003FE3F
000FFFFE
003FFFFC
00FFFFF0
01FE0FF0
03F80FF8
07F01FF8
07E03FF8
0FE07FF8
0FC0FFF8
1FC1FBF8
1FC3F3F8
3F87E3F8
3F8FC3F8
3F9F87F0
3FBF07F0
3FFE0FE0
3FFC0FE0
3FF81FC0
1FF03F80
1FF0FF00
0FFFFE00
3FFFF800
7FFFF000
FC7F8000
ENDCHAR
STARTCHAR oslashacute
ENCODING 511
SWIDTH 663 0
DWIDTH 23 0
BBX 24 23 4 0
BITMAP
0003F0
0007C0
000F00
003C00
000000
003FFF
00FFFC
03FFF8
07FFF8
0FE3FC
1FC7FC
1F8FFC
3F1FFC
3F3FF8
7F7DF8
7FFBF8
7FF3F0
7FE7F0
7FCFE0
7FFFC0
3FFF00
3FFE00
FFF000
ENDCHAR
STARTCHAR Scommaaccent
ENCODING 536
SWIDTH 639 0
DWIDTH 22 0
BBX 20 39 3 -14
BITMAP
007FC0
01FFF0
03FFF0
07FFE0
0FE060
0FC000
1FC000
1FC000
1FE000
0FF000
0FFC00
07FE00
03FF00
01FF80
00FFC0
003FC0
001FC0
001FC0
001FC0
001FC0
603F80
7FFF80
FFFE00
FFFC00
FFE000
000000
03F800
03F800
03F800
03F000
07F000
07F000
07F000
01E000
01E000
03C000
0FC000
0F0000
0C0000
ENDCHAR
STARTCHAR scommaaccent
ENCODING 537
SWIDTH 527 0
DWIDTH 18 0
BBX 17 32 2 -14
BITMAP
00FF80
03FF80
0FFF00
0FFF00
1FC000
1FC000
0FC000
0FE000
07F800
03FC00
00FE00
007E00
407E00
70FE00
FFFE00
FFFC00
FFF800
1FE000
000000
07F000
07F000
07F000
07E000
0FE000
0FE000
0FE000
03C000
03C000
078000
1F8000
1E0000
180000
ENDCHAR
STARTCHAR Tcommaaccent
ENCODING 538
SWIDTH 747 0
DWIDTH 25 0
BBX 25 39 5 -14
BITMAP
7FFFFF80
FFFFFF80
FFFFFF80
FFFFFF00
007E0000
007E0000
00FE0000
00FE0000
00FC0000
00FC0000
00FC0000
01FC0000
01FC0000
01FC0000
01F80000
01F80000
03F80000
03F80000
03F80000
03F00000
03F00000
07F00000
07F00000
07F00000
07E00000
00000000
01FC0000
01FC0000
01FC0000
01F80000
03F80000
03F80000
03F80000
00F00000
00F00000
01E00000
07E00000
07800000
06000000
ENDCHAR
STARTCHAR tcommaaccent
ENCODING 539
SWIDTH 437 0
DWIDTH 15 0
BBX 13 37 4 -14
BITMAP
00E0
0FC0
1FC0
1FC0
1FC0
7FF8
FFF8
FFF8
FFF0
3F80
3F80
3F00
7F00
7F00
7F00
7E00
7E00
FE00
FF00
FFE0
FFC0
7FC0
3F80
0000
3F80
3F80
3F80
3F00
7F00
7F00
7F00
1E00
1E00
3C00
FC00
F000
C000
ENDCHAR
STARTCHAR uni021E
ENCODING 542
SWIDTH 813 0
DWIDTH 28 0
BBX 27 30 3 0
BITMAP
00787800
003DE000
001FC000
001F8000
00000000
07F00FE0
07E00FE0
0FE00FE0
0FE00FC0
0FE00FC0
0FC01FC0
0FC01FC0
1FC01FC0
1FC01F80
1FC01F80
1FFFFF80
1FFFFF80
3FFFFF80
3FFFFF00
3F803F00
3F007F00
3F007F00
7F007F00
7F007E00
7F007E00
7E00FE00
7E00FE00
FE00FE00
FE00FC00
FE01FC00
ENDCHAR
STARTCHAR uni021F
ENCODING 543
SWIDTH 675 0
DWIDTH 23 0
BBX 21 31 2 0
BITMAP
1E1E00
0F7800
07F000
07E000
000000
07F000
07F000
07E000
07E000
0FE000
0FE000
0FE000
0FC000
0FC1E0
1FC3F0
1FCFF8
1F9FF8
1F9FF8
1FBFF8
3FF3F8
3F63F0
3FE3F0
3FC7F0
3F87F0
7F07E0
7F07E0
7E0FE0
7E0FE0
7E0FE0
FE0FC0
FE0FC0
ENDCHAR
STARTCHAR uni0226
ENCODING 550
SWIDTH 771 0
DWIDTH 26 0
BBX 25 30 1 0
BITMAP
0007C000
0007C000
000F8000
000F8000
00000000
0007F000
0007F000
000FF800
000FF800
001FF800
001FF800
003FF800
003DFC00
007DFC00
00F8FC00
00F8FC00
01F0FC00
01F0FE00
03E0FE00
03E07E00
07FFFE00
07FFFE00
0FFFFF00
0FFFFF00
1F003F00
1E003F00
3E003F00
7C003F80
7C003F80
F8001F80
ENDCHAR
STARTCHAR uni0227
ENCODING 551
SWIDTH 681 0
DWIDTH 23 0
BBX 21 23 3 0
BITMAP
001F00
001F00
003E00
003E00
000000
007FF8
01FFF8
03FFF8
07FFF0
0FC3F0
1F83F0
3F07F0
3F07F0
7E0FE0
7E1FE0
FE3FE0
FE37E0
FE7FE0
FFEFC0
FFCFC0
FF8FC0
7F1FC0
3C1FC0
ENDCHAR
STARTCHAR uni0228
ENCODING 552
SWIDTH 642 0
DWIDTH 22 0
BBX 22 32 3 -7
BITMAP
07FFFC
07FFFC
07FFF8
0FFFF8
0FE000
0FE000
0FC000
0FC000
1FC000
1FC000
1FFFC0
1FFFC0
1FFF80
3FFF80
3F8000
3F8000
3F0000
3F0000
7F0000
7F0000
7F0000
7FFFE0
7FFFC0
FFFFC0
FFFFC0
00E000
01C000
01E000
007000
007000
07F000
07E000
ENDCHAR
STARTCHAR uni0229
ENCODING 553
SWIDTH 612 0
DWIDTH 21 0
BBX 18 25 3 -7
BITMAP
007E00
01FF80
07FFC0
0FFFC0
1F8FC0
3F0FC0
3E1F80
7E3F00
7FFE00
FFFC00
FFE000
FC0040
FE00C0
FF07C0
FFFF80
7FFF80
3FFF00
0FF000
00E000
01C000
01E000
007000
007000
07F000
07E000
ENDCHAR
STARTCHAR uni022A
ENCODING 554
SWIDTH 855 0
DWIDTH 29 0
BBX 27 36 3 0
BITMAP
001FFC00
003FFC00
003FFC00
003FF800
00000000
000F1E00
000F1E00
001E3C00
001E3C00
00000000
00000000
000FF800
003FFE00
00FFFF80
03FFFFC0
07F83FC0
0FE01FE0
1FC00FE0
1F800FE0
3F800FE0
3F000FE0
7F000FE0
7F000FE0
FE000FE0
FE000FE0
FE001FC0
FE001FC0
FE003F80
FE003F80
FF007F00
7F00FE00
7FC3FC00
3FFFF800
1FFFE000
0FFFC000
01FE0000
ENDCHAR
STARTCHAR uni022B
ENCODING 555
SWIDTH 663 0
DWIDTH 23 0
BBX 21 29 3 0
BITMAP
00FFE0
01FFE0
01FFE0
01FFC0
000000
0078F0
0078F0
00F1E0
00F1E0
000000
000000
007F80
01FFE0
07FFF0
0FFFF0
1FC7F8
3F83F8
3F03F8
7E03F8
7E03F0
FE03F0
FE07F0
FE07E0
FE0FE0
FF1FC0
FFFF80
7FFE00
3FFC00
0FE000
ENDCHAR
STARTCHAR uni022C
ENCODING 556
SWIDTH 855 0
DWIDTH 29 0
BBX 27 36 3 0
BITMAP
001FFC00
003FFC00
003FFC00
003FF800
00000000
00078E00
001FFC00
001FFC00
0038F800
00000000
00000000
000FF800
003FFE00
00FFFF80
03FFFFC0
07F83FC0
0FE01FE0
1FC00FE0
1F800FE0
3F800FE0
3F000FE0
7F000FE0
7F000FE0
FE000FE0
FE000FE0
FE001FC0
FE001FC0
FE003F80
FE003F80
FF007F00
7F00FE00
7FC3FC00
3FFFF800
1FFFE000
0FFFC000
01FE0000
ENDCHAR
STARTCHAR uni022D
ENCODING 557
SWIDTH 663 0
DWIDTH 23 0
BBX 21 29 3 0
BITMAP
00FFE0
01FFE0
01FFE0
01FFC0
000000
001E38
007FF0
007FF0
00E3E0
000000
000000
007F80
01FFE0
07FFF0
0FFFF0
1FC7F8
3F83F8
3F03F8
7E03F8
7E03F0
FE03F0
FE07F0
FE07E0
FE0FE0
FF1FC0
FFFF80
7FFE00
3FFC00
0FE000
ENDCHAR
STARTCHAR uni022E
ENCODING 558
SWIDTH 855 0
DWIDTH 29 0
BBX 27 30 3 0
BITMAP
0007C000
0007C000
000F8000
000F8000
00000000
000FF800
003FFE00
00FFFF80
03FFFFC0
07F83FC0
0FE01FE0
1FC00FE0
1F800FE0
3F800FE0
3F000FE0
7F000FE0
7F000FE0
FE000FE0
FE000FE0
FE001FC0
FE001FC0
FE003F80
FE003F80
FF007F00
7F00FE00
7FC3FC00
3FFFF800
1FFFE000
0FFFC000
01FE0000
ENDCHAR
STARTCHAR uni022F
ENCODING 559
SWIDTH 663 0
DWIDTH 23 0
BBX 21 23 3 0
BITMAP
003E00
003E00
007C00
007C00
000000
007F80
01FFE0
07FFF0
0FFFF0
1FC7F8
3F83F8
3F03F8
7E03F8
7E03F0
FE03F0
FE07F0
FE07E0
FE0FE0
FF1FC0
FFFF80
7FFE00
3FFC00
0FE000
ENDCHAR
STARTCHAR uni0230
ENCODING 560
SWIDTH 855 0
DWIDTH 29 0
BBX 27 35 3 0
BITMAP
003FF800
007FF800
007FF800
007FF000
00000000
0007C000
0007C000
000F8000
000F8000
00000000
000FF800
003FFE00
00FFFF80
03FFFFC0
07F83FC0
0FE01FE0
1FC00FE0
1F800FE0
3F800FE0
3F000FE0
7F000FE0
7F000FE0
FE000FE0
FE000FE0
FE001FC0
FE001FC0
FE003F80
FE003F80
FF007F00
7F00FE00
7FC3FC00
3FFFF800
1FFFE000
0FFFC000
01FE0000
ENDCHAR
STARTCHAR uni0231
ENCODING 561
SWIDTH 663 0
DWIDTH 23 0
BBX 21 28 3 0
BITMAP
01FFC0
03FFC0
03FFC0
03FF80
000000
003E00
003E00
007C00
007C00
000000
007F80
01FFE0
07FFF0
0FFFF0
1FC7F8
3F83F8
3F03F8
7E03F8
7E03F0
FE03F0
FE07F0
FE07E0
FE0FE0
FF1FC0
FFFF80
7FFE00
3FFC00
0FE000
ENDCHAR
STARTCHAR uni0232
ENCODING 562
SWIDTH 681 0
DWIDTH 23 0
BBX 22 30 5 0
BITMAP
07FF00
0FFF00
0FFF00
0FFE00
000000
FE00FC
7E00F8
7E01F0
7F03E0
3F07C0
3F87C0
3F8F80
1F9F00
1FFE00
1FFE00
0FFC00
0FF800
07F000
07F000
07E000
07E000
0FE000
0FE000
0FE000
0FC000
0FC000
1FC000
1FC000
1FC000
1F8000
ENDCHAR
STARTCHAR uni0233
ENCODING 563
SWIDTH 633 0
DWIDTH 21 0
BBX 24 30 1 -7
BITMAP
01FFC0
03FFC0
03FFC0
03FF80
000000
1FC01F
1FC03E
1FC07C
1FC07C
0FC0F8
0FE1F0
0FE1F0
0FE3E0
0FE7C0
07E7C0
07EF80
07FF00
07FF00
07FE00
03FC00
03F800
03F800
03F000
03E000
07E000
0FC000
1F8000
3F8000
7F0000
FE0000
ENDCHAR
STARTCHAR uni0250
ENCODING 592
SWIDTH 681 0
DWIDTH 23 0
BBX 21 18 3 0
BITMAP
1FC1E0
1FC7F0
1F8FF8
1F9FF8
1FBFF8
3FF3F8
3F63F8
3FE3F8
3FC3F0
3F83F0
7F07E0
7F07E0
7E0FC0
7E1F80
7FFF00
FFFE00
FFFC00
FFF000
ENDCHAR
STARTCHAR uni0259
ENCODING 601
SWIDTH 612 0
DWIDTH 21 0
BBX 18 18 3 0
BITMAP
03FC00
3FFF00
7FFF80
7FFFC0
F83FC0
C01FC0
800FC0
01FFC0
0FFFC0
1FFF80
3F1F80
7E1F00
FC3F00
FC7E00
FFFC00
FFF800
7FE000
1F8000
ENDCHAR
STARTCHAR uni025F
ENCODING 607
SWIDTH 464 0
DWIDTH 16 0
BBX 20 33 2 -15
BITMAP
0007F0
0007F0
0007E0
0007E0
0007E0
000FE0
000FE0
000FC0
000FC0
000FC0
001FC0
001FC0
001F80
001F80
001F80
003F80
003F80
003F00
003F00
007F00
007F00
0FFFC0
0FFFC0
0FFFC0
0FFF80
00FE00
00FC00
00FC00
41F800
FFF800
FFF000
FFC000
7F0000
ENDCHAR
STARTCHAR uni0265
ENCODING 613
SWIDTH 675 0
DWIDTH 23 0
BBX 21 26 2 -8
BITMAP
1F83F8
1F83F8
3F83F0
3F83F0
3F83F0
3F07F0
3F07F0
7F0FE0
7F1FE0
7E3FE0
7E37E0
FE7FE0
FFEFC0
FFCFC0
FFCFC0
FF9FC0
7E1FC0
3C1F80
001F80
003F80
003F80
003F80
003F00
003F00
007F00
007F00
ENDCHAR
STARTCHAR uni0275
ENCODING 629
SWIDTH 663 0
DWIDTH 23 0
BBX 21 18 3 0
BITMAP
007F80
01FFE0
07FFF0
0FFFF0
1FC7F8
3F83F8
3F03F8
FFFFF8
FFFFF8
FFFFF8
FFFFF8
FE07E0
FE0FE0
FF1FC0
FFFF80
7FFE00
3FFC00
0FE000
ENDCHAR
STARTCHAR uni0279
ENCODING 633
SWIDTH 542 0
DWIDTH 18 0
BBX 19 18 2 0
BITMAP
000FE0
000FE0
000FC0
000FC0
001FC0
001FC0
001FC0
003F80
007F80
00FF80
01DF80
03BF80
3FBF00
3F3F00
7E3F00
7C7F00
787F00
F07E00
ENDCHAR
STARTCHAR uni0287
ENCODING 647
SWIDTH 437 0
DWIDTH 15 0
BBX 13 23 4 0
BITMAP
0FE0
1FF0
1FF8
3FF8
07F8
03F8
03F0
03F0
07F0
07F0
07F0
07E0
0FE0
0FE0
7FF8
FFF8
FFF8
FFF0
1FC0
1FC0
1FC0
1F80
3800
ENDCHAR
STARTCHAR uni0289
ENCODING 649
SWIDTH 675 0
DWIDTH 23 0
BBX 21 18 3 0
BITMAP
1F83F8
1F83F8
3F83F0
3F83F0
3F07F0
3F07F0
3F07F0
FFFFF8
FFFFF8
FFFFF8
FFFFF8
FE7FE0
FEEFC0
FFCFC0
FFCFC0
FF9FC0
7F1FC0
3C1F80
ENDCHAR
STARTCHAR uni028C
ENCODING 652
SWIDTH 630 0
DWIDTH 21 0
BBX 21 18 4 0
BITMAP
001FC0
003FC0
007FC0
007FC0
00FFC0
00FFE0
01FFE0
03EFE0
03C7E0
07C7E0
0787F0
0F87F0
1F07F0
1E07F0
3E03F0
3C03F8
7C03F8
F803F8
ENDCHAR
STARTCHAR uni028D
ENCODING 653
SWIDTH 878 0
DWIDTH 30 0
BBX 28 18 5 0
BITMAP
007E07E0
00FE0FE0
00FE0FE0
01FE1FE0
01FE1FE0
03FF3FE0
03FF3FF0
07FF7BF0
07BF7BF0
0FBFF3F0
0F3FF3F0
1F3FE3F0
1E1FE3F0
3E1FC3F0
3C1FC3F0
7C1F83F0
781F83F0
F81F03F0
ENDCHAR
STARTCHAR uni028E
ENCODING 654
SWIDTH 633 0
DWIDTH 21 0
BBX 24 25 1 0
BITMAP
00007F
0000FE
0001FC
0001F8
0003F0
0007E0
0007C0
000FC0
001FC0
001FC0
003FC0
007FE0
00FFE0
00FFE0
01F7E0
03E7E0
03E7F0
07C7F0
0F87F0
0F87F0
1F03F0
3E03F8
3E03F8
7C03F8
F803F8
ENDCHAR
STARTCHAR uni029E
ENCODING 670
SWIDTH 666 0
DWIDTH 23 0
BBX 22 26 2 -8
BITMAP
3F81FC
1FC1FC
1FC1F8
0FE1F8
0FE1F8
07F3F8
07F3F8
03FBF0
03FFF0
01FFF0
01F7F0
03E7F0
07C7E0
0F87E0
1F0FE0
3E0FE0
7C0FE0
F80FC0
000FC0
001FC0
001FC0
001FC0
001F80
001F80
003F80
003F80
ENDCHAR
STARTCHAR uni02BB
ENCODING 699
SWIDTH 265 0
DWIDTH 9 0
BBX 9 12 4 14
BITMAP
0180
0F80
1F80
3E00
3C00
7F00
7F00
7F00
7E00
FE00
FE00
FE00
ENDCHAR
STARTCHAR afii57929
ENCODING 700
SWIDTH 265 0
DWIDTH 9 0
BBX 9 12 4 14
BITMAP
3F80
3F80
3F00
3F00
7F00
7F00
7F00
1E00
1E00
FC00
F800
C000
ENDCHAR
STARTCHAR afii64937
ENCODING 701
SWIDTH 265 0
DWIDTH 9 0
BBX 9 12 4 14
BITMAP
FE00
FE00
7E00
7E00
7F00
7F00
7F00
3C00
3C00
1F80
0F80
0180
ENDCHAR
STARTCHAR circumflex
ENCODING 710
SWIDTH 663 0
DWIDTH 23 0
BBX 12 4 10 22
BITMAP
0FC0
1FC0
3DE0
F0F0
ENDCHAR
STARTCHAR caron
ENCODING 711
SWIDTH 663 0
DWIDTH 23 0
BBX 12 4 11 22
BITMAP
F0F0
7BC0
3F80
3F00
ENDCHAR
STARTCHAR uni02C8
ENCODING 712
SWIDTH 265 0
DWIDTH 9 0
BBX 7 12 5 14
BITMAP
FE
FE
FE
FC
7C
7C
7C
7C
7C
7C
78
78
ENDCHAR
STARTCHAR macron
ENCODING 713
SWIDTH 663 0
DWIDTH 23 0
BBX 12 4 10 21
BITMAP
7FF0
FFF0
FFF0
FFE0
ENDCHAR
STARTCHAR uni02CA
ENCODING 714
SWIDTH 663 0
DWIDTH 23 0
BBX 10 4 12 22
BITMAP
0FC0
1F00
3C00
F000
ENDCHAR
STARTCHAR uni02CB
ENCODING 715
SWIDTH 663 0
DWIDTH 23 0
BBX 8 4 12 22
BITMAP
FC
3C
1E
0F
ENDCHAR
STARTCHAR uni02CD
ENCODING 717
SWIDTH 663 0
DWIDTH 23 0
BBX 12 4 10 -5
BITMAP
7FF0
FFF0
FFF0
FFE0
ENDCHAR
STARTCHAR uni02CE
ENCODING 718
SWIDTH 663 0
DWIDTH 23 0
BBX 8 4 12 -5
BITMAP
FC
3C
1E
0F
ENDCHAR
STARTCHAR uni02CF
ENCODING 719
SWIDTH 663 0
DWIDTH 23 0
BBX 10 4 12 -5
BITMAP
0FC0
1F00
3C00
F000
ENDCHAR
STARTCHAR breve
ENCODING 728
SWIDTH 663 0
DWIDTH 23 0
BBX 12 4 11 22
BITMAP
E0F0
FFE0
7FC0
3F00
ENDCHAR
STARTCHAR dotaccent
ENCODING 729
SWIDTH 663 0
DWIDTH 23 0
BBX 6 4 13 22
BITMAP
7C
7C
F8
F8
ENDCHAR
STARTCHAR ring
ENCODING 730
SWIDTH 663 0
DWIDTH 23 0
BBX 5 5 14 21
BITMAP
70
F8
D8
F8
70
ENDCHAR
STARTCHAR ogonek
ENCODING 731
SWIDTH 663 0
DWIDTH 23 0
BBX 7 4 7 -6
BITMAP
38
F0
FA
7E
ENDCHAR
STARTCHAR tilde
ENCODING 732
SWIDTH 663 0
DWIDTH 23 0
BBX 13 4 10 22
BITMAP
1E38
7FF0
7FF0
E3E0
ENDCHAR
STARTCHAR hungarumlaut
ENCODING 733
SWIDTH 663 0
DWIDTH 23 0
BBX 14 5 11 21
BITMAP
0F3C
1E70
3CE0
79C0
E380
ENDCHAR
STARTCHAR uni02EE
ENCODING 750
SWIDTH 530 0
DWIDTH 18 0
BBX 18 12 4 14
BITMAP
3F9FC0
3F9FC0
3F1FC0
3F1F80
7F3F80
7F3F80
1F0780
1E0F00
3E0F00
FC3E00
F87C00
C06000
ENDCHAR
STARTCHAR uni037E
ENCODING 894
SWIDTH 343 0
DWIDTH 12 0
BBX 11 24 2 -6
BITMAP
0FE0
0FE0
0FE0
0FC0
0FC0
0FC0
1FC0
0000
0000
0000
0000
0000
3F80
3F00
3F00
7F00
7F00
7F00
1E00
1E00
3C00
FC00
F000
C000
ENDCHAR
STARTCHAR tonos
ENCODING 900
SWIDTH 663 0
DWIDTH 23 0
BBX 10 4 12 22
BITMAP
0FC0
1F00
3C00
F000
ENDCHAR
STARTCHAR dieresistonos
ENCODING 901
SWIDTH 663 0
DWIDTH 23 0
BBX 13 9 10 21
BITMAP
01F8
03E0
0780
1E00
0000
78F0
78F0
F1E0
F1E0
ENDCHAR
STARTCHAR anoteleia
ENCODING 903
SWIDTH 343 0
DWIDTH 23 0
BBX 6 4 11 8
BITMAP
7C
7C
F8
F8
ENDCHAR
STARTCHAR mu
ENCODING 956
SWIDTH 681 0
DWIDTH 23 0
BBX 23 24 1 -6
BITMAP
07E0FE
0FE0FE
0FE0FC
0FE0FC
0FC1FC
0FC1FC
1FC1FC
1FC3F8
1FC7F8
1F8FF8
1F8DF8
3F9FF8
3FFBF0
3FF3F0
3FF3F0
3FE7F0
7FC7F0
7F87E0
7F0000
7E0000
7E0000
FE0000
FE0000
FE0000
ENDCHAR
STARTCHAR uni1E00
ENCODING 7680
SWIDTH 771 0
DWIDTH 26 0
BBX 25 31 1 -6
BITMAP
0007F000
0007F000
000FF800
000FF800
001FF800
001FF800
003FF800
003DFC00
007DFC00
00F8FC00
00F8FC00
01F0FC00
01F0FE00
03E0FE00
03E07E00
07FFFE00
07FFFE00
0FFFFF00
0FFFFF00
1F003F00
1E003F00
3E003F00
7C003F80
7C003F80
F8001F80
00000000
000E0000
001F0000
001B0000
001F0000
000E0000
ENDCHAR
STARTCHAR uni1E01
ENCODING 7681
SWIDTH 681 0
DWIDTH 23 0
BBX 21 24 3 -6
BITMAP
007FF8
01FFF8
03FFF8
07FFF0
0FC3F0
1F83F0
3F07F0
3F07F0
7E0FE0
7E1FE0
FE3FE0
FE37E0
FE7FE0
FFEFC0
FFCFC0
FF8FC0
7F1FC0
3C1FC0
000000
00E000
01F000
01B000
01F000
00E000
ENDCHAR
STARTCHAR uni1E02
ENCODING 7682
SWIDTH 660 0
DWIDTH 22 0
BBX 21 30 3 0
BITMAP
003E00
003E00
007C00
007C00
000000
07FFC0
07FFF0
0FFFF0
0FFFF8
0FC3F8
0FC3F8
0FC3F8
1F83F0
1F87F0
1F8FE0
1FFF80
1FFF00
3FFE00
3FFF80
3F1FE0
3F07E0
3F07F0
7E07F0
7E07F0
7E07F0
7E1FE0
7FFFE0
FFFFC0
FFFF80
FFFC00
ENDCHAR
STARTCHAR uni1E03
ENCODING 7683
SWIDTH 681 0
DWIDTH 23 0
BBX 21 31 3 0
BITMAP
01F000
01F000
03E000
03E000
000000
07E000
07E000
07E000
0FE000
0FC000
0FC000
0FC000
0FC000
1FC1E0
1F87F0
1F8FF8
1F9FF8
1FBFF8
3F7BF8
3F73F8
3FE3F8
3FC3F0
3F83F0
7F07E0
7F07E0
7E0FC0
7E1F80
7FFF00
FFFE00
FFFC00
FFF000
ENDCHAR
STARTCHAR uni1E04
ENCODING 7684
SWIDTH 660 0
DWIDTH 22 0
BBX 21 30 3 -5
BITMAP
07FFC0
07FFF0
0FFFF0
0FFFF8
0FC3F8
0FC3F8
0FC3F8
1F83F0
1F87F0
1F8FE0
1FFF80
1FFF00
3FFE00
3FFF80
3F1FE0
3F07E0
3F07F0
7E07F0
7E07F0
7E07F0
7E1FE0
7FFFE0
FFFFC0
FFFF80
FFFC00
000000
01F000
01F000
03E000
03E000
ENDCHAR
STARTCHAR uni1E05
ENCODING 7685
SWIDTH 681 0
DWIDTH 23 0
BBX 21 31 3 -5
BITMAP
07E000
07E000
07E000
0FE000
0FC000
0FC000
0FC000
0FC000
1FC1E0
1F87F0
1F8FF8
1F9FF8
1FBFF8
3F7BF8
3F73F8
3FE3F8
3FC3F0
3F83F0
7F07E0
7F07E0
7E0FC0
7E1F80
7FFF00
FFFE00
FFFC00
FFF000
000000
01F000
01F000
03E000
03E000
ENDCHAR
STARTCHAR uni1E06
ENCODING 7686
SWIDTH 660 0
DWIDTH 22 0
BBX 21 30 3 -5
BITMAP
07FFC0
07FFF0
0FFFF0
0FFFF8
0FC3F8
0FC3F8
0FC3F8
1F83F0
1F87F0
1F8FE0
1FFF80
1FFF00
3FFE00
3FFF80
3F1FE0
3F07E0
3F07F0
7E07F0
7E07F0
7E07F0
7E1FE0
7FFFE0
FFFFC0
FFFF80
FFFC00
000000
07FF00
0FFF00
0FFF00
0FFE00
ENDCHAR
STARTCHAR uni1E07
ENCODING 7687
SWIDTH 681 0
DWIDTH 23 0
BBX 21 31 3 -5
BITMAP
07E000
07E000
07E000
0FE000
0FC000
0FC000
0FC000
0FC000
1FC1E0
1F87F0
1F8FF8
1F9FF8
1FBFF8
3F7BF8
3F73F8
3FE3F8
3FC3F0
3F83F0
7F07E0
7F07E0
7E0FC0
7E1F80
7FFF00
FFFE00
FFFC00
FFF000
000000
0FFE00
1FFE00
1FFE00
1FFC00
ENDCHAR
STARTCHAR uni1E08
ENCODING 7688
SWIDTH 737 0
DWIDTH 25 0
BBX 25 37 3 -7
BITMAP
0007E000
000F8000
001E0000
00780000
00000000
0007FC00
003FFF80
00FFFF80
03FFFF80
07FC0F00
0FF00100
1FE00000
1FC00000
3F800000
3F000000
7F000000
7F000000
FE000000
FE000000
FE000000
FE000000
FE000000
FE000000
FF000000
7F800800
7FC07800
3FFFF800
1FFFF800
0FFFF800
03FF0000
00E00000
01C00000
01E00000
00700000
00700000
07F00000
07E00000
ENDCHAR
STARTCHAR uni1E09
ENCODING 7689
SWIDTH 548 0
DWIDTH 19 0
BBX 18 30 3 -7
BITMAP
003F00
007C00
00F000
03C000
000000
003F00
01FFC0
03FFC0
0FFF80
1FE380
3F8080
3F0000
7F0000
7E0000
FE0000
FE0000
FE0000
FE0100
FF0700
FFFE00
7FFE00
3FFE00
0FF000
038000
070000
078000
01C000
01C000
1FC000
1F8000
ENDCHAR
STARTCHAR uni1E0A
ENCODING 7690
SWIDTH 822 0
DWIDTH 28 0
BBX 27 30 3 0
BITMAP
0007C000
0007C000
000F8000
000F8000
00000000
07FFF800
07FFFF00
0FFFFF80
0FFFFFC0
0FE07FC0
0FE01FE0
0FC01FE0
1FC00FE0
1FC00FE0
1FC00FE0
1FC00FE0
1F800FE0
3F800FE0
3F801FC0
3F801FC0
3F801FC0
3F003F80
7F007F80
7F00FF00
7F01FE00
7F07FE00
7FFFF800
FFFFF000
FFFFC000
FFFE0000
ENDCHAR
STARTCHAR uni1E0B
ENCODING 7691
SWIDTH 681 0
DWIDTH 23 0
BBX 23 31 3 0
BITMAP
0001F0
0001F0
0003E0
0003E0
000000
0000FE
0000FE
0000FE
0000FC
0000FC
0001FC
0001FC
0001FC
007FF8
01FFF8
03FFF8
07FFF8
0FC3F8
1F83F0
3F03F0
3F07F0
7E0FF0
7E1FF0
FE1FE0
FE37E0
FE77E0
FFEFE0
FFCFE0
FF8FC0
7F0FC0
3E1FC0
ENDCHAR
STARTCHAR uni1E0C
ENCODING 7692
SWIDTH 822 0
DWIDTH 28 0
BBX 27 30 3 -5
BITMAP
07FFF800
07FFFF00
0FFFFF80
0FFFFFC0
0FE07FC0
0FE01FE0
0FC01FE0
1FC00FE0
1FC00FE0
1FC00FE0
1FC00FE0
1F800FE0
3F800FE0
3F801FC0
3F801FC0
3F801FC0
3F003F80
7F007F80
7F00FF00
7F01FE00
7F07FE00
7FFFF800
FFFFF000
FFFFC000
FFFE0000
00000000
007C0000
007C0000
00F80000
00F80000
ENDCHAR
STARTCHAR uni1E0D
ENCODING 7693
SWIDTH 681 0
DWIDTH 23 0
BBX 23 31 3 -5
BITMAP
0000FE
0000FE
0000FE
0000FC
0000FC
0001FC
0001FC
0001FC
007FF8
01FFF8
03FFF8
07FFF8
0FC3F8
1F83F0
3F03F0
3F07F0
7E0FF0
7E1FF0
FE1FE0
FE37E0
FE77E0
FFEFE0
FFCFE0
FF8FC0
7F0FC0
3E1FC0
000000
00F800
00F800
01F000
01F000
ENDCHAR
STARTCHAR uni1E0E
ENCODING 7694
SWIDTH 822 0
DWIDTH 28 0
BBX 27 30 3 -5
BITMAP
07FFF800
07FFFF00
0FFFFF80
0FFFFFC0
0FE07FC0
0FE01FE0
0FC01FE0
1FC00FE0
1FC00FE0
1FC00FE0
1FC00FE0
1F800FE0
3F800FE0
3F801FC0
3F801FC0
3F801FC0
3F003F80
7F007F80
7F00FF00
7F01FE00
7F07FE00
7FFFF800
FFFFF000
FFFFC000
FFFE0000
00000000
03FF8000
07FF8000
07FF8000
07FF0000
ENDCHAR
STARTCHAR uni1E0F
ENCODING 7695
SWIDTH 681 0
DWIDTH 23 0
BBX 23 31 3 -5
BITMAP
0000FE
0000FE
0000FE
0000FC
0000FC
0001FC
0001FC
0001FC
007FF8
01FFF8
03FFF8
07FFF8
0FC3F8
1F83F0
3F03F0
3F07F0
7E0FF0
7E1FF0
FE1FE0
FE37E0
FE77E0
FFEFE0
FFCFE0
FF8FC0
7F0FC0
3E1FC0
000000
07FF00
0FFF00
0FFF00
0FFE00
ENDCHAR
STARTCHAR uni1E10
ENCODING 7696
SWIDTH 822 0
DWIDTH 28 0
BBX 27 32 3 -7
BITMAP
07FFF800
07FFFF00
0FFFFF80
0FFFFFC0
0FE07FC0
0FE01FE0
0FC01FE0
1FC00FE0
1FC00FE0
1FC00FE0
1FC00FE0
1F800FE0
3F800FE0
3F801FC0
3F801FC0
3F801FC0
3F003F80
7F007F80
7F00FF00
7F01FE00
7F07FE00
7FFFF800
FFFFF000
FFFFC000
FFFE0000
001C0000
00380000
003C0000
000E0000
000E0000
00FE0000
00FC0000
ENDCHAR
STARTCHAR uni1E11
ENCODING 7697
SWIDTH 681 0
DWIDTH 23 0
BBX 23 33 3 -7
BITMAP
0000FE
0000FE
0000FE
0000FC
0000FC
0001FC
0001FC
0001FC
007FF8
01FFF8
03FFF8
07FFF8
0FC3F8
1F83F0
3F03F0
3F07F0
7E0FF0
7E1FF0
FE1FE0
FE37E0
FE77E0
FFEFE0
FFCFE0
FF8FC0
7F0FC0
3E1FC0
007000
00E000
00F000
003800
003800
03F800
03F000
ENDCHAR
STARTCHAR uni1E12
ENCODING 7698
SWIDTH 822 0
DWIDTH 28 0
BBX 27 30 3 -5
BITMAP
07FFF800
07FFFF00
0FFFFF80
0FFFFFC0
0FE07FC0
0FE01FE0
0FC01FE0
1FC00FE0
1FC00FE0
1FC00FE0
1FC00FE0
1F800FE0
3F800FE0
3F801FC0
3F801FC0
3F801FC0
3F003F80
7F007F80
7F00FF00
7F01FE00
7F07FE00
7FFFF800
FFFFF000
FFFFC000
FFFE0000
00000000
007E0000
00FE0000
01EF0000
07878000
ENDCHAR
STARTCHAR uni1E13
ENCODING 7699
SWIDTH 681 0
DWIDTH 23 0
BBX 23 31 3 -5
BITMAP
0000FE
0000FE
0000FE
0000FC
0000FC
0001FC
0001FC
0001FC
007FF8
01FFF8
03FFF8
07FFF8
0FC3F8
1F83F0
3F03F0
3F07F0
7E0FF0
7E1FF0
FE1FE0
FE37E0
FE77E0
FFEFE0
FFCFE0
FF8FC0
7F0FC0
3E1FC0
000000
00FC00
01FC00
03DE00
0F0F00
ENDCHAR
STARTCHAR uni1E14
ENCODING 7700
SWIDTH 642 0
DWIDTH 22 0
BBX 22 35 3 0
BITMAP
01F800
007800
003C00
001E00
000000
01FFC0
03FFC0
03FFC0
03FF80
000000
07FFFC
07FFFC
07FFF8
0FFFF8
0FE000
0FE000
0FC000
0FC000
1FC000
1FC000
1FFFC0
1FFFC0
1FFF80
3FFF80
3F8000
3F8000
3F0000
3F0000
7F0000
7F0000
7F0000
7FFFE0
7FFFC0
FFFFC0
FFFFC0
ENDCHAR
STARTCHAR uni1E15
ENCODING 7701
SWIDTH 612 0
DWIDTH 21 0
BBX 18 28 3 0
BITMAP
07E000
01E000
00F000
007800
000000
03FF80
07FF80
07FF80
07FF00
000000
007E00
01FF80
07FFC0
0FFFC0
1F8FC0
3F0FC0
3E1F80
7E3F00
7FFE00
FFFC00
FFE000
FC0040
FE00C0
FF07C0
FFFF80
7FFF80
3FFF00
0FF000
ENDCHAR
STARTCHAR uni1E16
ENCODING 7702
SWIDTH 642 0
DWIDTH 22 0
BBX 22 35 3 0
BITMAP
000FC0
001F00
003C00
00F000
000000
01FFC0
03FFC0
03FFC0
03FF80
000000
07FFFC
07FFFC
07FFF8
0FFFF8
0FE000
0FE000
0FC000
0FC000
1FC000
1FC000
1FFFC0
1FFFC0
1FFF80
3FFF80
3F8000
3F8000
3F0000
3F0000
7F0000
7F0000
7F0000
7FFFE0
7FFFC0
FFFFC0
FFFFC0
ENDCHAR
STARTCHAR uni1E17
ENCODING 7703
SWIDTH 612 0
DWIDTH 21 0
BBX 18 28 3 0
BITMAP
001F80
003E00
007800
01E000
000000
03FF80
07FF80
07FF80
07FF00
000000
007E00
01FF80
07FFC0
0FFFC0
1F8FC0
3F0FC0
3E1F80
7E3F00
7FFE00
FFFC00
FFE000
FC0040
FE00C0
FF07C0
FFFF80
7FFF80
3FFF00
0FF000
ENDCHAR
STARTCHAR uni1E18
ENCODING 7704
SWIDTH 642 0
DWIDTH 22 0
BBX 22 30 3 -5
BITMAP
07FFFC
07FFFC
07FFF8
0FFFF8
0FE000
0FE000
0FC000
0FC000
1FC000
1FC000
1FFFC0
1FFFC0
1FFF80
3FFF80
3F8000
3F8000
3F0000
3F0000
7F0000
7F0000
7F0000
7FFFE0
7FFFC0
FFFFC0
FFFFC0
000000
01F800
03F800
07BC00
1E1E00
ENDCHAR
STARTCHAR uni1E19
ENCODING 7705
SWIDTH 612 0
DWIDTH 21 0
BBX 18 23 3 -5
BITMAP
007E00
01FF80
07FFC0
0FFFC0
1F8FC0
3F0FC0
3E1F80
7E3F00
7FFE00
FFFC00
FFE000
FC0040
FE00C0
FF07C0
FFFF80
7FFF80
3FFF00
0FF000
000000
03F000
07F000
0F7800
3C3C00
ENDCHAR
STARTCHAR uni1E1A
ENCODING 7706
SWIDTH 642 0
DWIDTH 22 0
BBX 22 30 3 -5
BITMAP
07FFFC
07FFFC
07FFF8
0FFFF8
0FE000
0FE000
0FC000
0FC000
1FC000
1FC000
1FFFC0
1FFFC0
1FFF80
3FFF80
3F8000
3F8000
3F0000
3F0000
7F0000
7F0000
7F0000
7FFFE0
7FFFC0
FFFFC0
FFFFC0
000000
078E00
1FFC00
1FFC00
38F800
ENDCHAR
STARTCHAR uni1E1B
ENCODING 7707
SWIDTH 612 0
DWIDTH 21 0
BBX 18 23 3 -5
BITMAP
007E00
01FF80
07FFC0
0FFFC0
1F8FC0
3F0FC0
3E1F80
7E3F00
7FFE00
FFFC00
FFE000
FC0040
FE00C0
FF07C0
FFFF80
7FFF80
3FFF00
0FF000
000000
078E00
1FFC00
1FFC00
38F800
ENDCHAR
STARTCHAR uni1E1C
ENCODING 7708
SWIDTH 642 0
DWIDTH 22 0
BBX 22 37 3 -7
BITMAP
0383C0
03FF80
01FF00
00FC00
000000
07FFFC
07FFFC
07FFF8
0FFFF8
0FE000
0FE000
0FC000
0FC000
1FC000
1FC000
1FFFC0
1FFFC0
1FFF80
3FFF80
3F8000
3F8000
3F0000
3F0000
7F0000
7F0000
7F0000
7FFFE0
7FFFC0
FFFFC0
FFFFC0
00E000
01C000
01E000
007000
007000
07F000
07E000
ENDCHAR
STARTCHAR uni1E1D
ENCODING 7709
SWIDTH 612 0
DWIDTH 21 0
BBX 18 30 3 -7
BITMAP
070780
07FF00
03FE00
01F800
000000
007E00
01FF80
07FFC0
0FFFC0
1F8FC0
3F0FC0
3E1F80
7E3F00
7FFE00
FFFC00
FFE000
FC0040
FE00C0
FF07C0
FFFF80
7FFF80
3FFF00
0FF000
00E000
01C000
01E000
007000
007000
07F000
07E000
ENDCHAR
STARTCHAR uni1E1E
ENCODING 7710
SWIDTH 614 0
DWIDTH 21 0
BBX 22 30 3 0
BITMAP
003E00
003E00
007C00
007C00
000000
07FFFC
07FFFC
07FFF8
0FFFF8
0FE000
0FE000
0FC000
0FC000
1FC000
1FC000
1FC000
1FFFC0
1FFF80
3FFF80
3FFF80
3F8000
3F0000
3F0000
7F0000
7F0000
7F0000
7E0000
7E0000
FE0000
FE0000
ENDCHAR
STARTCHAR uni1E1F
ENCODING 7711
SWIDTH 464 0
DWIDTH 16 0
BBX 20 38 2 -7
BITMAP
003E00
003E00
007C00
007C00
000000
000FE0
003FF0
00FFF0
01FFF0
01F820
03F000
03F000
07F000
1FFF00
3FFF00
3FFF00
3FFF00
0FE000
0FE000
0FC000
0FC000
1FC000
1FC000
1F8000
1F8000
1F8000
3F8000
3F8000
3F0000
3F0000
3F0000
7F0000
7F0000
7E0000
7E0000
7E0000
FE0000
FE0000
ENDCHAR
STARTCHAR uni1E20
ENCODING 7712
SWIDTH 755 0
DWIDTH 26 0
BBX 25 30 3 0
BITMAP
007FF000
00FFF000
00FFF000
00FFE000
00000000
0007FC00
003FFF80
00FFFF80
03FFFF80
07FC0F00
0FF00100
1FE00000
1FC00000
3F800000
3F000000
7F000000
7F000000
FE000000
FE00FE00
FE00FC00
FE00FC00
FE00FC00
FE01FC00
FF01F800
7F81F800
7FC1F800
3FFFF800
1FFFF800
0FFFF000
03FF8000
ENDCHAR
STARTCHAR uni1E21
ENCODING 7713
SWIDTH 674 0
DWIDTH 23 0
BBX 22 30 2 -7
BITMAP
00FFE0
01FFE0
01FFE0
01FFC0
000000
003FFC
00FFFC
01FFFC
03FFF8
07E1F8
0FC1F8
1F83F8
1F87F8
3F07F0
3F0FF0
7F1FF0
7F3BF0
7F7BF0
7FF7E0
7FE7E0
7FC7E0
3F8FE0
1F0FE0
000FC0
801FC0
F03FC0
FFFF80
7FFF00
7FFC00
7FF000
ENDCHAR
STARTCHAR uni1E22
ENCODING 7714
SWIDTH 813 0
DWIDTH 28 0
BBX 27 30 3 0
BITMAP
0007C000
0007C000
000F8000
000F8000
00000000
07F00FE0
07E00FE0
0FE00FE0
0FE00FC0
0FE00FC0
0FC01FC0
0FC01FC0
1FC01FC0
1FC01F80
1FC01F80
1FFFFF80
1FFFFF80
3FFFFF80
3FFFFF00
3F803F00
3F007F00
3F007F00
7F007F00
7F007E00
7F007E00
7E00FE00
7E00FE00
FE00FE00
FE00FC00
FE01FC00
ENDCHAR
STARTCHAR uni1E23
ENCODING 7715
SWIDTH 675 0
DWIDTH 23 0
BBX 21 31 2 0
BITMAP
01F000
01F000
03E000
03E000
000000
07F000
07F000
07E000
07E000
0FE000
0FE000
0FE000
0FC000
0FC1E0
1FC3F0
1FCFF8
1F9FF8
1F9FF8
1FBFF8
3FF3F8
3F63F0
3FE3F0
3FC7F0
3F87F0
7F07E0
7F07E0
7E0FE0
7E0FE0
7E0FE0
FE0FC0
FE0FC0
ENDCHAR
STARTCHAR uni1E24
ENCODING 7716
SWIDTH 813 0
DWIDTH 28 0
BBX 27 30 3 -5
BITMAP
07F00FE0
07E00FE0
0FE00FE0
0FE00FC0
0FE00FC0
0FC01FC0
0FC01FC0
1FC01FC0
1FC01F80
1FC01F80
1FFFFF80
1FFFFF80
3FFFFF80
3FFFFF00
3F803F00
3F007F00
3F007F00
7F007F00
7F007E00
7F007E00
7E00FE00
7E00FE00
FE00FE00
FE00FC00
FE01FC00
00000000
003E0000
003E0000
007C0000
007C0000
ENDCHAR
STARTCHAR uni1E25
ENCODING 7717
SWIDTH 675 0
DWIDTH 23 0
BBX 21 31 2 -5
BITMAP
07F000
07F000
07E000
07E000
0FE000
0FE000
0FE000
0FC000
0FC1E0
1FC3F0
1FCFF8
1F9FF8
1F9FF8
1FBFF8
3FF3F8
3F63F0
3FE3F0
3FC7F0
3F87F0
7F07E0
7F07E0
7E0FE0
7E0FE0
7E0FE0
FE0FC0
FE0FC0
000000
00F800
00F800
01F000
01F000
ENDCHAR
STARTCHAR uni1E26
ENCODING 7718
SWIDTH 813 0
DWIDTH 28 0
BBX 27 30 3 0
BITMAP
003C7800
003C7800
0078F000
0078F000
00000000
07F00FE0
07E00FE0
0FE00FE0
0FE00FC0
0FE00FC0
0FC01FC0
0FC01FC0
1FC01FC0
1FC01F80
1FC01F80
1FFFFF80
1FFFFF80
3FFFFF80
3FFFFF00
3F803F00
3F007F00
3F007F00
7F007F00
7F007E00
7F007E00
7E00FE00
7E00FE00
FE00FE00
FE00FC00
FE01FC00
ENDCHAR
STARTCHAR uni1E27
ENCODING 7719
SWIDTH 675 0
DWIDTH 23 0
BBX 21 31 2 0
BITMAP
0F1E00
0F1E00
1E3C00
1E3C00
000000
07F000
07F000
07E000
07E000
0FE000
0FE000
0FE000
0FC000
0FC1E0
1FC3F0
1FCFF8
1F9FF8
1F9FF8
1FBFF8
3FF3F8
3F63F0
3FE3F0
3FC7F0
3F87F0
7F07E0
7F07E0
7E0FE0
7E0FE0
7E0FE0
FE0FC0
FE0FC0
ENDCHAR
STARTCHAR uni1E28
ENCODING 7720
SWIDTH 813 0
DWIDTH 28 0
BBX 27 32 3 -7
BITMAP
07F00FE0
07E00FE0
0FE00FE0
0FE00FC0
0FE00FC0
0FC01FC0
0FC01FC0
1FC01FC0
1FC01F80
1FC01F80
1FFFFF80
1FFFFF80
3FFFFF80
3FFFFF00
3F803F00
3F007F00
3F007F00
7F007F00
7F007E00
7F007E00
7E00FE00
7E00FE00
FE00FE00
FE00FC00
FE01FC00
001C0000
00380000
003C0000
000E0000
000E0000
00FE0000
00FC0000
ENDCHAR
STARTCHAR uni1E29
ENCODING 7721
SWIDTH 675 0
DWIDTH 23 0
BBX 21 33 2 -7
BITMAP
07F000
07F000
07E000
07E000
0FE000
0FE000
0FE000
0FC000
0FC1E0
1FC3F0
1FCFF8
1F9FF8
1F9FF8
1FBFF8
3FF3F8
3F63F0
3FE3F0
3FC7F0
3F87F0
7F07E0
7F07E0
7E0FE0
7E0FE0
7E0FE0
FE0FC0
FE0FC0
007000
00E000
00F000
003800
003800
03F800
03F000
ENDCHAR
STARTCHAR uni1E2A
ENCODING 7722
SWIDTH 813 0
DWIDTH 28 0
BBX 27 30 3 -5
BITMAP
07F00FE0
07E00FE0
0FE00FE0
0FE00FC0
0FE00FC0
0FC01FC0
0FC01FC0
1FC01FC0
1FC01F80
1FC01F80
1FFFFF80
1FFFFF80
3FFFFF80
3FFFFF00
3F803F00
3F007F00
3F007F00
7F007F00
7F007E00
7F007E00
7E00FE00
7E00FE00
FE00FE00
FE00FC00
FE01FC00
00000000
0383C000
03FF8000
01FF0000
00FC0000
ENDCHAR
STARTCHAR uni1E2B
ENCODING 7723
SWIDTH 675 0
DWIDTH 23 0
BBX 21 31 2 -5
BITMAP
07F000
07F000
07E000
07E000
0FE000
0FE000
0FE000
0FC000
0FC1E0
1FC3F0
1FCFF8
1F9FF8
1F9FF8
1FBFF8
3FF3F8
3F63F0
3FE3F0
3FC7F0
3F87F0
7F07E0
7F07E0
7E0FE0
7E0FE0
7E0FE0
FE0FC0
FE0FC0
000000
0E0F00
0FFE00
07FC00
03F000
ENDCHAR
STARTCHAR uni1E2C
ENCODING 7724
SWIDTH 361 0
DWIDTH 12 0
BBX 13 30 1 -5
BITMAP
01F8
03F8
03F8
03F0
03F0
03F0
07F0
07F0
07E0
07E0
07E0
07E0
0FE0
0FC0
0FC0
0FC0
0FC0
1FC0
1FC0
1F80
1F80
1F80
3F80
3F80
3F00
0000
1E38
7FF0
7FF0
E3E0
ENDCHAR
STARTCHAR uni1E2D
ENCODING 7725
SWIDTH 343 0
DWIDTH 12 0
BBX 14 31 0 -5
BITMAP
01FC
01FC
01F8
01F8
03F8
0000
0000
0000
03F0
07F0
07F0
07F0
07E0
07E0
0FE0
0FE0
0FE0
0FC0
0FC0
1FC0
1FC0
1FC0
1F80
1F80
3F80
3F80
0000
1E38
7FF0
7FF0
E3E0
ENDCHAR
STARTCHAR uni1E2E
ENCODING 7726
SWIDTH 361 0
DWIDTH 12 0
BBX 15 36 3 0
BITMAP
007E
00F8
01E0
0780
0000
0F1E
0F1E
1E3C
1E3C
0000
0000
07E0
0FE0
0FE0
0FC0
0FC0
0FC0
1FC0
1FC0
1F80
1F80
1F80
1F80
3F80
3F00
3F00
3F00
3F00
7F00
7F00
7E00
7E00
7E00
FE00
FE00
FC00
ENDCHAR
STARTCHAR uni1E2F
ENCODING 7727
SWIDTH 343 0
DWIDTH 12 0
BBX 15 29 3 0
BITMAP
007E
00F8
01E0
0780
0000
0F1E
0F1E
1E3C
1E3C
0000
0000
1FC0
1FC0
1F80
1F80
1F80
3F80
3F80
3F00
3F00
3F00
7F00
7F00
7E00
7E00
7E00
FE00
FE00
FC00
ENDCHAR
STARTCHAR uni1E30
ENCODING 7728
SWIDTH 753 0
DWIDTH 26 0
BBX 23 30 3 0
BITMAP
000FC0
001F00
003C00
00F000
000000
07E03E
07E07C
0FE0F8
0FE1F0
0FC1F0
0FC3E0
0FC7C0
1FCF80
1FCF00
1F9F00
1FBE00
1FFE00
3FFE00
3FFF00
3F7F80
3F3F80
3F1FC0
7F1FC0
7F0FE0
7F0FE0
7E07F0
7E07F0
FE03F8
FE03F8
FE01FC
ENDCHAR
STARTCHAR uni1E31
ENCODING 7729
SWIDTH 666 0
DWIDTH 23 0
BBX 22 31 2 0
BITMAP
007E00
00F800
01E000
078000
000000
07F000
07F000
07E000
07E000
0FE000
0FE000
0FE000
0FC000
0FC07C
1FC0F8
1FC1F0
1FC3E0
1F87C0
1F8F80
3F9F00
3FBE00
3FFE00
3FFF00
3F7F00
7F3F80
7F3F80
7E1FC0
7E1FC0
7E0FE0
FE0FE0
FE07F0
ENDCHAR
STARTCHAR uni1E32
ENCODING 7730
SWIDTH 753 0
DWIDTH 26 0
BBX 23 30 3 -5
BITMAP
07E03E
07E07C
0FE0F8
0FE1F0
0FC1F0
0FC3E0
0FC7C0
1FCF80
1FCF00
1F9F00
1FBE00
1FFE00
3FFE00
3FFF00
3F7F80
3F3F80
3F1FC0
7F1FC0
7F0FE0
7F0FE0
7E07F0
7E07F0
FE03F8
FE03F8
FE01FC
000000
00F800
00F800
01F000
01F000
ENDCHAR
STARTCHAR uni1E33
ENCODING 7731
SWIDTH 666 0
DWIDTH 23 0
BBX 22 31 2 -5
BITMAP
07F000
07F000
07E000
07E000
0FE000
0FE000
0FE000
0FC000
0FC07C
1FC0F8
1FC1F0
1FC3E0
1F87C0
1F8F80
3F9F00
3FBE00
3FFE00
3FFF00
3F7F00
7F3F80
7F3F80
7E1FC0
7E1FC0
7E0FE0
FE0FE0
FE07F0
000000
00F800
00F800
01F000
01F000
ENDCHAR
STARTCHAR uni1E34
ENCODING 7732
SWIDTH 753 0
DWIDTH 26 0
BBX 23 30 3 -5
BITMAP
07E03E
07E07C
0FE0F8
0FE1F0
0FC1F0
0FC3E0
0FC7C0
1FCF80
1FCF00
1F9F00
1FBE00
1FFE00
3FFE00
3FFF00
3F7F80
3F3F80
3F1FC0
7F1FC0
7F0FE0
7F0FE0
7E07F0
7E07F0
FE03F8
FE03F8
FE01FC
000000
03FF80
07FF80
07FF80
07FF00
ENDCHAR
STARTCHAR uni1E35
ENCODING 7733
SWIDTH 666 0
DWIDTH 23 0
BBX 22 31 2 -5
BITMAP
07F000
07F000
07E000
07E000
0FE000
0FE000
0FE000
0FC000
0FC07C
1FC0F8
1FC1F0
1FC3E0
1F87C0
1F8F80
3F9F00
3FBE00
3FFE00
3FFF00
3F7F00
7F3F80
7F3F80
7E1FC0
7E1FC0
7E0FE0
FE0FE0
FE07F0
000000
07FF00
0FFF00
0FFF00
0FFE00
ENDCHAR
STARTCHAR uni1E36
ENCODING 7734
SWIDTH 623 0
DWIDTH 21 0
BBX 19 30 3 -5
BITMAP
07F000
07E000
0FE000
0FE000
0FE000
0FE000
0FC000
1FC000
1FC000
1FC000
1FC000
1F8000
3F8000
3F8000
3F8000
3F8000
3F0000
7F0000
7F0000
7F0000
7F0000
7FFFE0
FFFFE0
FFFFE0
FFFFC0
000000
03E000
03E000
07C000
07C000
ENDCHAR
STARTCHAR uni1E37
ENCODING 7735
SWIDTH 343 0
DWIDTH 12 0
BBX 12 31 2 -5
BITMAP
07F0
07F0
07E0
07E0
0FE0
0FE0
0FE0
0FC0
0FC0
1FC0
1FC0
1FC0
1F80
1F80
3F80
3F80
3F80
3F00
3F00
7F00
7F00
7F00
7E00
7E00
FE00
FE00
0000
3E00
3E00
7C00
7C00
ENDCHAR
STARTCHAR uni1E38
ENCODING 7736
SWIDTH 623 0
DWIDTH 21 0
BBX 19 35 3 -5
BITMAP
1FFC00
3FFC00
3FFC00
3FF800
000000
07F000
07E000
0FE000
0FE000
0FE000
0FE000
0FC000
1FC000
1FC000
1FC000
1FC000
1F8000
3F8000
3F8000
3F8000
3F8000
3F0000
7F0000
7F0000
7F0000
7F0000
7FFFE0
FFFFE0
FFFFE0
FFFFC0
000000
03E000
03E000
07C000
07C000
ENDCHAR
STARTCHAR uni1E39
ENCODING 7737
SWIDTH 343 0
DWIDTH 12 0
BBX 13 36 2 -5
BITMAP
3FF8
7FF8
7FF8
7FF0
0000
07F0
07F0
07E0
07E0
0FE0
0FE0
0FE0
0FC0
0FC0
1FC0
1FC0
1FC0
1F80
1F80
3F80
3F80
3F80
3F00
3F00
7F00
7F00
7F00
7E00
7E00
FE00
FE00
0000
3E00
3E00
7C00
7C00
ENDCHAR
STARTCHAR uni1E3A
ENCODING 7738
SWIDTH 623 0
DWIDTH 21 0
BBX 19 30 3 -5
BITMAP
07F000
07E000
0FE000
0FE000
0FE000
0FE000
0FC000
1FC000
1FC000
1FC000
1FC000
1F8000
3F8000
3F8000
3F8000
3F8000
3F0000
7F0000
7F0000
7F0000
7F0000
7FFFE0
FFFFE0
FFFFE0
FFFFC0
000000
0FFE00
1FFE00
1FFE00
1FFC00
ENDCHAR
STARTCHAR uni1E3B
ENCODING 7739
SWIDTH 343 0
DWIDTH 12 0
BBX 13 31 1 -5
BITMAP
03F8
03F8
03F0
03F0
07F0
07F0
07F0
07E0
07E0
0FE0
0FE0
0FE0
0FC0
0FC0
1FC0
1FC0
1FC0
1F80
1F80
3F80
3F80
3F80
3F00
3F00
7F00
7F00
0000
7FF0
FFF0
FFF0
FFE0
ENDCHAR
STARTCHAR uni1E3C
ENCODING 7740
SWIDTH 623 0
DWIDTH 21 0
BBX 19 30 3 -5
BITMAP
07F000
07E000
0FE000
0FE000
0FE000
0FE000
0FC000
1FC000
1FC000
1FC000
1FC000
1F8000
3F8000
3F8000
3F8000
3F8000
3F0000
7F0000
7F0000
7F0000
7F0000
7FFFE0
FFFFE0
FFFFE0
FFFFC0
000000
03F000
07F000
0F7800
3C3C00
ENDCHAR
STARTCHAR uni1E3D
ENCODING 7741
SWIDTH 343 0
DWIDTH 12 0
BBX 14 31 0 -5
BITMAP
01FC
01FC
01F8
01F8
03F8
03F8
03F8
03F0
03F0
07F0
07F0
07F0
07E0
07E0
0FE0
0FE0
0FE0
0FC0
0FC0
1FC0
1FC0
1FC0
1F80
1F80
3F80
3F80
0000
0FC0
1FC0
3DE0
F0F0
ENDCHAR
STARTCHAR uni1E3E
ENCODING 7742
SWIDTH 940 0
DWIDTH 32 0
BBX 31 30 3 0
BITMAP
00007E00
0000F800
0001E000
00078000
00000000
07F801FE
07F801FE
0FF803FE
0FFC03FC
0FFC07FC
0FFC07FC
0FFC0FFC
1FFC0FFC
1F7C1FF8
1F7C3FF8
1F7C3DF8
1E7E7DF8
3E7E79F8
3E7EF3F0
3E7EF3F0
3E7FE3F0
3E7FE3F0
7C3FC3F0
7C3FC7E0
7C3F87E0
7C3F87E0
7C3F07E0
F83E07E0
F8000FC0
F8000FC0
ENDCHAR
STARTCHAR uni1E3F
ENCODING 7743
SWIDTH 991 0
DWIDTH 34 0
BBX 32 23 2 0
BITMAP
00007E00
0000F800
0001E000
00078000
00000000
0FC1E03C
1FC7F0FF
1F8FF1FF
1F9FF3FF
1FBFF3FF
1F3BF77F
3F73FE7E
3FE3EC7E
3FC7F87E
3F87F87E
3F87F0FE
7F07E0FC
7E07E0FC
7E0FE0FC
7E0FC0FC
7E0FC1FC
FE0FC1F8
FC1FC1F8
ENDCHAR
STARTCHAR uni1E40
ENCODING 7744
SWIDTH 940 0
DWIDTH 32 0
BBX 31 30 3 0
BITMAP
0001F000
0001F000
0003E000
0003E000
00000000
07F801FE
07F801FE
0FF803FE
0FFC03FC
0FFC07FC
0FFC07FC
0FFC0FFC
1FFC0FFC
1F7C1FF8
1F7C3FF8
1F7C3DF8
1E7E7DF8
3E7E79F8
3E7EF3F0
3E7EF3F0
3E7FE3F0
3E7FE3F0
7C3FC3F0
7C3FC7E0
7C3F87E0
7C3F87E0
7C3F07E0
F83E07E0
F8000FC0
F8000FC0
ENDCHAR
STARTCHAR uni1E41
ENCODING 7745
SWIDTH 991 0
DWIDTH 34 0
BBX 32 23 2 0
BITMAP
0001F000
0001F000
0003E000
0003E000
00000000
0FC1E03C
1FC7F0FF
1F8FF1FF
1F9FF3FF
1FBFF3FF
1F3BF77F
3F73FE7E
3FE3EC7E
3FC7F87E
3F87F87E
3F87F0FE
7F07E0FC
7E07E0FC
7E0FE0FC
7E0FC0FC
7E0FC1FC
FE0FC1F8
FC1FC1F8
ENDCHAR
STARTCHAR uni1E42
ENCODING 7746
SWIDTH 940 0
DWIDTH 32 0
BBX 31 30 3 -5
BITMAP
07F801FE
07F801FE
0FF803FE
0FFC03FC
0FFC07FC
0FFC07FC
0FFC0FFC
1FFC0FFC
1F7C1FF8
1F7C3FF8
1F7C3DF8
1E7E7DF8
3E7E79F8
3E7EF3F0
3E7EF3F0
3E7FE3F0
3E7FE3F0
7C3FC3F0
7C3FC7E0
7C3F87E0
7C3F87E0
7C3F07E0
F83E07E0
F8000FC0
F8000FC0
00000000
000F8000
000F8000
001F0000
001F0000
ENDCHAR
STARTCHAR uni1E43
ENCODING 7747
SWIDTH 991 0
DWIDTH 34 0
BBX 32 23 2 -5
BITMAP
0FC1E03C
1FC7F0FF
1F8FF1FF
1F9FF3FF
1FBFF3FF
1F3BF77F
3F73FE7E
3FE3EC7E
3FC7F87E
3F87F87E
3F87F0FE
7F07E0FC
7E07E0FC
7E0FE0FC
7E0FC0FC
7E0FC1FC
FE0FC1F8
FC1FC1F8
00000000
0007C000
0007C000
000F8000
000F8000
ENDCHAR
STARTCHAR uni1E44
ENCODING 7748
SWIDTH 789 0
DWIDTH 27 0
BBX 26 30 3 0
BITMAP
000F8000
000F8000
001F0000
001F0000
00000000
07E007C0
07E007C0
0FF007C0
0FF00F80
0FF80F80
0FF80F80
0FFC0F80
1FFC0F80
1FFE1F00
1FFE1F00
1F7E1F00
1F7F1F00
3E3F1F00
3E3FBE00
3E1FBE00
3E1FFE00
3E0FFE00
7C0FFE00
7C07FC00
7C07FC00
7C03FC00
7C03FC00
F801FC00
F801F800
F800F800
ENDCHAR
STARTCHAR uni1E45
ENCODING 7749
SWIDTH 675 0
DWIDTH 23 0
BBX 21 23 2 0
BITMAP
003E00
003E00
007C00
007C00
000000
0FC1E0
1FC7F0
1FCFF8
1F9FF8
1F9FF8
1FBBF8
3FF3F8
3F63F0
3FC7F0
3FC7F0
3F87F0
7F07E0
7F07E0
7E0FE0
7E0FE0
7E0FE0
FE0FC0
FE0FC0
ENDCHAR
STARTCHAR uni1E46
ENCODING 7750
SWIDTH 789 0
DWIDTH 27 0
BBX 26 30 3 -5
BITMAP
07E007C0
07E007C0
0FF007C0
0FF00F80
0FF80F80
0FF80F80
0FFC0F80
1FFC0F80
1FFE1F00
1FFE1F00
1F7E1F00
1F7F1F00
3E3F1F00
3E3FBE00
3E1FBE00
3E1FFE00
3E0FFE00
7C0FFE00
7C07FC00
7C07FC00
7C03FC00
7C03FC00
F801FC00
F801F800
F800F800
00000000
003E0000
003E0000
007C0000
007C0000
ENDCHAR
STARTCHAR uni1E47
ENCODING 7751
SWIDTH 675 0
DWIDTH 23 0
BBX 21 23 2 -5
BITMAP
0FC1E0
1FC7F0
1FCFF8
1F9FF8
1F9FF8
1FBBF8
3FF3F8
3F63F0
3FC7F0
3FC7F0
3F87F0
7F07E0
7F07E0
7E0FE0
7E0FE0
7E0FE0
FE0FC0
FE0FC0
000000
00F800
00F800
01F000
01F000
ENDCHAR
STARTCHAR uni1E48
ENCODING 7752
SWIDTH 789 0
DWIDTH 27 0
BBX 26 30 3 -5
BITMAP
07E007C0
07E007C0
0FF007C0
0FF00F80
0FF80F80
0FF80F80
0FFC0F80
1FFC0F80
1FFE1F00
1FFE1F00
1F7E1F00
1F7F1F00
3E3F1F00
3E3FBE00
3E1FBE00
3E1FFE00
3E0FFE00
7C0FFE00
7C07FC00
7C07FC00
7C03FC00
7C03FC00
F801FC00
F801F800
F800F800
00000000
01FFC000
03FFC000
03FFC000
03FF8000
ENDCHAR
STARTCHAR uni1E49
ENCODING 7753
SWIDTH 675 0
DWIDTH 23 0
BBX 21 23 2 -5
BITMAP
0FC1E0
1FC7F0
1FCFF8
1F9FF8
1F9FF8
1FBBF8
3FF3F8
3F63F0
3FC7F0
3FC7F0
3F87F0
7F07E0
7F07E0
7E0FE0
7E0FE0
7E0FE0
FE0FC0
FE0FC0
000000
07FF00
0FFF00
0FFF00
0FFE00
ENDCHAR
STARTCHAR uni1E4A
ENCODING 7754
SWIDTH 789 0
DWIDTH 27 0
BBX 26 30 3 -5
BITMAP
07E007C0
07E007C0
0FF007C0
0FF00F80
0FF80F80
0FF80F80
0FFC0F80
1FFC0F80
1FFE1F00
1FFE1F00
1F7E1F00
1F7F1F00
3E3F1F00
3E3FBE00
3E1FBE00
3E1FFE00
3E0FFE00
7C0FFE00
7C07FC00
7C07FC00
7C03FC00
7C03FC00
F801FC00
F801F800
F800F800
00000000
003F0000
007F0000
00F78000
03C3C000
ENDCHAR
STARTCHAR uni1E4B
ENCODING 7755
SWIDTH 675 0
DWIDTH 23 0
BBX 21 23 2 -5
BITMAP
0FC1E0
1FC7F0
1FCFF8
1F9FF8
1F9FF8
1FBBF8
3FF3F8
3F63F0
3FC7F0
3FC7F0
3F87F0
7F07E0
7F07E0
7E0FE0
7E0FE0
7E0FE0
FE0FC0
FE0FC0
000000
01F800
03F800
07BC00
1E1E00
ENDCHAR
STARTCHAR uni1E4C
ENCODING 7756
SWIDTH 855 0
DWIDTH 29 0
BBX 27 36 3 0
BITMAP
0000FC00
0001F000
0003C000
000F0000
00000000
00078E00
001FFC00
001FFC00
0038F800
00000000
00000000
000FF800
003FFE00
00FFFF80
03FFFFC0
07F83FC0
0FE01FE0
1FC00FE0
1F800FE0
3F800FE0
3F000FE0
7F000FE0
7F000FE0
FE000FE0
FE000FE0
FE001FC0
FE001FC0
FE003F80
FE003F80
FF007F00
7F00FE00
7FC3FC00
3FFFF800
1FFFE000
0FFFC000
01FE0000
ENDCHAR
STARTCHAR uni1E4D
ENCODING 7757
SWIDTH 663 0
DWIDTH 23 0
BBX 21 29 3 0
BITMAP
0007E0
000F80
001E00
007800
000000
001E38
007FF0
007FF0
00E3E0
000000
000000
007F80
01FFE0
07FFF0
0FFFF0
1FC7F8
3F83F8
3F03F8
7E03F8
7E03F0
FE03F0
FE07F0
FE07E0
FE0FE0
FF1FC0
FFFF80
7FFE00
3FFC00
0FE000
ENDCHAR
STARTCHAR uni1E4E
ENCODING 7758
SWIDTH 855 0
DWIDTH 29 0
BBX 27 36 3 0
BITMAP
001E3C00
001E3C00
003C7800
003C7800
00000000
00078E00
001FFC00
001FFC00
0038F800
00000000
00000000
000FF800
003FFE00
00FFFF80
03FFFFC0
07F83FC0
0FE01FE0
1FC00FE0
1F800FE0
3F800FE0
3F000FE0
7F000FE0
7F000FE0
FE000FE0
FE000FE0
FE001FC0
FE001FC0
FE003F80
FE003F80
FF007F00
7F00FE00
7FC3FC00
3FFFF800
1FFFE000
0FFFC000
01FE0000
ENDCHAR
STARTCHAR uni1E4F
ENCODING 7759
SWIDTH 663 0
DWIDTH 23 0
BBX 21 29 3 0
BITMAP
00F1E0
00F1E0
01E3C0
01E3C0
000000
001E38
007FF0
007FF0
00E3E0
000000
000000
007F80
01FFE0
07FFF0
0FFFF0
1FC7F8
3F83F8
3F03F8
7E03F8
7E03F0
FE03F0
FE07F0
FE07E0
FE0FE0
FF1FC0
FFFF80
7FFE00
3FFC00
0FE000
ENDCHAR
STARTCHAR uni1E50
ENCODING 7760
SWIDTH 855 0
DWIDTH 29 0
BBX 27 35 3 0
BITMAP
003F0000
000F0000
00078000
0003C000
00000000
003FF800
007FF800
007FF800
007FF000
00000000
000FF800
003FFE00
00FFFF80
03FFFFC0
07F83FC0
0FE01FE0
1FC00FE0
1F800FE0
3F800FE0
3F000FE0
7F000FE0
7F000FE0
FE000FE0
FE000FE0
FE001FC0
FE001FC0
FE003F80
FE003F80
FF007F00
7F00FE00
7FC3FC00
3FFFF800
1FFFE000
0FFFC000
01FE0000
ENDCHAR
STARTCHAR uni1E51
ENCODING 7761
SWIDTH 663 0
DWIDTH 23 0
BBX 21 28 3 0
BITMAP
01F800
007800
003C00
001E00
000000
01FFC0
03FFC0
03FFC0
03FF80
000000
007F80
01FFE0
07FFF0
0FFFF0
1FC7F8
3F83F8
3F03F8
7E03F8
7E03F0
FE03F0
FE07F0
FE07E0
FE0FE0
FF1FC0
FFFF80
7FFE00
3FFC00
0FE000
ENDCHAR
STARTCHAR uni1E52
ENCODING 7762
SWIDTH 855 0
DWIDTH 29 0
BBX 27 35 3 0
BITMAP
0001F800
0003E000
00078000
001E0000
00000000
003FF800
007FF800
007FF800
007FF000
00000000
000FF800
003FFE00
00FFFF80
03FFFFC0
07F83FC0
0FE01FE0
1FC00FE0
1F800FE0
3F800FE0
3F000FE0
7F000FE0
7F000FE0
FE000FE0
FE000FE0
FE001FC0
FE001FC0
FE003F80
FE003F80
FF007F00
7F00FE00
7FC3FC00
3FFFF800
1FFFE000
0FFFC000
01FE0000
ENDCHAR
STARTCHAR uni1E53
ENCODING 7763
SWIDTH 663 0
DWIDTH 23 0
BBX 21 28 3 0
BITMAP
000FC0
001F00
003C00
00F000
000000
01FFC0
03FFC0
03FFC0
03FF80
000000
007F80
01FFE0
07FFF0
0FFFF0
1FC7F8
3F83F8
3F03F8
7E03F8
7E03F0
FE03F0
FE07F0
FE07E0
FE0FE0
FF1FC0
FFFF80
7FFE00
3FFC00
0FE000
ENDCHAR
STARTCHAR uni1E54
ENCODING 7764
SWIDTH 645 0
DWIDTH 22 0
BBX 22 30 3 0
BITMAP
0007E0
000F80
001E00
007800
000000
07FFE0
07FFF8
0FFFF8
0FFFFC
0FC1FC
0FC1FC
0FC1FC
1FC1FC
1F81F8
1F83F8
1F87F0
1FFFE0
3FFFC0
3FFF80
3FFC00
3F0000
3F0000
7F0000
7E0000
7E0000
7E0000
7E0000
FE0000
FC0000
FC0000
ENDCHAR
STARTCHAR uni1E55
ENCODING 7765
SWIDTH 681 0
DWIDTH 23 0
BBX 23 30 1 -7
BITMAP
0007E0
000F80
001E00
007800
000000
07F0F8
07E1FC
0FE3FE
0FE7FE
0FCFFE
0FDCFE
0FF8FE
1FF0FE
1FE0FC
1FE0FC
1FC1F8
1F83F8
3F83F0
3F8FE0
3FFFC0
3FFF80
3FFF00
7FFC00
7F0000
7F0000
7E0000
7E0000
FE0000
FE0000
FE0000
ENDCHAR
STARTCHAR uni1E56
ENCODING 7766
SWIDTH 645 0
DWIDTH 22 0
BBX 22 30 3 0
BITMAP
001F00
001F00
003E00
003E00
000000
07FFE0
07FFF8
0FFFF8
0FFFFC
0FC1FC
0FC1FC
0FC1FC
1FC1FC
1F81F8
1F83F8
1F87F0
1FFFE0
3FFFC0
3FFF80
3FFC00
3F0000
3F0000
7F0000
7E0000
7E0000
7E0000
7E0000
FE0000
FC0000
FC0000
ENDCHAR
STARTCHAR uni1E57
ENCODING 7767
SWIDTH 681 0
DWIDTH 23 0
BBX 23 30 1 -7
BITMAP
001F00
001F00
003E00
003E00
000000
07F0F8
07E1FC
0FE3FE
0FE7FE
0FCFFE
0FDCFE
0FF8FE
1FF0FE
1FE0FC
1FE0FC
1FC1F8
1F83F8
3F83F0
3F8FE0
3FFFC0
3FFF80
3FFF00
7FFC00
7F0000
7F0000
7E0000
7E0000
FE0000
FE0000
FE0000
ENDCHAR
STARTCHAR uni1E58
ENCODING 7768
SWIDTH 708 0
DWIDTH 24 0
BBX 22 30 3 0
BITMAP
001F00
001F00
003E00
003E00
000000
07FFE0
07FFF8
0FFFFC
0FFFFC
0FC1FC
0FC1FC
0FC1FC
1F81FC
1F81F8
1F83F0
1F87F0
1FFFE0
3FFF80
3FFF00
3FFF00
3F3F80
3F1F80
7F1F80
7E1FC0
7E0FC0
7E0FE0
7E0FE0
FE07E0
FC07F0
FC07F0
ENDCHAR
STARTCHAR uni1E59
ENCODING 7769
SWIDTH 542 0
DWIDTH 18 0
BBX 19 23 2 0
BITMAP
00F800
00F800
01F000
01F000
000000
0FC1E0
1FC3C0
1FC7C0
1F8FC0
1F9F80
1FBF80
3FB800
3F7000
3FE000
3FC000
3F8000
7F0000
7F0000
7F0000
7E0000
7E0000
FE0000
FE0000
ENDCHAR
STARTCHAR uni1E5A
ENCODING 7770
SWIDTH 708 0
DWIDTH 24 0
BBX 22 30 3 -5
BITMAP
07FFE0
07FFF8
0FFFFC
0FFFFC
0FC1FC
0FC1FC
0FC1FC
1F81FC
1F81F8
1F83F0
1F87F0
1FFFE0
3FFF80
3FFF00
3FFF00
3F3F80
3F1F80
7F1F80
7E1FC0
7E0FC0
7E0FE0
7E0FE0
FE07E0
FC07F0
FC07F0
000000
00F800
00F800
01F000
01F000
ENDCHAR
STARTCHAR uni1E5B
ENCODING 7771
SWIDTH 542 0
DWIDTH 18 0
BBX 19 23 2 -5
BITMAP
0FC1E0
1FC3C0
1FC7C0
1F8FC0
1F9F80
1FBF80
3FB800
3F7000
3FE000
3FC000
3F8000
7F0000
7F0000
7F0000
7E0000
7E0000
FE0000
FE0000
000000
1F0000
1F0000
3E0000
3E0000
ENDCHAR
STARTCHAR uni1E5C
ENCODING 7772
SWIDTH 708 0
DWIDTH 24 0
BBX 22 35 3 -5
BITMAP
01FFC0
03FFC0
03FFC0
03FF80
000000
07FFE0
07FFF8
0FFFFC
0FFFFC
0FC1FC
0FC1FC
0FC1FC
1F81FC
1F81F8
1F83F0
1F87F0
1FFFE0
3FFF80
3FFF00
3FFF00
3F3F80
3F1F80
7F1F80
7E1FC0
7E0FC0
7E0FE0
7E0FE0
FE07E0
FC07F0
FC07F0
000000
00F800
00F800
01F000
01F000
ENDCHAR
STARTCHAR uni1E5D
ENCODING 7773
SWIDTH 542 0
DWIDTH 18 0
BBX 19 28 2 -5
BITMAP
07FF00
0FFF00
0FFF00
0FFE00
000000
0FC1E0
1FC3C0
1FC7C0
1F8FC0
1F9F80
1FBF80
3FB800
3F7000
3FE000
3FC000
3F8000
7F0000
7F0000
7F0000
7E0000
7E0000
FE0000
FE0000
000000
1F0000
1F0000
3E0000
3E0000
ENDCHAR
STARTCHAR uni1E5E
ENCODING 7774
SWIDTH 708 0
DWIDTH 24 0
BBX 22 30 3 -5
BITMAP
07FFE0
07FFF8
0FFFFC
0FFFFC
0FC1FC
0FC1FC
0FC1FC
1F81FC
1F81F8
1F83F0
1F87F0
1FFFE0
3FFF80
3FFF00
3FFF00
3F3F80
3F1F80
7F1F80
7E1FC0
7E0FC0
7E0FE0
7E0FE0
FE07E0
FC07F0
FC07F0
000000
07FF00
0FFF00
0FFF00
0FFE00
ENDCHAR
STARTCHAR uni1E5F
ENCODING 7775
SWIDTH 542 0
DWIDTH 18 0
BBX 19 23 2 -5
BITMAP
0FC1E0
1FC3C0
1FC7C0
1F8FC0
1F9F80
1FBF80
3FB800
3F7000
3FE000
3FC000
3F8000
7F0000
7F0000
7F0000
7E0000
7E0000
FE0000
FE0000
000000
7FF000
FFF000
FFF000
FFE000
ENDCHAR
STARTCHAR uni1E60
ENCODING 7776
SWIDTH 639 0
DWIDTH 22 0
BBX 20 30 3 0
BITMAP
007C00
007C00
00F800
00F800
000000
007FC0
01FFF0
03FFF0
07FFE0
0FE060
0FC000
1FC000
1FC000
1FE000
0FF000
0FFC00
07FE00
03FF00
01FF80
00FFC0
003FC0
001FC0
001FC0
001FC0
001FC0
603F80
7FFF80
FFFE00
FFFC00
FFE000
ENDCHAR
STARTCHAR uni1E61
ENCODING 7777
SWIDTH 527 0
DWIDTH 18 0
BBX 17 23 2 0
BITMAP
00F800
00F800
01F000
01F000
000000
00FF80
03FF80
0FFF00
0FFF00
1FC000
1FC000
0FC000
0FE000
07F800
03FC00
00FE00
007E00
407E00
70FE00
FFFE00
FFFC00
FFF800
1FE000
ENDCHAR
STARTCHAR uni1E62
ENCODING 7778
SWIDTH 639 0
DWIDTH 22 0
BBX 20 30 3 -5
BITMAP
007FC0
01FFF0
03FFF0
07FFE0
0FE060
0FC000
1FC000
1FC000
1FE000
0FF000
0FFC00
07FE00
03FF00
01FF80
00FFC0
003FC0
001FC0
001FC0
001FC0
001FC0
603F80
7FFF80
FFFE00
FFFC00
FFE000
000000
01F000
01F000
03E000
03E000
ENDCHAR
STARTCHAR uni1E63
ENCODING 7779
SWIDTH 527 0
DWIDTH 18 0
BBX 17 23 2 -5
BITMAP
00FF80
03FF80
0FFF00
0FFF00
1FC000
1FC000
0FC000
0FE000
07F800
03FC00
00FE00
007E00
407E00
70FE00
FFFE00
FFFC00
FFF800
1FE000
000000
07C000
07C000
0F8000
0F8000
ENDCHAR
STARTCHAR uni1E64
ENCODING 7780
SWIDTH 639 0
DWIDTH 22 0
BBX 20 35 3 0
BITMAP
003E00
003E00
007C00
007C00
000000
001F80
003E00
007800
01E000
000000
007FC0
01FFF0
03FFF0
07FFE0
0FE060
0FC000
1FC000
1FC000
1FE000
0FF000
0FFC00
07FE00
03FF00
01FF80
00FFC0
003FC0
001FC0
001FC0
001FC0
001FC0
603F80
7FFF80
FFFE00
FFFC00
FFE000
ENDCHAR
STARTCHAR uni1E65
ENCODING 7781
SWIDTH 527 0
DWIDTH 18 0
BBX 17 28 2 0
BITMAP
007C00
007C00
00F800
00F800
000000
003F00
007C00
00F000
03C000
000000
00FF80
03FF80
0FFF00
0FFF00
1FC000
1FC000
0FC000
0FE000
07F800
03FC00
00FE00
007E00
407E00
70FE00
FFFE00
FFFC00
FFF800
1FE000
ENDCHAR
STARTCHAR uni1E66
ENCODING 7782
SWIDTH 639 0
DWIDTH 22 0
BBX 20 36 3 0
BITMAP
001F00
001F00
003E00
003E00
000000
00F0F0
007BC0
003F80
003F00
000000
000000
007FC0
01FFF0
03FFF0
07FFE0
0FE060
0FC000
1FC000
1FC000
1FE000
0FF000
0FFC00
07FE00
03FF00
01FF80
00FFC0
003FC0
001FC0
001FC0
001FC0
001FC0
603F80
7FFF80
FFFE00
FFFC00
FFE000
ENDCHAR
STARTCHAR uni1E67
ENCODING 7783
SWIDTH 527 0
DWIDTH 18 0
BBX 19 29 2 0
BITMAP
003E00
003E00
007C00
007C00
000000
01E1E0
00F780
007F00
007E00
000000
000000
00FF80
03FF80
0FFF00
0FFF00
1FC000
1FC000
0FC000
0FE000
07F800
03FC00
00FE00
007E00
407E00
70FE00
FFFE00
FFFC00
FFF800
1FE000
ENDCHAR
STARTCHAR uni1E68
ENCODING 7784
SWIDTH 639 0
DWIDTH 22 0
BBX 20 35 3 -5
BITMAP
007C00
007C00
00F800
00F800
000000
007FC0
01FFF0
03FFF0
07FFE0
0FE060
0FC000
1FC000
1FC000
1FE000
0FF000
0FFC00
07FE00
03FF00
01FF80
00FFC0
003FC0
001FC0
001FC0
001FC0
001FC0
603F80
7FFF80
FFFE00
FFFC00
FFE000
000000
01F000
01F000
03E000
03E000
ENDCHAR
STARTCHAR uni1E69
ENCODING 7785
SWIDTH 527 0
DWIDTH 18 0
BBX 17 28 2 -5
BITMAP
00F800
00F800
01F000
01F000
000000
00FF80
03FF80
0FFF00
0FFF00
1FC000
1FC000
0FC000
0FE000
07F800
03FC00
00FE00
007E00
407E00
70FE00
FFFE00
FFFC00
FFF800
1FE000
000000
07C000
07C000
0F8000
0F8000
ENDCHAR
STARTCHAR uni1E6A
ENCODING 7786
SWIDTH 747 0
DWIDTH 25 0
BBX 25 30 5 0
BITMAP
001F0000
001F0000
003E0000
003E0000
00000000
7FFFFF80
FFFFFF80
FFFFFF80
FFFFFF00
007E0000
007E0000
00FE0000
00FE0000
00FC0000
00FC0000
00FC0000
01FC0000
01FC0000
01FC0000
01F80000
01F80000
03F80000
03F80000
03F80000
03F00000
03F00000
07F00000
07F00000
07F00000
07E00000
ENDCHAR
STARTCHAR uni1E6B
ENCODING 7787
SWIDTH 437 0
DWIDTH 15 0
BBX 13 28 4 0
BITMAP
07C0
07C0
0F80
0F80
0000
00E0
0FC0
1FC0
1FC0
1FC0
7FF8
FFF8
FFF8
FFF0
3F80
3F80
3F00
7F00
7F00
7F00
7E00
7E00
FE00
FF00
FFE0
FFC0
7FC0
3F80
ENDCHAR
STARTCHAR uni1E6C
ENCODING 7788
SWIDTH 747 0
DWIDTH 25 0
BBX 25 30 5 -5
BITMAP
7FFFFF80
FFFFFF80
FFFFFF80
FFFFFF00
007E0000
007E0000
00FE0000
00FE0000
00FC0000
00FC0000
00FC0000
01FC0000
01FC0000
01FC0000
01F80000
01F80000
03F80000
03F80000
03F80000
03F00000
03F00000
07F00000
07F00000
07F00000
07E00000
00000000
00F80000
00F80000
01F00000
01F00000
ENDCHAR
STARTCHAR uni1E6D
ENCODING 7789
SWIDTH 437 0
DWIDTH 15 0
BBX 13 28 4 -5
BITMAP
00E0
0FC0
1FC0
1FC0
1FC0
7FF8
FFF8
FFF8
FFF0
3F80
3F80
3F00
7F00
7F00
7F00
7E00
7E00
FE00
FF00
FFE0
FFC0
7FC0
3F80
0000
1F00
1F00
3E00
3E00
ENDCHAR
STARTCHAR uni1E6E
ENCODING 7790
SWIDTH 747 0
DWIDTH 25 0
BBX 25 30 5 -5
BITMAP
7FFFFF80
FFFFFF80
FFFFFF80
FFFFFF00
007E0000
007E0000
00FE0000
00FE0000
00FC0000
00FC0000
00FC0000
01FC0000
01FC0000
01FC0000
01F80000
01F80000
03F80000
03F80000
03F80000
03F00000
03F00000
07F00000
07F00000
07F00000
07E00000
00000000
07FF0000
0FFF0000
0FFF0000
0FFE0000
ENDCHAR
STARTCHAR uni1E6F
ENCODING 7791
SWIDTH 437 0
DWIDTH 15 0
BBX 14 28 3 -5
BITMAP
0070
07E0
0FE0
0FE0
0FE0
3FFC
7FFC
7FFC
7FF8
1FC0
1FC0
1F80
3F80
3F80
3F80
3F00
3F00
7F00
7F80
7FF0
7FE0
3FE0
1FC0
0000
7FF0
FFF0
FFF0
FFE0
ENDCHAR
STARTCHAR uni1E70
ENCODING 7792
SWIDTH 747 0
DWIDTH 25 0
BBX 25 30 5 -5
BITMAP
7FFFFF80
FFFFFF80
FFFFFF80
FFFFFF00
007E0000
007E0000
00FE0000
00FE0000
00FC0000
00FC0000
00FC0000
01FC0000
01FC0000
01FC0000
01F80000
01F80000
03F80000
03F80000
03F80000
03F00000
03F00000
07F00000
07F00000
07F00000
07E00000
00000000
01F80000
03F80000
07BC0000
1E1E0000
ENDCHAR
STARTCHAR uni1E71
ENCODING 7793
SWIDTH 437 0
DWIDTH 15 0
BBX 14 28 3 -5
BITMAP
0070
07E0
0FE0
0FE0
0FE0
3FFC
7FFC
7FFC
7FF8
1FC0
1FC0
1F80
3F80
3F80
3F80
3F00
3F00
7F00
7F80
7FF0
7FE0
3FE0
1FC0
0000
0FC0
1FC0
3DE0
F0F0
ENDCHAR
STARTCHAR uni1E72
ENCODING 7794
SWIDTH 759 0
DWIDTH 26 0
BBX 24 30 4 -5
BITMAP
1FC03F
1F803F
1F803F
1F803E
3F807E
3F807E
3F007E
3F007E
3F007C
7F00FC
7F00FC
7E00FC
7E00FC
7E00F8
FE01F8
FE01F8
FE01F8
FE01F0
FE03F0
FE03E0
7F07E0
7FFFC0
3FFF80
1FFF00
03FC00
000000
078F00
078F00
0F1E00
0F1E00
ENDCHAR
STARTCHAR uni1E73
ENCODING 7795
SWIDTH 675 0
DWIDTH 23 0
BBX 21 23 3 -5
BITMAP
1F83F8
1F83F8
3F83F0
3F83F0
3F07F0
3F07F0
3F07F0
7F0FE0
7F1FE0
7E1FE0
7E37E0
FE7FE0
FEEFC0
FFCFC0
FFCFC0
FF9FC0
7F1FC0
3C1F80
000000
0F1E00
0F1E00
1E3C00
1E3C00
ENDCHAR
STARTCHAR uni1E74
ENCODING 7796
SWIDTH 759 0
DWIDTH 26 0
BBX 24 30 4 -5
BITMAP
1FC03F
1F803F
1F803F
1F803E
3F807E
3F807E
3F007E
3F007E
3F007C
7F00FC
7F00FC
7E00FC
7E00FC
7E00F8
FE01F8
FE01F8
FE01F8
FE01F0
FE03F0
FE03E0
7F07E0
7FFFC0
3FFF80
1FFF00
03FC00
000000
01E380
07FF00
07FF00
0E3E00
ENDCHAR
STARTCHAR uni1E75
ENCODING 7797
SWIDTH 675 0
DWIDTH 23 0
BBX 21 23 3 -5
BITMAP
1F83F8
1F83F8
3F83F0
3F83F0
3F07F0
3F07F0
3F07F0
7F0FE0
7F1FE0
7E1FE0
7E37E0
FE7FE0
FEEFC0
FFCFC0
FFCFC0
FF9FC0
7F1FC0
3C1F80
000000
03C700
0FFE00
0FFE00
1C7C00
ENDCHAR
STARTCHAR uni1E76
ENCODING 7798
SWIDTH 759 0
DWIDTH 26 0
BBX 24 30 4 -5
BITMAP
1FC03F
1F803F
1F803F
1F803E
3F807E
3F807E
3F007E
3F007E
3F007C
7F00FC
7F00FC
7E00FC
7E00FC
7E00F8
FE01F8
FE01F8
FE01F8
FE01F0
FE03F0
FE03E0
7F07E0
7FFFC0
3FFF80
1FFF00
03FC00
000000
00FC00
01FC00
03DE00
0F0F00
ENDCHAR
STARTCHAR uni1E77
ENCODING 7799
SWIDTH 675 0
DWIDTH 23 0
BBX 21 23 3 -5
BITMAP
1F83F8
1F83F8
3F83F0
3F83F0
3F07F0
3F07F0
3F07F0
7F0FE0
7F1FE0
7E1FE0
7E37E0
FE7FE0
FEEFC0
FFCFC0
FFCFC0
FF9FC0
7F1FC0
3C1F80
000000
01F800
03F800
07BC00
1E1E00
ENDCHAR
STARTCHAR uni1E78
ENCODING 7800
SWIDTH 759 0
DWIDTH 26 0
BBX 24 35 4 0
BITMAP
0007E0
000F80
001E00
007800
000000
0078E0
01FFC0
01FFC0
038F80
000000
1FC03F
1F803F
1F803F
1F803E
3F807E
3F807E
3F007E
3F007E
3F007C
7F00FC
7F00FC
7E00FC
7E00FC
7E00F8
FE01F8
FE01F8
FE01F8
FE01F0
FE03F0
FE03E0
7F07E0
7FFFC0
3FFF80
1FFF00
03FC00
ENDCHAR
STARTCHAR uni1E79
ENCODING 7801
SWIDTH 675 0
DWIDTH 23 0
BBX 21 28 3 0
BITMAP
000FC0
001F00
003C00
00F000
000000
00F1C0
03FF80
03FF80
071F00
000000
1F83F8
1F83F8
3F83F0
3F83F0
3F07F0
3F07F0
3F07F0
7F0FE0
7F1FE0
7E1FE0
7E37E0
FE7FE0
FEEFC0
FFCFC0
FFCFC0
FF9FC0
7F1FC0
3C1F80
ENDCHAR
STARTCHAR uni1E7A
ENCODING 7802
SWIDTH 759 0
DWIDTH 26 0
BBX 24 35 4 0
BITMAP
00F1E0
00F1E0
01E3C0
01E3C0
000000
00FFE0
01FFE0
01FFE0
01FFC0
000000
1FC03F
1F803F
1F803F
1F803E
3F807E
3F807E
3F007E
3F007E
3F007C
7F00FC
7F00FC
7E00FC
7E00FC
7E00F8
FE01F8
FE01F8
FE01F8
FE01F0
FE03F0
FE03E0
7F07E0
7FFFC0
3FFF80
1FFF00
03FC00
ENDCHAR
STARTCHAR uni1E7B
ENCODING 7803
SWIDTH 675 0
DWIDTH 23 0
BBX 21 28 3 0
BITMAP
03C780
03C780
078F00
078F00
000000
03FF80
07FF80
07FF80
07FF00
000000
1F83F8
1F83F8
3F83F0
3F83F0
3F07F0
3F07F0
3F07F0
7F0FE0
7F1FE0
7E1FE0
7E37E0
FE7FE0
FEEFC0
FFCFC0
FFCFC0
FF9FC0
7F1FC0
3C1F80
ENDCHAR
STARTCHAR uni1E7C
ENCODING 7804
SWIDTH 765 0
DWIDTH 26 0
BBX 24 30 6 0
BITMAP
00F1C0
03FF80
03FF80
071F00
000000
FE001F
FE001E
FE003E
7E003C
7E007C
7F00F8
7F00F0
7F01F0
7F01E0
3F03E0
3F03C0
3F87C0
3F8780
3F8F80
3F8F00
1F9F00
1F9E00
1FBE00
1FFC00
1FFC00
1FF800
0FF000
0FF000
0FE000
0FE000
ENDCHAR
STARTCHAR uni1E7D
ENCODING 7805
SWIDTH 630 0
DWIDTH 21 0
BBX 21 23 4 0
BITMAP
03C700
0FFE00
0FFE00
1C7C00
000000
FE00F8
FE01F0
FE01E0
7E03E0
7F03C0
7F07C0
7F0F80
7F0F00
3F1F00
3F1E00
3FBE00
3FFC00
3FF800
1FF800
1FF000
1FF000
1FE000
1FC000
ENDCHAR
STARTCHAR uni1E7E
ENCODING 7806
SWIDTH 765 0
DWIDTH 26 0
BBX 24 30 6 -5
BITMAP
FE001F
FE001E
FE003E
7E003C
7E007C
7F00F8
7F00F0
7F01F0
7F01E0
3F03E0
3F03C0
3F87C0
3F8780
3F8F80
3F8F00
1F9F00
1F9E00
1FBE00
1FFC00
1FFC00
1FF800
0FF000
0FF000
0FE000
0FE000
000000
01F000
01F000
03E000
03E000
ENDCHAR
STARTCHAR uni1E7F
ENCODING 7807
SWIDTH 630 0
DWIDTH 21 0
BBX 21 23 4 -5
BITMAP
FE00F8
FE01F0
FE01E0
7E03E0
7F03C0
7F07C0
7F0F80
7F0F00
3F1F00
3F1E00
3FBE00
3FFC00
3FF800
1FF800
1FF000
1FF000
1FE000
1FC000
000000
03E000
03E000
07C000
07C000
ENDCHAR
STARTCHAR Wgrave
ENCODING 7808
SWIDTH 991 0
DWIDTH 34 0
BBX 31 30 6 0
BITMAP
003F0000
000F0000
00078000
0003C000
00000000
FC07E03E
FC07E03C
FC07E07C
FC0FE078
FC0FE0F8
FC1FE0F0
FC1FE1F0
FC1FE1F0
FC3FE1E0
FC3FE3E0
FC7FE3C0
7C7FE7C0
7CF7E780
7EF7EF80
7EF7EF00
7FE7FF00
7FE7FE00
7FC7FE00
7FC7FE00
7FC7FC00
7F87FC00
7F87F800
7F07F800
7F07F000
7F07F000
ENDCHAR
STARTCHAR wgrave
ENCODING 7809
SWIDTH 878 0
DWIDTH 30 0
BBX 28 23 5 0
BITMAP
00FC0000
003C0000
001E0000
000F0000
00000000
FC0F81F0
FC1F81E0
FC1F83E0
FC3F83C0
FC3F87C0
FC7F8780
FC7FCF80
FCFFCF00
FCFFDF00
FDEFDE00
FDEFFE00
FFCFFC00
7FCFFC00
7F87F800
7F87F800
7F07F000
7F07F000
7E07E000
ENDCHAR
STARTCHAR Wacute
ENCODING 7810
SWIDTH 991 0
DWIDTH 34 0
BBX 31 30 6 0
BITMAP
0001F800
0003E000
00078000
001E0000
00000000
FC07E03E
FC07E03C
FC07E07C
FC0FE078
FC0FE0F8
FC1FE0F0
FC1FE1F0
FC1FE1F0
FC3FE1E0
FC3FE3E0
FC7FE3C0
7C7FE7C0
7CF7E780
7EF7EF80
7EF7EF00
7FE7FF00
7FE7FE00
7FC7FE00
7FC7FE00
7FC7FC00
7F87FC00
7F87F800
7F07F800
7F07F000
7F07F000
ENDCHAR
STARTCHAR wacute
ENCODING 7811
SWIDTH 878 0
DWIDTH 30 0
BBX 28 23 5 0
BITMAP
0003F000
0007C000
000F0000
003C0000
00000000
FC0F81F0
FC1F81E0
FC1F83E0
FC3F83C0
FC3F87C0
FC7F8780
FC7FCF80
FCFFCF00
FCFFDF00
FDEFDE00
FDEFFE00
FFCFFC00
7FCFFC00
7F87F800
7F87F800
7F07F000
7F07F000
7E07E000
ENDCHAR
STARTCHAR Wdieresis
ENCODING 7812
SWIDTH 991 0
DWIDTH 34 0
BBX 31 30 6 0
BITMAP
003C7800
003C7800
0078F000
0078F000
00000000
FC07E03E
FC07E03C
FC07E07C
FC0FE078
FC0FE0F8
FC1FE0F0
FC1FE1F0
FC1FE1F0
FC3FE1E0
FC3FE3E0
FC7FE3C0
7C7FE7C0
7CF7E780
7EF7EF80
7EF7EF00
7FE7FF00
7FE7FE00
7FC7FE00
7FC7FE00
7FC7FC00
7F87FC00
7F87F800
7F07F800
7F07F000
7F07F000
ENDCHAR
STARTCHAR wdieresis
ENCODING 7813
SWIDTH 878 0
DWIDTH 30 0
BBX 28 23 5 0
BITMAP
0078F000
0078F000
00F1E000
00F1E000
00000000
FC0F81F0
FC1F81E0
FC1F83E0
FC3F83C0
FC3F87C0
FC7F8780
FC7FCF80
FCFFCF00
FCFFDF00
FDEFDE00
FDEFFE00
FFCFFC00
7FCFFC00
7F87F800
7F87F800
7F07F000
7F07F000
7E07E000
ENDCHAR
STARTCHAR uni1E86
ENCODING 7814
SWIDTH 991 0
DWIDTH 34 0
BBX 31 30 6 0
BITMAP
0007C000
0007C000
000F8000
000F8000
00000000
FC07E03E
FC07E03C
FC07E07C
FC0FE078
FC0FE0F8
FC1FE0F0
FC1FE1F0
FC1FE1F0
FC3FE1E0
FC3FE3E0
FC7FE3C0
7C7FE7C0
7CF7E780
7EF7EF80
7EF7EF00
7FE7FF00
7FE7FE00
7FC7FE00
7FC7FE00
7FC7FC00
7F87FC00
7F87F800
7F07F800
7F07F000
7F07F000
ENDCHAR
STARTCHAR uni1E87
ENCODING 7815
SWIDTH 878 0
DWIDTH 30 0
BBX 28 23 5 0
BITMAP
000F8000
000F8000
001F0000
001F0000
00000000
FC0F81F0
FC1F81E0
FC1F83E0
FC3F83C0
FC3F87C0
FC7F8780
FC7FCF80
FCFFCF00
FCFFDF00
FDEFDE00
FDEFFE00
FFCFFC00
7FCFFC00
7F87F800
7F87F800
7F07F000
7F07F000
7E07E000
ENDCHAR
STARTCHAR uni1E88
ENCODING 7816
SWIDTH 991 0
DWIDTH 34 0
BBX 31 30 6 -5
BITMAP
FC07E03E
FC07E03C
FC07E07C
FC0FE078
FC0FE0F8
FC1FE0F0
FC1FE1F0
FC1FE1F0
FC3FE1E0
FC3FE3E0
FC7FE3C0
7C7FE7C0
7CF7E780
7EF7EF80
7EF7EF00
7FE7FF00
7FE7FE00
7FC7FE00
7FC7FE00
7FC7FC00
7F87FC00
7F87F800
7F07F800
7F07F000
7F07F000
00000000
003E0000
003E0000
007C0000
007C0000
ENDCHAR
STARTCHAR uni1E89
ENCODING 7817
SWIDTH 878 0
DWIDTH 30 0
BBX 28 23 5 -5
BITMAP
FC0F81F0
FC1F81E0
FC1F83E0
FC3F83C0
FC3F87C0
FC7F8780
FC7FCF80
FCFFCF00
FCFFDF00
FDEFDE00
FDEFFE00
FFCFFC00
7FCFFC00
7F87F800
7F87F800
7F07F000
7F07F000
7E07E000
00000000
007C0000
007C0000
00F80000
00F80000
ENDCHAR
STARTCHAR uni1E8A
ENCODING 7818
SWIDTH 696 0
DWIDTH 24 0
BBX 27 30 0 0
BITMAP
0007C000
0007C000
000F8000
000F8000
00000000
07F807E0
03F80FC0
03FC0F80
01FC1F00
01FC3E00
00FE7C00
00FEF800
00FFF800
007FF000
007FE000
003FC000
003F8000
003F8000
007FC000
007FC000
00FFE000
01FFE000
03FFE000
07E7F000
07C7F000
0F87F000
1F03F800
3E03F800
7E01FC00
FC01FC00
ENDCHAR
STARTCHAR uni1E8B
ENCODING 7819
SWIDTH 563 0
DWIDTH 19 0
BBX 22 23 0 0
BITMAP
003E00
003E00
007C00
007C00
000000
0FE0FC
07E1F8
07F3F0
03F3E0
03FFC0
03FF80
01FF00
01FE00
00FE00
00FE00
01FE00
03FF00
07FF00
0FBF80
1F3F80
3F1F80
7E1FC0
FC1FE0
ENDCHAR
STARTCHAR uni1E8C
ENCODING 7820
SWIDTH 696 0
DWIDTH 24 0
BBX 27 30 0 0
BITMAP
003C7800
003C7800
0078F000
0078F000
00000000
07F807E0
03F80FC0
03FC0F80
01FC1F00
01FC3E00
00FE7C00
00FEF800
00FFF800
007FF000
007FE000
003FC000
003F8000
003F8000
007FC000
007FC000
00FFE000
01FFE000
03FFE000
07E7F000
07C7F000
0F87F000
1F03F800
3E03F800
7E01FC00
FC01FC00
ENDCHAR
STARTCHAR uni1E8D
ENCODING 7821
SWIDTH 563 0
DWIDTH 19 0
BBX 22 23 0 0
BITMAP
01E3C0
01E3C0
03C780
03C780
000000
0FE0FC
07E1F8
07F3F0
03F3E0
03FFC0
03FF80
01FF00
01FE00
00FE00
00FE00
01FE00
03FF00
07FF00
0FBF80
1F3F80
3F1F80
7E1FC0
FC1FE0
ENDCHAR
STARTCHAR uni1E8E
ENCODING 7822
SWIDTH 681 0
DWIDTH 23 0
BBX 22 30 5 0
BITMAP
007C00
007C00
00F800
00F800
000000
FE00FC
7E00F8
7E01F0
7F03E0
3F07C0
3F87C0
3F8F80
1F9F00
1FFE00
1FFE00
0FFC00
0FF800
07F000
07F000
07E000
07E000
0FE000
0FE000
0FE000
0FC000
0FC000
1FC000
1FC000
1FC000
1F8000
ENDCHAR
STARTCHAR uni1E8F
ENCODING 7823
SWIDTH 633 0
DWIDTH 21 0
BBX 24 30 1 -7
BITMAP
003E00
003E00
007C00
007C00
000000
1FC01F
1FC03E
1FC07C
1FC07C
0FC0F8
0FE1F0
0FE1F0
0FE3E0
0FE7C0
07E7C0
07EF80
07FF00
07FF00
07FE00
03FC00
03F800
03F800
03F000
03E000
07E000
0FC000
1F8000
3F8000
7F0000
FE0000
ENDCHAR
STARTCHAR uni1E90
ENCODING 7824
SWIDTH 687 0
DWIDTH 23 0
BBX 24 30 2 0
BITMAP
000FC0
001FC0
003DE0
00F0F0
000000
03FFFF
07FFFF
07FFFF
07FFFE
0001FE
0003FC
0007F8
000FF0
001FE0
001FE0
003FC0
007F80
00FF00
01FE00
03FC00
07FC00
07F800
0FF000
1FE000
3FC000
7F8000
7FFFF0
7FFFF0
FFFFF0
FFFFF0
ENDCHAR
STARTCHAR uni1E91
ENCODING 7825
SWIDTH 630 0
DWIDTH 21 0
BBX 21 23 2 0
BITMAP
003F00
007F00
00F780
03C3C0
000000
0FFFF8
0FFFF8
0FFFF0
1FFFF0
000FE0
001FC0
003F80
00FF00
01FE00
03FC00
07F800
0FE000
1FC000
3F8000
7FFFE0
7FFFE0
FFFFC0
FFFFC0
ENDCHAR
STARTCHAR uni1E92
ENCODING 7826
SWIDTH 687 0
DWIDTH 23 0
BBX 24 30 2 -5
BITMAP
03FFFF
07FFFF
07FFFF
07FFFE
0001FE
0003FC
0007F8
000FF0
001FE0
001FE0
003FC0
007F80
00FF00
01FE00
03FC00
07FC00
07F800
0FF000
1FE000
3FC000
7F8000
7FFFF0
7FFFF0
FFFFF0
FFFFF0
000000
00F800
00F800
01F000
01F000
ENDCHAR
STARTCHAR uni1E93
ENCODING 7827
SWIDTH 630 0
DWIDTH 21 0
BBX 21 23 2 -5
BITMAP
0FFFF8
0FFFF8
0FFFF0
1FFFF0
000FE0
001FC0
003F80
00FF00
01FE00
03FC00
07F800
0FE000
1FC000
3F8000
7FFFE0
7FFFE0
FFFFC0
FFFFC0
000000
01F000
01F000
03E000
03E000
ENDCHAR
STARTCHAR uni1E94
ENCODING 7828
SWIDTH 687 0
DWIDTH 23 0
BBX 24 30 2 -5
BITMAP
03FFFF
07FFFF
07FFFF
07FFFE
0001FE
0003FC
0007F8
000FF0
001FE0
001FE0
003FC0
007F80
00FF00
01FE00
03FC00
07FC00
07F800
0FF000
1FE000
3FC000
7F8000
7FFFF0
7FFFF0
FFFFF0
FFFFF0
000000
07FF00
0FFF00
0FFF00
0FFE00
ENDCHAR
STARTCHAR uni1E95
ENCODING 7829
SWIDTH 630 0
DWIDTH 21 0
BBX 21 23 2 -5
BITMAP
0FFFF8
0FFFF8
0FFFF0
1FFFF0
000FE0
001FC0
003F80
00FF00
01FE00
03FC00
07F800
0FE000
1FC000
3F8000
7FFFE0
7FFFE0
FFFFC0
FFFFC0
000000
0FFE00
1FFE00
1FFE00
1FFC00
ENDCHAR
STARTCHAR uni1E96
ENCODING 7830
SWIDTH 675 0
DWIDTH 23 0
BBX 21 31 2 -5
BITMAP
07F000
07F000
07E000
07E000
0FE000
0FE000
0FE000
0FC000
0FC1E0
1FC3F0
1FCFF8
1F9FF8
1F9FF8
1FBFF8
3FF3F8
3F63F0
3FE3F0
3FC7F0
3F87F0
7F07E0
7F07E0
7E0FE0
7E0FE0
7E0FE0
FE0FC0
FE0FC0
000000
07FF00
0FFF00
0FFF00
0FFE00
ENDCHAR
STARTCHAR uni1E97
ENCODING 7831
SWIDTH 437 0
DWIDTH 15 0
BBX 13 28 4 0
BITMAP
3C78
3C78
78F0
78F0
0000
00E0
0FC0
1FC0
1FC0
1FC0
7FF8
FFF8
FFF8
FFF0
3F80
3F80
3F00
7F00
7F00
7F00
7E00
7E00
FE00
FF00
FFE0
FFC0
7FC0
3F80
ENDCHAR
STARTCHAR uni1E98
ENCODING 7832
SWIDTH 878 0
DWIDTH 30 0
BBX 28 24 5 0
BITMAP
000E0000
001F0000
001B0000
001F0000
000E0000
00000000
FC0F81F0
FC1F81E0
FC1F83E0
FC3F83C0
FC3F87C0
FC7F8780
FC7FCF80
FCFFCF00
FCFFDF00
FDEFDE00
FDEFFE00
FFCFFC00
7FCFFC00
7F87F800
7F87F800
7F07F000
7F07F000
7E07E000
ENDCHAR
STARTCHAR uni1E99
ENCODING 7833
SWIDTH 633 0
DWIDTH 21 0
BBX 24 31 1 -7
BITMAP
001C00
003E00
003600
003E00
001C00
000000
1FC01F
1FC03E
1FC07C
1FC07C
0FC0F8
0FE1F0
0FE1F0
0FE3E0
0FE7C0
07E7C0
07EF80
07FF00
07FF00
07FE00
03FC00
03F800
03F800
03F000
03E000
07E000
0FC000
1F8000
3F8000
7F0000
FE0000
ENDCHAR
STARTCHAR uni1EA0
ENCODING 7840
SWIDTH 771 0
DWIDTH 26 0
BBX 25 30 1 -5
BITMAP
0007F000
0007F000
000FF800
000FF800
001FF800
001FF800
003FF800
003DFC00
007DFC00
00F8FC00
00F8FC00
01F0FC00
01F0FE00
03E0FE00
03E07E00
07FFFE00
07FFFE00
0FFFFF00
0FFFFF00
1F003F00
1E003F00
3E003F00
7C003F80
7C003F80
F8001F80
00000000
001F0000
001F0000
003E0000
003E0000
ENDCHAR
STARTCHAR uni1EA1
ENCODING 7841
SWIDTH 681 0
DWIDTH 23 0
BBX 21 23 3 -5
BITMAP
007FF8
01FFF8
03FFF8
07FFF0
0FC3F0
1F83F0
3F07F0
3F07F0
7E0FE0
7E1FE0
FE3FE0
FE37E0
FE7FE0
FFEFC0
FFCFC0
FF8FC0
7F1FC0
3C1FC0
000000
01F000
01F000
03E000
03E000
ENDCHAR
STARTCHAR uni1EA4
ENCODING 7844
SWIDTH 771 0
DWIDTH 26 0
BBX 25 36 1 0
BITMAP
0000FC00
0001F000
0003C000
000F0000
00000000
0000FC00
0001FC00
0003DE00
000F0F00
00000000
00000000
0007F000
0007F000
000FF800
000FF800
001FF800
001FF800
003FF800
003DFC00
007DFC00
00F8FC00
00F8FC00
01F0FC00
01F0FE00
03E0FE00
03E07E00
07FFFE00
07FFFE00
0FFFFF00
0FFFFF00
1F003F00
1E003F00
3E003F00
7C003F80
7C003F80
F8001F80
ENDCHAR
STARTCHAR uni1EA5
ENCODING 7845
SWIDTH 681 0
DWIDTH 23 0
BBX 21 29 3 0
BITMAP
0003F0
0007C0
000F00
003C00
000000
000FC0
001FC0
003DE0
00F0F0
000000
000000
007FF8
01FFF8
03FFF8
07FFF0
0FC3F0
1F83F0
3F07F0
3F07F0
7E0FE0
7E1FE0
FE3FE0
FE37E0
FE7FE0
FFEFC0
FFCFC0
FF8FC0
7F1FC0
3C1FC0
ENDCHAR
STARTCHAR uni1EA6
ENCODING 7846
SWIDTH 771 0
DWIDTH 26 0
BBX 25 36 1 0
BITMAP
001F8000
00078000
0003C000
0001E000
00000000
0000FC00
0001FC00
0003DE00
000F0F00
00000000
00000000
0007F000
0007F000
000FF800
000FF800
001FF800
001FF800
003FF800
003DFC00
007DFC00
00F8FC00
00F8FC00
01F0FC00
01F0FE00
03E0FE00
03E07E00
07FFFE00
07FFFE00
0FFFFF00
0FFFFF00
1F003F00
1E003F00
3E003F00
7C003F80
7C003F80
F8001F80
ENDCHAR
STARTCHAR uni1EA7
ENCODING 7847
SWIDTH 681 0
DWIDTH 23 0
BBX 21 29 3 0
BITMAP
00FC00
003C00
001E00
000F00
000000
000FC0
001FC0
003DE0
00F0F0
000000
000000
007FF8
01FFF8
03FFF8
07FFF0
0FC3F0
1F83F0
3F07F0
3F07F0
7E0FE0
7E1FE0
FE3FE0
FE37E0
FE7FE0
FFEFC0
FFCFC0
FF8FC0
7F1FC0
3C1FC0
ENDCHAR
STARTCHAR uni1EAA
ENCODING 7850
SWIDTH 771 0
DWIDTH 26 0
BBX 25 36 1 0
BITMAP
00078E00
001FFC00
001FFC00
0038F800
00000000
0000FC00
0001FC00
0003DE00
000F0F00
00000000
00000000
0007F000
0007F000
000FF800
000FF800
001FF800
001FF800
003FF800
003DFC00
007DFC00
00F8FC00
00F8FC00
01F0FC00
01F0FE00
03E0FE00
03E07E00
07FFFE00
07FFFE00
0FFFFF00
0FFFFF00
1F003F00
1E003F00
3E003F00
7C003F80
7C003F80
F8001F80
ENDCHAR
STARTCHAR uni1EAB
ENCODING 7851
SWIDTH 681 0
DWIDTH 23 0
BBX 21 29 3 0
BITMAP
003C70
00FFE0
00FFE0
01C7C0
000000
000FC0
001FC0
003DE0
00F0F0
000000
000000
007FF8
01FFF8
03FFF8
07FFF0
0FC3F0
1F83F0
3F07F0
3F07F0
7E0FE0
7E1FE0
FE3FE0
FE37E0
FE7FE0
FFEFC0
FFCFC0
FF8FC0
7F1FC0
3C1FC0
ENDCHAR
STARTCHAR uni1EAC
ENCODING 7852
SWIDTH 771 0
DWIDTH 26 0
BBX 25 35 1 -5
BITMAP
0007E000
000FE000
001EF000
00787800
00000000
0007F000
0007F000
000FF800
000FF800
001FF800
001FF800
003FF800
003DFC00
007DFC00
00F8FC00
00F8FC00
01F0FC00
01F0FE00
03E0FE00
03E07E00
07FFFE00
07FFFE00
0FFFFF00
0FFFFF00
1F003F00
1E003F00
3E003F00
7C003F80
7C003F80
F8001F80
00000000
001F0000
001F0000
003E0000
003E0000
ENDCHAR
STARTCHAR uni1EAD
ENCODING 7853
SWIDTH 681 0
DWIDTH 23 0
BBX 21 28 3 -5
BITMAP
003F00
007F00
00F780
03C3C0
000000
007FF8
01FFF8
03FFF8
07FFF0
0FC3F0
1F83F0
3F07F0
3F07F0
7E0FE0
7E1FE0
FE3FE0
FE37E0
FE7FE0
FFEFC0
FFCFC0
FF8FC0
7F1FC0
3C1FC0
000000
01F000
01F000
03E000
03E000
ENDCHAR
STARTCHAR uni1EAE
ENCODING 7854
SWIDTH 771 0
DWIDTH 26 0
BBX 25 35 1 0
BITMAP
0001F800
0003E000
00078000
001E0000
00000000
00707800
007FF000
003FE000
001F8000
00000000
0007F000
0007F000
000FF800
000FF800
001FF800
001FF800
003FF800
003DFC00
007DFC00
00F8FC00
00F8FC00
01F0FC00
01F0FE00
03E0FE00
03E07E00
07FFFE00
07FFFE00
0FFFFF00
0FFFFF00
1F003F00
1E003F00
3E003F00
7C003F80
7C003F80
F8001F80
ENDCHAR
STARTCHAR uni1EAF
ENCODING 7855
SWIDTH 681 0
DWIDTH 23 0
BBX 21 28 3 0
BITMAP
0007E0
000F80
001E00
007800
000000
01C1E0
01FFC0
00FF80
007E00
000000
007FF8
01FFF8
03FFF8
07FFF0
0FC3F0
1F83F0
3F07F0
3F07F0
7E0FE0
7E1FE0
FE3FE0
FE37E0
FE7FE0
FFEFC0
FFCFC0
FF8FC0
7F1FC0
3C1FC0
ENDCHAR
STARTCHAR uni1EB0
ENCODING 7856
SWIDTH 771 0
DWIDTH 26 0
BBX 25 35 1 0
BITMAP
007E0000
001E0000
000F0000
00078000
00000000
00707800
007FF000
003FE000
001F8000
00000000
0007F000
0007F000
000FF800
000FF800
001FF800
001FF800
003FF800
003DFC00
007DFC00
00F8FC00
00F8FC00
01F0FC00
01F0FE00
03E0FE00
03E07E00
07FFFE00
07FFFE00
0FFFFF00
0FFFFF00
1F003F00
1E003F00
3E003F00
7C003F80
7C003F80
F8001F80
ENDCHAR
STARTCHAR uni1EB1
ENCODING 7857
SWIDTH 681 0
DWIDTH 23 0
BBX 21 28 3 0
BITMAP
01F800
007800
003C00
001E00
000000
01C1E0
01FFC0
00FF80
007E00
000000
007FF8
01FFF8
03FFF8
07FFF0
0FC3F0
1F83F0
3F07F0
3F07F0
7E0FE0
7E1FE0
FE3FE0
FE37E0
FE7FE0
FFEFC0
FFCFC0
FF8FC0
7F1FC0
3C1FC0
ENDCHAR
STARTCHAR uni1EB4
ENCODING 7860
SWIDTH 771 0
DWIDTH 26 0
BBX 25 35 1 0
BITMAP
001E3800
007FF000
007FF000
00E3E000
00000000
00707800
007FF000
003FE000
001F8000
00000000
0007F000
0007F000
000FF800
000FF800
001FF800
001FF800
003FF800
003DFC00
007DFC00
00F8FC00
00F8FC00
01F0FC00
01F0FE00
03E0FE00
03E07E00
07FFFE00
07FFFE00
0FFFFF00
0FFFFF00
1F003F00
1E003F00
3E003F00
7C003F80
7C003F80
F8001F80
ENDCHAR
STARTCHAR uni1EB5
ENCODING 7861
SWIDTH 681 0
DWIDTH 23 0
BBX 21 28 3 0
BITMAP
0078E0
01FFC0
01FFC0
038F80
000000
01C1E0
01FFC0
00FF80
007E00
000000
007FF8
01FFF8
03FFF8
07FFF0
0FC3F0
1F83F0
3F07F0
3F07F0
7E0FE0
7E1FE0
FE3FE0
FE37E0
FE7FE0
FFEFC0
FFCFC0
FF8FC0
7F1FC0
3C1FC0
ENDCHAR
STARTCHAR uni1EB6
ENCODING 7862
SWIDTH 771 0
DWIDTH 26 0
BBX 25 35 1 -5
BITMAP
00707800
007FF000
003FE000
001F8000
00000000
0007F000
0007F000
000FF800
000FF800
001FF800
001FF800
003FF800
003DFC00
007DFC00
00F8FC00
00F8FC00
01F0FC00
01F0FE00
03E0FE00
03E07E00
07FFFE00
07FFFE00
0FFFFF00
0FFFFF00
1F003F00
1E003F00
3E003F00
7C003F80
7C003F80
F8001F80
00000000
001F0000
001F0000
003E0000
003E0000
ENDCHAR
STARTCHAR uni1EB7
ENCODING 7863
SWIDTH 681 0
DWIDTH 23 0
BBX 21 28 3 -5
BITMAP
01C1E0
01FFC0
00FF80
007E00
000000
007FF8
01FFF8
03FFF8
07FFF0
0FC3F0
1F83F0
3F07F0
3F07F0
7E0FE0
7E1FE0
FE3FE0
FE37E0
FE7FE0
FFEFC0
FFCFC0
FF8FC0
7F1FC0
3C1FC0
000000
01F000
01F000
03E000
03E000
ENDCHAR
STARTCHAR uni1EB8
ENCODING 7864
SWIDTH 642 0
DWIDTH 22 0
BBX 22 30 3 -5
BITMAP
07FFFC
07FFFC
07FFF8
0FFFF8
0FE000
0FE000
0FC000
0FC000
1FC000
1FC000
1FFFC0
1FFFC0
1FFF80
3FFF80
3F8000
3F8000
3F0000
3F0000
7F0000
7F0000
7F0000
7FFFE0
7FFFC0
FFFFC0
FFFFC0
000000
01F000
01F000
03E000
03E000
ENDCHAR
STARTCHAR uni1EB9
ENCODING 7865
SWIDTH 612 0
DWIDTH 21 0
BBX 18 23 3 -5
BITMAP
007E00
01FF80
07FFC0
0FFFC0
1F8FC0
3F0FC0
3E1F80
7E3F00
7FFE00
FFFC00
FFE000
FC0040
FE00C0
FF07C0
FFFF80
7FFF80
3FFF00
0FF000
000000
03E000
03E000
07C000
07C000
ENDCHAR
STARTCHAR uni1EBC
ENCODING 7868
SWIDTH 642 0
DWIDTH 22 0
BBX 22 30 3 0
BITMAP
00F1C0
03FF80
03FF80
071F00
000000
07FFFC
07FFFC
07FFF8
0FFFF8
0FE000
0FE000
0FC000
0FC000
1FC000
1FC000
1FFFC0
1FFFC0
1FFF80
3FFF80
3F8000
3F8000
3F0000
3F0000
7F0000
7F0000
7F0000
7FFFE0
7FFFC0
FFFFC0
FFFFC0
ENDCHAR
STARTCHAR uni1EBD
ENCODING 7869
SWIDTH 612 0
DWIDTH 21 0
BBX 18 23 3 0
BITMAP
01E380
07FF00
07FF00
0E3E00
000000
007E00
01FF80
07FFC0
0FFFC0
1F8FC0
3F0FC0
3E1F80
7E3F00
7FFE00
FFFC00
FFE000
FC0040
FE00C0
FF07C0
FFFF80
7FFF80
3FFF00
0FF000
ENDCHAR
STARTCHAR uni1EBE
ENCODING 7870
SWIDTH 642 0
DWIDTH 22 0
BBX 22 36 3 0
BITMAP
0007E0
000F80
001E00
007800
000000
001F80
003F80
007BC0
01E1E0
000000
000000
07FFFC
07FFFC
07FFF8
0FFFF8
0FE000
0FE000
0FC000
0FC000
1FC000
1FC000
1FFFC0
1FFFC0
1FFF80
3FFF80
3F8000
3F8000
3F0000
3F0000
7F0000
7F0000
7F0000
7FFFE0
7FFFC0
FFFFC0
FFFFC0
ENDCHAR
STARTCHAR uni1EBF
ENCODING 7871
SWIDTH 612 0
DWIDTH 21 0
BBX 19 29 3 0
BITMAP
000FC0
001F00
003C00
00F000
000000
001F80
003F80
007BC0
01E1E0
000000
000000
007E00
01FF80
07FFC0
0FFFC0
1F8FC0
3F0FC0
3E1F80
7E3F00
7FFE00
FFFC00
FFE000
FC0040
FE00C0
FF07C0
FFFF80
7FFF80
3FFF00
0FF000
ENDCHAR
STARTCHAR uni1EC0
ENCODING 7872
SWIDTH 642 0
DWIDTH 22 0
BBX 22 36 3 0
BITMAP
00FC00
003C00
001E00
000F00
000000
001F80
003F80
007BC0
01E1E0
000000
000000
07FFFC
07FFFC
07FFF8
0FFFF8
0FE000
0FE000
0FC000
0FC000
1FC000
1FC000
1FFFC0
1FFFC0
1FFF80
3FFF80
3F8000
3F8000
3F0000
3F0000
7F0000
7F0000
7F0000
7FFFE0
7FFFC0
FFFFC0
FFFFC0
ENDCHAR
STARTCHAR uni1EC1
ENCODING 7873
SWIDTH 612 0
DWIDTH 21 0
BBX 19 29 3 0
BITMAP
01F800
007800
003C00
001E00
000000
001F80
003F80
007BC0
01E1E0
000000
000000
007E00
01FF80
07FFC0
0FFFC0
1F8FC0
3F0FC0
3E1F80
7E3F00
7FFE00
FFFC00
FFE000
FC0040
FE00C0
FF07C0
FFFF80
7FFF80
3FFF00
0FF000
ENDCHAR
STARTCHAR uni1EC4
ENCODING 7876
SWIDTH 642 0
DWIDTH 22 0
BBX 22 36 3 0
BITMAP
0078E0
01FFC0
01FFC0
038F80
000000
001F80
003F80
007BC0
01E1E0
000000
000000
07FFFC
07FFFC
07FFF8
0FFFF8
0FE000
0FE000
0FC000
0FC000
1FC000
1FC000
1FFFC0
1FFFC0
1FFF80
3FFF80
3F8000
3F8000
3F0000
3F0000
7F0000
7F0000
7F0000
7FFFE0
7FFFC0
FFFFC0
FFFFC0
ENDCHAR
STARTCHAR uni1EC5
ENCODING 7877
SWIDTH 612 0
DWIDTH 21 0
BBX 19 29 3 0
BITMAP
0078E0
01FFC0
01FFC0
038F80
000000
001F80
003F80
007BC0
01E1E0
000000
000000
007E00
01FF80
07FFC0
0FFFC0
1F8FC0
3F0FC0
3E1F80
7E3F00
7FFE00
FFFC00
FFE000
FC0040
FE00C0
FF07C0
FFFF80
7FFF80
3FFF00
0FF000
ENDCHAR
STARTCHAR uni1EC6
ENCODING 7878
SWIDTH 642 0
DWIDTH 22 0
BBX 22 35 3 -5
BITMAP
007E00
00FE00
01EF00
078780
000000
07FFFC
07FFFC
07FFF8
0FFFF8
0FE000
0FE000
0FC000
0FC000
1FC000
1FC000
1FFFC0
1FFFC0
1FFF80
3FFF80
3F8000
3F8000
3F0000
3F0000
7F0000
7F0000
7F0000
7FFFE0
7FFFC0
FFFFC0
FFFFC0
000000
01F000
01F000
03E000
03E000
ENDCHAR
STARTCHAR uni1EC7
ENCODING 7879
SWIDTH 612 0
DWIDTH 21 0
BBX 18 28 3 -5
BITMAP
00FC00
01FC00
03DE00
0F0F00
000000
007E00
01FF80
07FFC0
0FFFC0
1F8FC0
3F0FC0
3E1F80
7E3F00
7FFE00
FFFC00
FFE000
FC0040
FE00C0
FF07C0
FFFF80
7FFF80
3FFF00
0FF000
000000
03E000
03E000
07C000
07C000
ENDCHAR
STARTCHAR uni1ECA
ENCODING 7882
SWIDTH 361 0
DWIDTH 12 0
BBX 11 30 3 -5
BITMAP
07E0
0FE0
0FE0
0FC0
0FC0
0FC0
1FC0
1FC0
1F80
1F80
1F80
1F80
3F80
3F00
3F00
3F00
3F00
7F00
7F00
7E00
7E00
7E00
FE00
FE00
FC00
0000
3E00
3E00
7C00
7C00
ENDCHAR
STARTCHAR uni1ECB
ENCODING 7883
SWIDTH 343 0
DWIDTH 12 0
BBX 12 31 2 -5
BITMAP
07F0
07F0
07E0
07E0
0FE0
0000
0000
0000
0FC0
1FC0
1FC0
1FC0
1F80
1F80
3F80
3F80
3F80
3F00
3F00
7F00
7F00
7F00
7E00
7E00
FE00
FE00
0000
3E00
3E00
7C00
7C00
ENDCHAR
STARTCHAR uni1ECC
ENCODING 7884
SWIDTH 855 0
DWIDTH 29 0
BBX 27 30 3 -5
BITMAP
000FF800
003FFE00
00FFFF80
03FFFFC0
07F83FC0
0FE01FE0
1FC00FE0
1F800FE0
3F800FE0
3F000FE0
7F000FE0
7F000FE0
FE000FE0
FE000FE0
FE001FC0
FE001FC0
FE003F80
FE003F80
FF007F00
7F00FE00
7FC3FC00
3FFFF800
1FFFE000
0FFFC000
01FE0000
00000000
003E0000
003E0000
007C0000
007C0000
ENDCHAR
STARTCHAR uni1ECD
ENCODING 7885
SWIDTH 663 0
DWIDTH 23 0
BBX 21 23 3 -5
BITMAP
007F80
01FFE0
07FFF0
0FFFF0
1FC7F8
3F83F8
3F03F8
7E03F8
7E03F0
FE03F0
FE07F0
FE07E0
FE0FE0
FF1FC0
FFFF80
7FFE00
3FFC00
0FE000
000000
01F000
01F000
03E000
03E000
ENDCHAR
STARTCHAR uni1ED0
ENCODING 7888
SWIDTH 855 0
DWIDTH 29 0
BBX 27 36 3 0
BITMAP
0000FC00
0001F000
0003C000
000F0000
00000000
0003F000
0007F000
000F7800
003C3C00
00000000
00000000
000FF800
003FFE00
00FFFF80
03FFFFC0
07F83FC0
0FE01FE0
1FC00FE0
1F800FE0
3F800FE0
3F000FE0
7F000FE0
7F000FE0
FE000FE0
FE000FE0
FE001FC0
FE001FC0
FE003F80
FE003F80
FF007F00
7F00FE00
7FC3FC00
3FFFF800
1FFFE000
0FFFC000
01FE0000
ENDCHAR
STARTCHAR uni1ED1
ENCODING 7889
SWIDTH 663 0
DWIDTH 23 0
BBX 21 29 3 0
BITMAP
0007E0
000F80
001E00
007800
000000
000FC0
001FC0
003DE0
00F0F0
000000
000000
007F80
01FFE0
07FFF0
0FFFF0
1FC7F8
3F83F8
3F03F8
7E03F8
7E03F0
FE03F0
FE07F0
FE07E0
FE0FE0
FF1FC0
FFFF80
7FFE00
3FFC00
0FE000
ENDCHAR
STARTCHAR uni1ED2
ENCODING 7890
SWIDTH 855 0
DWIDTH 29 0
BBX 27 36 3 0
BITMAP
003F0000
000F0000
00078000
0003C000
00000000
0003F000
0007F000
000F7800
003C3C00
00000000
00000000
000FF800
003FFE00
00FFFF80
03FFFFC0
07F83FC0
0FE01FE0
1FC00FE0
1F800FE0
3F800FE0
3F000FE0
7F000FE0
7F000FE0
FE000FE0
FE000FE0
FE001FC0
FE001FC0
FE003F80
FE003F80
FF007F00
7F00FE00
7FC3FC00
3FFFF800
1FFFE000
0FFFC000
01FE0000
ENDCHAR
STARTCHAR uni1ED3
ENCODING 7891
SWIDTH 663 0
DWIDTH 23 0
BBX 21 29 3 0
BITMAP
00FC00
003C00
001E00
000F00
000000
000FC0
001FC0
003DE0
00F0F0
000000
000000
007F80
01FFE0
07FFF0
0FFFF0
1FC7F8
3F83F8
3F03F8
7E03F8
7E03F0
FE03F0
FE07F0
FE07E0
FE0FE0
FF1FC0
FFFF80
7FFE00
3FFC00
0FE000
ENDCHAR
STARTCHAR uni1ED6
ENCODING 7894
SWIDTH 855 0
DWIDTH 29 0
BBX 27 36 3 0
BITMAP
000F1C00
003FF800
003FF800
0071F000
00000000
0003F000
0007F000
000F7800
003C3C00
00000000
00000000
000FF800
003FFE00
00FFFF80
03FFFFC0
07F83FC0
0FE01FE0
1FC00FE0
1F800FE0
3F800FE0
3F000FE0
7F000FE0
7F000FE0
FE000FE0
FE000FE0
FE001FC0
FE001FC0
FE003F80
FE003F80
FF007F00
7F00FE00
7FC3FC00
3FFFF800
1FFFE000
0FFFC000
01FE0000
ENDCHAR
STARTCHAR uni1ED7
ENCODING 7895
SWIDTH 663 0
DWIDTH 23 0
BBX 21 29 3 0
BITMAP
003C70
00FFE0
00FFE0
01C7C0
000000
000FC0
001FC0
003DE0
00F0F0
000000
000000
007F80
01FFE0
07FFF0
0FFFF0
1FC7F8
3F83F8
3F03F8
7E03F8
7E03F0
FE03F0
FE07F0
FE07E0
FE0FE0
FF1FC0
FFFF80
7FFE00
3FFC00
0FE000
ENDCHAR
STARTCHAR uni1ED8
ENCODING 7896
SWIDTH 855 0
DWIDTH 29 0
BBX 27 35 3 -5
BITMAP
0007E000
000FE000
001EF000
00787800
00000000
000FF800
003FFE00
00FFFF80
03FFFFC0
07F83FC0
0FE01FE0
1FC00FE0
1F800FE0
3F800FE0
3F000FE0
7F000FE0
7F000FE0
FE000FE0
FE000FE0
FE001FC0
FE001FC0
FE003F80
FE003F80
FF007F00
7F00FE00
7FC3FC00
3FFFF800
1FFFE000
0FFFC000
01FE0000
00000000
003E0000
003E0000
007C0000
007C0000
ENDCHAR
STARTCHAR uni1ED9
ENCODING 7897
SWIDTH 663 0
DWIDTH 23 0
BBX 21 28 3 -5
BITMAP
003F00
007F00
00F780
03C3C0
000000
007F80
01FFE0
07FFF0
0FFFF0
1FC7F8
3F83F8
3F03F8
7E03F8
7E03F0
FE03F0
FE07F0
FE07E0
FE0FE0
FF1FC0
FFFF80
7FFE00
3FFC00
0FE000
000000
01F000
01F000
03E000
03E000
ENDCHAR
STARTCHAR uni1EDA
ENCODING 7898
SWIDTH 855 0
DWIDTH 29 0
BBX 33 30 3 0
BITMAP
00001F8000
00003E0000
0000780000
0001E00000
0000000000
000FF83F80
003FFE3F80
00FFFFBF00
03FFFFFF00
07F83FFF00
0FE01FFF00
1FC00FFF00
1F800FFE00
3F800FFE00
3F000FFC00
7F000FF800
7F000FE000
FE000FE000
FE000FE000
FE001FC000
FE001FC000
FE003F8000
FE003F8000
FF007F0000
7F00FE0000
7FC3FC0000
3FFFF80000
1FFFE00000
0FFFC00000
01FE000000
ENDCHAR
STARTCHAR uni1EDB
ENCODING 7899
SWIDTH 663 0
DWIDTH 23 0
BBX 28 23 3 0
BITMAP
0000FC00
0001F000
0003C000
000F0000
00000000
007F87F0
01FFE7F0
07FFF7E0
0FFFF7E0
1FC7FFE0
3F83FFE0
3F03FFE0
7E03FBC0
7E03F3C0
FE03FF80
FE07FF00
FE07F800
FE0FE000
FF1FC000
FFFF8000
7FFE0000
3FFC0000
0FE00000
ENDCHAR
STARTCHAR uni1EDC
ENCODING 7900
SWIDTH 855 0
DWIDTH 29 0
BBX 33 30 3 0
BITMAP
0003F00000
0000F00000
0000780000
00003C0000
0000000000
000FF83F80
003FFE3F80
00FFFFBF00
03FFFFFF00
07F83FFF00
0FE01FFF00
1FC00FFF00
1F800FFE00
3F800FFE00
3F000FFC00
7F000FF800
7F000FE000
FE000FE000
FE000FE000
FE001FC000
FE001FC000
FE003F8000
FE003F8000
FF007F0000
7F00FE0000
7FC3FC0000
3FFFF80000
1FFFE00000
0FFFC00000
01FE000000
ENDCHAR
STARTCHAR uni1EDD
ENCODING 7901
SWIDTH 663 0
DWIDTH 23 0
BBX 28 23 3 0
BITMAP
001F8000
00078000
0003C000
0001E000
00000000
007F87F0
01FFE7F0
07FFF7E0
0FFFF7E0
1FC7FFE0
3F83FFE0
3F03FFE0
7E03FBC0
7E03F3C0
FE03FF80
FE07FF00
FE07F800
FE0FE000
FF1FC000
FFFF8000
7FFE0000
3FFC0000
0FE00000
ENDCHAR
STARTCHAR uni1EE0
ENCODING 7904
SWIDTH 855 0
DWIDTH 29 0
BBX 33 30 3 0
BITMAP
0001E38000
0007FF0000
0007FF0000
000E3E0000
0000000000
000FF83F80
003FFE3F80
00FFFFBF00
03FFFFFF00
07F83FFF00
0FE01FFF00
1FC00FFF00
1F800FFE00
3F800FFE00
3F000FFC00
7F000FF800
7F000FE000
FE000FE000
FE000FE000
FE001FC000
FE001FC000
FE003F8000
FE003F8000
FF007F0000
7F00FE0000
7FC3FC0000
3FFFF80000
1FFFE00000
0FFFC00000
01FE000000
ENDCHAR
STARTCHAR uni1EE1
ENCODING 7905
SWIDTH 663 0
DWIDTH 23 0
BBX 28 23 3 0
BITMAP
000F1C00
003FF800
003FF800
0071F000
00000000
007F87F0
01FFE7F0
07FFF7E0
0FFFF7E0
1FC7FFE0
3F83FFE0
3F03FFE0
7E03FBC0
7E03F3C0
FE03FF80
FE07FF00
FE07F800
FE0FE000
FF1FC000
FFFF8000
7FFE0000
3FFC0000
0FE00000
ENDCHAR
STARTCHAR uni1EE2
ENCODING 7906
SWIDTH 855 0
DWIDTH 29 0
BBX 33 30 3 -5
BITMAP
000FF83F80
003FFE3F80
00FFFFBF00
03FFFFFF00
07F83FFF00
0FE01FFF00
1FC00FFF00
1F800FFE00
3F800FFE00
3F000FFC00
7F000FF800
7F000FE000
FE000FE000
FE000FE000
FE001FC000
FE001FC000
FE003F8000
FE003F8000
FF007F0000
7F00FE0000
7FC3FC0000
3FFFF80000
1FFFE00000
0FFFC00000
01FE000000
0000000000
001F000000
001F000000
003E000000
003E000000
ENDCHAR
STARTCHAR uni1EE3
ENCODING 7907
SWIDTH 663 0
DWIDTH 23 0
BBX 28 23 3 -5
BITMAP
007F87F0
01FFE7F0
07FFF7E0
0FFFF7E0
1FC7FFE0
3F83FFE0
3F03FFE0
7E03FBC0
7E03F3C0
FE03FF80
FE07FF00
FE07F800
FE0FE000
FF1FC000
FFFF8000
7FFE0000
3FFC0000
0FE00000
00000000
00F80000
00F80000
01F00000
01F00000
ENDCHAR
STARTCHAR uni1EE4
ENCODING 7908
SWIDTH 759 0
DWIDTH 26 0
BBX 24 30 4 -5
BITMAP
1FC03F
1F803F
1F803F
1F803E
3F807E
3F807E
3F007E
3F007E
3F007C
7F00FC
7F00FC
7E00FC
7E00FC
7E00F8
FE01F8
FE01F8
FE01F8
FE01F0
FE03F0
FE03E0
7F07E0
7FFFC0
3FFF80
1FFF00
03FC00
000000
00F800
00F800
01F000
01F000
ENDCHAR
STARTCHAR uni1EE5
ENCODING 7909
SWIDTH 675 0
DWIDTH 23 0
BBX 21 23 3 -5
BITMAP
1F83F8
1F83F8
3F83F0
3F83F0
3F07F0
3F07F0
3F07F0
7F0FE0
7F1FE0
7E1FE0
7E37E0
FE7FE0
FEEFC0
FFCFC0
FFCFC0
FF9FC0
7F1FC0
3C1F80
000000
01F000
01F000
03E000
03E000
ENDCHAR
STARTCHAR uni1EE8
ENCODING 7912
SWIDTH 759 0
DWIDTH 26 0
BBX 31 30 4 0
BITMAP
00007E00
0000F800
0001E000
00078000
00000000
1FC03FFE
1F803FFE
1F803FFC
1F803EFC
3F807FFC
3F807FFC
3F007FFC
3F007E78
3F007C78
7F00FFF0
7F00FFE0
7E00FF00
7E00FC00
7E00F800
FE01F800
FE01F800
FE01F800
FE01F000
FE03F000
FE03E000
7F07E000
7FFFC000
3FFF8000
1FFF0000
03FC0000
ENDCHAR
STARTCHAR uni1EE9
ENCODING 7913
SWIDTH 675 0
DWIDTH 23 0
BBX 28 23 3 0
BITMAP
0001F800
0003E000
00078000
001E0000
00000000
1F83FFF0
1F83FFF0
3F83F7E0
3F83F7E0
3F07FFE0
3F07FFE0
3F07FFE0
7F0FE3C0
7F1FE3C0
7E1FFF80
7E37FF00
FE7FF800
FEEFC000
FFCFC000
FFCFC000
FF9FC000
7F1FC000
3C1F8000
ENDCHAR
STARTCHAR uni1EEA
ENCODING 7914
SWIDTH 759 0
DWIDTH 26 0
BBX 31 30 4 0
BITMAP
000FC000
0003C000
0001E000
0000F000
00000000
1FC03FFE
1F803FFE
1F803FFC
1F803EFC
3F807FFC
3F807FFC
3F007FFC
3F007E78
3F007C78
7F00FFF0
7F00FFE0
7E00FF00
7E00FC00
7E00F800
FE01F800
FE01F800
FE01F800
FE01F000
FE03F000
FE03E000
7F07E000
7FFFC000
3FFF8000
1FFF0000
03FC0000
ENDCHAR
STARTCHAR uni1EEB
ENCODING 7915
SWIDTH 675 0
DWIDTH 23 0
BBX 28 23 3 0
BITMAP
003F0000
000F0000
00078000
0003C000
00000000
1F83FFF0
1F83FFF0
3F83F7E0
3F83F7E0
3F07FFE0
3F07FFE0
3F07FFE0
7F0FE3C0
7F1FE3C0
7E1FFF80
7E37FF00
FE7FF800
FEEFC000
FFCFC000
FFCFC000
FF9FC000
7F1FC000
3C1F8000
ENDCHAR
STARTCHAR uni1EEE
ENCODING 7918
SWIDTH 759 0
DWIDTH 26 0
BBX 31 30 4 0
BITMAP
0003C700
000FFE00
000FFE00
001C7C00
00000000
1FC03FFE
1F803FFE
1F803FFC
1F803EFC
3F807FFC
3F807FFC
3F007FFC
3F007E78
3F007C78
7F00FFF0
7F00FFE0
7E00FF00
7E00FC00
7E00F800
FE01F800
FE01F800
FE01F800
FE01F000
FE03F000
FE03E000
7F07E000
7FFFC000
3FFF8000
1FFF0000
03FC0000
ENDCHAR
STARTCHAR uni1EEF
ENCODING 7919
SWIDTH 675 0
DWIDTH 23 0
BBX 28 23 3 0
BITMAP
000F1C00
003FF800
003FF800
0071F000
00000000
1F83FFF0
1F83FFF0
3F83F7E0
3F83F7E0
3F07FFE0
3F07FFE0
3F07FFE0
7F0FE3C0
7F1FE3C0
7E1FFF80
7E37FF00
FE7FF800
FEEFC000
FFCFC000
FFCFC000
FF9FC000
7F1FC000
3C1F8000
ENDCHAR
STARTCHAR uni1EF0
ENCODING 7920
SWIDTH 759 0
DWIDTH 26 0
BBX 31 30 4 -5
BITMAP
1FC03FFE
1F803FFE
1F803FFC
1F803EFC
3F807FFC
3F807FFC
3F007FFC
3F007E78
3F007C78
7F00FFF0
7F00FFE0
7E00FF00
7E00FC00
7E00F800
FE01F800
FE01F800
FE01F800
FE01F000
FE03F000
FE03E000
7F07E000
7FFFC000
3FFF8000
1FFF0000
03FC0000
00000000
007C0000
007C0000
00F80000
00F80000
ENDCHAR
STARTCHAR uni1EF1
ENCODING 7921
SWIDTH 675 0
DWIDTH 23 0
BBX 28 23 3 -5
BITMAP
1F83FFF0
1F83FFF0
3F83F7E0
3F83F7E0
3F07FFE0
3F07FFE0
3F07FFE0
7F0FE3C0
7F1FE3C0
7E1FFF80
7E37FF00
FE7FF800
FEEFC000
FFCFC000
FFCFC000
FF9FC000
7F1FC000
3C1F8000
00000000
00F80000
00F80000
01F00000
01F00000
ENDCHAR
STARTCHAR Ygrave
ENCODING 7922
SWIDTH 681 0
DWIDTH 23 0
BBX 22 30 5 0
BITMAP
07E000
01E000
00F000
007800
000000
FE00FC
7E00F8
7E01F0
7F03E0
3F07C0
3F87C0
3F8F80
1F9F00
1FFE00
1FFE00
0FFC00
0FF800
07F000
07F000
07E000
07E000
0FE000
0FE000
0FE000
0FC000
0FC000
1FC000
1FC000
1FC000
1F8000
ENDCHAR
STARTCHAR ygrave
ENCODING 7923
SWIDTH 633 0
DWIDTH 21 0
BBX 24 30 1 -7
BITMAP
01F800
007800
003C00
001E00
000000
1FC01F
1FC03E
1FC07C
1FC07C
0FC0F8
0FE1F0
0FE1F0
0FE3E0
0FE7C0
07E7C0
07EF80
07FF00
07FF00
07FE00
03FC00
03F800
03F800
03F000
03E000
07E000
0FC000
1F8000
3F8000
7F0000
FE0000
ENDCHAR
STARTCHAR uni1EF4
ENCODING 7924
SWIDTH 681 0
DWIDTH 23 0
BBX 22 30 5 -5
BITMAP
FE00FC
7E00F8
7E01F0
7F03E0
3F07C0
3F87C0
3F8F80
1F9F00
1FFE00
1FFE00
0FFC00
0FF800
07F000
07F000
07E000
07E000
0FE000
0FE000
0FE000
0FC000
0FC000
1FC000
1FC000
1FC000
1F8000
000000
03E000
03E000
07C000
07C000
ENDCHAR
STARTCHAR uni1EF5
ENCODING 7925
SWIDTH 633 0
DWIDTH 21 0
BBX 24 30 1 -12
BITMAP
1FC01F
1FC03E
1FC07C
1FC07C
0FC0F8
0FE1F0
0FE1F0
0FE3E0
0FE7C0
07E7C0
07EF80
07FF00
07FF00
07FE00
03FC00
03F800
03F800
03F000
03E000
07E000
0FC000
1F8000
3F8000
7F0000
FE0000
000000
03E000
03E000
07C000
07C000
ENDCHAR
STARTCHAR uni1EF8
ENCODING 7928
SWIDTH 681 0
DWIDTH 23 0
BBX 22 30 5 0
BITMAP
01E380
07FF00
07FF00
0E3E00
000000
FE00FC
7E00F8
7E01F0
7F03E0
3F07C0
3F87C0
3F8F80
1F9F00
1FFE00
1FFE00
0FFC00
0FF800
07F000
07F000
07E000
07E000
0FE000
0FE000
0FE000
0FC000
0FC000
1FC000
1FC000
1FC000
1F8000
ENDCHAR
STARTCHAR uni1EF9
ENCODING 7929
SWIDTH 633 0
DWIDTH 21 0
BBX 24 30 1 -7
BITMAP
0078E0
01FFC0
01FFC0
038F80
000000
1FC01F
1FC03E
1FC07C
1FC07C
0FC0F8
0FE1F0
0FE1F0
0FE3E0
0FE7C0
07E7C0
07EF80
07FF00
07FF00
07FE00
03FC00
03F800
03F800
03F000
03E000
07E000
0FC000
1F8000
3F8000
7F0000
FE0000
ENDCHAR
STARTCHAR uni2000
ENCODING 8192
SWIDTH 500 0
DWIDTH 17 0
BBX 1 1 0 0
BITMAP
00
ENDCHAR
STARTCHAR uni2001
ENCODING 8193
SWIDTH 1000 0
DWIDTH 33 0
BBX 1 1 0 0
BITMAP
00
ENDCHAR
STARTCHAR uni2002
ENCODING 8194
SWIDTH 500 0
DWIDTH 17 0
BBX 1 1 0 0
BITMAP
00
ENDCHAR
STARTCHAR uni2003
ENCODING 8195
SWIDTH 1000 0
DWIDTH 33 0
BBX 1 1 0 0
BITMAP
00
ENDCHAR
STARTCHAR uni2004
ENCODING 8196
SWIDTH 333 0
DWIDTH 11 0
BBX 1 1 0 0
BITMAP
00
ENDCHAR
STARTCHAR uni2005
ENCODING 8197
SWIDTH 250 0
DWIDTH 8 0
BBX 1 1 0 0
BITMAP
00
ENDCHAR
STARTCHAR uni2006
ENCODING 8198
SWIDTH 167 0
DWIDTH 6 0
BBX 1 1 0 0
BITMAP
00
ENDCHAR
STARTCHAR uni2007
ENCODING 8199
SWIDTH 687 0
DWIDTH 23 0
BBX 1 1 0 0
BITMAP
00
ENDCHAR
STARTCHAR uni2008
ENCODING 8200
SWIDTH 343 0
DWIDTH 12 0
BBX 1 1 0 0
BITMAP
00
ENDCHAR
STARTCHAR uni2009
ENCODING 8201
SWIDTH 200 0
DWIDTH 7 0
BBX 1 1 0 0
BITMAP
00
ENDCHAR
STARTCHAR uni200A
ENCODING 8202
SWIDTH 100 0
DWIDTH 3 0
BBX 1 1 0 0
BITMAP
00
ENDCHAR
STARTCHAR uni200B
ENCODING 8203
SWIDTH 0 0
DWIDTH 0 0
BBX 1 1 0 0
BITMAP
00
ENDCHAR
STARTCHAR uni2010
ENCODING 8208
SWIDTH 289 0
DWIDTH 10 0
BBX 8 4 3 9
BITMAP
7F
FF
FF
FE
ENDCHAR
STARTCHAR uni2011
ENCODING 8209
SWIDTH 289 0
DWIDTH 10 0
BBX 8 4 3 9
BITMAP
7F
FF
FF
FE
ENDCHAR
STARTCHAR figuredash
ENCODING 8210
SWIDTH 500 0
DWIDTH 17 0
BBX 15 4 3 8
BITMAP
FFFE
FFFE
FFFE
FFFC
ENDCHAR
STARTCHAR endash
ENCODING 8211
SWIDTH 500 0
DWIDTH 17 0
BBX 15 4 3 8
BITMAP
FFFE
FFFE
FFFE
FFFC
ENDCHAR
STARTCHAR emdash
ENCODING 8212
SWIDTH 1000 0
DWIDTH 34 0
BBX 32 3 3 8
BITMAP
7FFFFFFF
FFFFFFFF
FFFFFFFE
ENDCHAR
STARTCHAR afii00208
ENCODING 8213
SWIDTH 1000 0
DWIDTH 34 0
BBX 32 3 3 8
BITMAP
7FFFFFFF
FFFFFFFF
FFFFFFFE
ENDCHAR
STARTCHAR quoteleft
ENCODING 8216
SWIDTH 265 0
DWIDTH 9 0
BBX 9 12 4 14
BITMAP
0180
0F80
1F80
3E00
3C00
7F00
7F00
7F00
7E00
FE00
FE00
FE00
ENDCHAR
STARTCHAR quoteright
ENCODING 8217
SWIDTH 265 0
DWIDTH 9 0
BBX 9 12 4 14
BITMAP
3F80
3F80
3F00
3F00
7F00
7F00
7F00
1E00
1E00
FC00
F800
C000
ENDCHAR
STARTCHAR quotesinglbase
ENCODING 8218
SWIDTH 265 0
DWIDTH 9 0
BBX 9 13 0 -6
BITMAP
3F80
3F80
3F80
3F00
7F00
7F00
7F00
1E00
1E00
3C00
FC00
F000
C000
ENDCHAR
STARTCHAR quotereversed
ENCODING 8219
SWIDTH 265 0
DWIDTH 9 0
BBX 9 12 4 14
BITMAP
FE00
FE00
7E00
7E00
7F00
7F00
7F00
3C00
3C00
1F80
0F80
0180
ENDCHAR
STARTCHAR quotedblleft
ENCODING 8220
SWIDTH 530 0
DWIDTH 18 0
BBX 18 12 4 14
BITMAP
0180C0
0F87C0
1F8FC0
3C1F00
3C1E00
7F3F80
7F3F80
7F3F80
7E3F00
FE3F00
FE7F00
FE7F00
ENDCHAR
STARTCHAR quotedblright
ENCODING 8221
SWIDTH 530 0
DWIDTH 18 0
BBX 18 12 4 14
BITMAP
3F9FC0
3F9FC0
3F1FC0
3F1F80
7F3F80
7F3F80
1F0780
1E0F00
3E0F00
FC3E00
F87C00
C06000
ENDCHAR
STARTCHAR quotedblbase
ENCODING 8222
SWIDTH 530 0
DWIDTH 18 0
BBX 18 13 0 -6
BITMAP
3F9FC0
3F9FC0
3F1FC0
3F1F80
7F1F80
7F3F80
7F3F80
1E0F00
1E0F00
3C1E00
FC7E00
F07800
C06000
ENDCHAR
STARTCHAR uni201F
ENCODING 8223
SWIDTH 530 0
DWIDTH 18 0
BBX 18 12 4 14
BITMAP
FE7F00
FE7F00
FE3F00
7E3F00
7F3F80
7F3F80
783E00
3C1E00
3C1F00
1F0FC0
0F87C0
0180C0
ENDCHAR
STARTCHAR dagger
ENCODING 8224
SWIDTH 687 0
DWIDTH 23 0
BBX 18 31 6 -6
BITMAP
00FC00
01FC00
01FC00
01F800
01F800
01F800
01F800
01F000
7FFFC0
7FFFC0
FFFF80
FFFF80
03E000
07E000
07E000
07E000
07E000
07E000
0FC000
0FC000
0FC000
0FC000
0FC000
1FC000
1F8000
1F8000
1F8000
1F8000
3F8000
3F8000
3F0000
ENDCHAR
STARTCHAR daggerdbl
ENCODING 8225
SWIDTH 687 0
DWIDTH 23 0
BBX 20 31 4 -6
BITMAP
003F00
007F00
007F00
007E00
007E00
007E00
007E00
007C00
1FFFF0
1FFFF0
3FFFE0
3FFFE0
00F800
01F800
01F800
01F800
01F800
01F000
7FFFC0
7FFFC0
FFFF80
FFFF80
03E000
07E000
07E000
07E000
07E000
07E000
0FE000
0FE000
0FC000
ENDCHAR
STARTCHAR bullet
ENCODING 8226
SWIDTH 687 0
DWIDTH 23 0
BBX 16 13 6 3
BITMAP
1FFF
3FFF
3FFE
3FFE
3FFE
3FFE
7FFE
7FFC
7FFC
7FFC
7FFC
FFFC
FFF8
ENDCHAR
STARTCHAR ellipsis
ENCODING 8230
SWIDTH 1000 0
DWIDTH 34 0
BBX 27 4 4 0
BITMAP
780F01E0
780F01E0
F01E03C0
F01E03C0
ENDCHAR
STARTCHAR perthousand
ENCODING 8240
SWIDTH 1332 0
DWIDTH 45 0
BBX 43 25 4 0
BITMAP
07C001F00000
1FF003E00000
3FF807C00000
7FF80F800000
7CF81F000000
F8F81E000000
F8F83C000000
F8F878000000
F9F8F0000000
FFF1E0000000
7FE3C0000000
7FC780000000
1F0F00000000
001F0FC01F00
003E3FE07FC0
007C7FF0FFC0
00F8FFF1FFE0
01F0F9F3F3E0
03E1F1F3E3E0
07C1F1F3E3E0
0F81F3F3E7C0
1F01FFE3FFC0
3E00FFE3FF80
3C00FF81FF00
F8003F00FC00
ENDCHAR
STARTCHAR guilsinglleft
ENCODING 8249
SWIDTH 386 0
DWIDTH 13 0
BBX 11 16 3 1
BITMAP
0080
01C0
03E0
07C0
0F80
1F00
3F00
7E00
FC00
7E00
3E00
3F00
1F00
0F00
0E00
0400
ENDCHAR
STARTCHAR guilsinglright
ENCODING 8250
SWIDTH 386 0
DWIDTH 13 0
BBX 11 16 2 1
BITMAP
0400
0E00
1E00
1F00
1F80
0F80
0FC0
07E0
0FC0
1F80
3F00
3E00
7C00
F800
7000
2000
ENDCHAR
STARTCHAR fraction
ENCODING 8260
SWIDTH 130 0
DWIDTH 4 0
BBX 28 25 -9 0
BITMAP
000003F0
000007E0
00000FC0
00001F80
00001F00
00003E00
00007C00
0000F800
0001F000
0003E000
0007E000
000FC000
001F8000
003F0000
007E0000
007C0000
00F80000
01F00000
03E00000
07C00000
0F800000
1F800000
3F000000
7E000000
FC000000
ENDCHAR
STARTCHAR oneinferior
ENCODING 8321
SWIDTH 539 0
DWIDTH 14 0
BBX 7 15 -24 -8
BITMAP
7E
FE
3E
3C
3C
3C
3C
7C
78
78
78
78
F8
F0
F0
ENDCHAR
STARTCHAR twoinferior
ENCODING 8322
SWIDTH 539 0
DWIDTH 14 0
BBX 13 15 -21 -8
BITMAP
0FE0
1FF0
1078
0038
0038
0078
00F0
01C0
0780
0E00
1C00
3800
7800
FFE0
FFE0
ENDCHAR
STARTCHAR threeinferior
ENCODING 8323
SWIDTH 539 0
DWIDTH 14 0
BBX 12 15 -21 -8
BITMAP
1FC0
1FF0
30F0
0070
0060
01C0
1F80
3F80
01C0
00E0
00E0
00E0
C1C0
FFC0
FF00
ENDCHAR
STARTCHAR uni20A5
ENCODING 8357
SWIDTH 991 0
DWIDTH 34 0
BBX 32 32 2 -7
BITMAP
000000F8
000001F0
000003E0
000003E0
000007C0
00000F80
00000F80
0FC1FF3C
1FC7FEFF
1F8FFFFF
1F9FFFFF
1FBFFBFF
1F3BFF7F
3F73FE7E
3FE3EC7E
3FC7F87E
3F87F87E
3F87F0FE
7F0FE0FC
7E1FE0FC
7E1FE0FC
7E3FC0FC
7E7FC1FC
FE7FC1F8
FCFFC1F8
01F00000
01F00000
03E00000
07C00000
07C00000
0F800000
1F000000
ENDCHAR
STARTCHAR uni20A6
ENCODING 8358
SWIDTH 789 0
DWIDTH 27 0
BBX 26 25 3 0
BITMAP
07E007C0
07E007C0
0FF007C0
0FF00F80
0FF80F80
0FF80F80
0FFFFF80
1FFFFF80
1FFFFF00
1FFFFF00
1F7E1F00
1F7F1F00
3E3F1F00
3E3FBE00
3FFFFE00
3FFFFE00
3FFFFE00
7FFFFE00
7C07FC00
7C07FC00
7C03FC00
7C03FC00
F801FC00
F801F800
F800F800
ENDCHAR
STARTCHAR uni20A9
ENCODING 8361
SWIDTH 991 0
DWIDTH 34 0
BBX 31 25 6 0
BITMAP
FC07E03E
FC07E03C
FC07E07C
FC0FE078
FC0FE0F8
FC1FE0F0
FDFFFFF0
FDFFFFF0
FDFFFFE0
FDFFFFE0
FC7FE3C0
7C7FE7C0
7CF7E780
7EF7EF80
7FFFFF80
7FFFFF80
7FFFFF80
7FFFFF80
7FC7FE00
7FC7FC00
7F87FC00
7F87F800
7F07F800
7F07F000
7F07F000
ENDCHAR
STARTCHAR Euro
ENCODING 8364
SWIDTH 737 0
DWIDTH 25 0
BBX 31 25 -3 0
BITMAP
00001FF0
0000FFFE
0003FFFE
000FFFFE
001FF03C
003FC004
3FFFFC00
3FFFFC00
3FFFF800
3FFFF800
01FC0000
01FC0000
03F80000
03F80000
7FFFF000
7FFFF000
FFFFF000
FFFFF000
03FC0000
01FE0020
01FF01E0
00FFFFE0
007FFFE0
003FFFE0
000FFC00
ENDCHAR
STARTCHAR uni20AD
ENCODING 8365
SWIDTH 753 0
DWIDTH 26 0
BBX 23 25 3 0
BITMAP
07E03E
07E07C
0FE0F8
0FE1F0
0FC1F0
0FC3E0
0FC7C0
1FCF80
1FCF00
1F9F00
FFFFFE
FFFFFE
FFFFFE
FFFFFE
3F7F80
3F3F80
3F1FC0
7F1FC0
7F0FE0
7F0FE0
7E07F0
7E07F0
FE03F8
FE03F8
FE01FC
ENDCHAR
STARTCHAR uni2103
ENCODING 8451
SWIDTH 966 0
DWIDTH 33 0
BBX 30 25 6 0
BITMAP
78003FE0
F801FFFC
CC07FFFC
CC1FFFFC
F83FE078
787F8008
00FF0000
00FE0000
01FC0000
01F80000
03F80000
03F80000
07F00000
07F00000
07F00000
07F00000
07F00000
07F00000
07F80000
03FC0040
03FE03C0
01FFFFC0
00FFFFC0
007FFFC0
001FF800
ENDCHAR
STARTCHAR uni2109
ENCODING 8457
SWIDTH 843 0
DWIDTH 29 0
BBX 27 25 6 0
BITMAP
783FFFE0
F83FFFE0
CC3FFFC0
CC7FFFC0
F87F0000
787F0000
007E0000
007E0000
00FE0000
00FE0000
00FE0000
00FFFE00
00FFFC00
01FFFC00
01FFFC00
01FC0000
01F80000
01F80000
03F80000
03F80000
03F80000
03F00000
03F00000
07F00000
07F00000
ENDCHAR
STARTCHAR trademark
ENCODING 8482
SWIDTH 901 0
DWIDTH 31 0
BBX 30 13 5 12
BITMAP
7FFDF0FC
FFF9F1FC
FFFBF9FC
FFFBFBF8
0F83FBF8
1F83FBF8
1F83FFF8
1F87FFF8
1F87BDF0
1F07BDF0
3F073BF0
3F073BF0
3F0F03F0
ENDCHAR
STARTCHAR uni212A
ENCODING 8490
SWIDTH 753 0
DWIDTH 26 0
BBX 23 25 3 0
BITMAP
07E03E
07E07C
0FE0F8
0FE1F0
0FC1F0
0FC3E0
0FC7C0
1FCF80
1FCF00
1F9F00
1FBE00
1FFE00
3FFE00
3FFF00
3F7F80
3F3F80
3F1FC0
7F1FC0
7F0FE0
7F0FE0
7E07F0
7E07F0
FE03F8
FE03F8
FE01FC
ENDCHAR
STARTCHAR uni212B
ENCODING 8491
SWIDTH 771 0
DWIDTH 26 0
BBX 25 32 1 0
BITMAP
00007000
0000F800
0000D800
0000F800
00007000
00000000
00000000
0007F000
0007F000
000FF800
000FF800
001FF800
001FF800
003FF800
003DFC00
007DFC00
00F8FC00
00F8FC00
01F0FC00
01F0FE00
03E0FE00
03E07E00
07FFFE00
07FFFE00
0FFFFF00
0FFFFF00
1F003F00
1E003F00
3E003F00
7C003F80
7C003F80
F8001F80
ENDCHAR
STARTCHAR uni2132
ENCODING 8498
SWIDTH 614 0
DWIDTH 21 0
BBX 22 25 3 0
BITMAP
0001FC
0001FC
0001F8
0001F8
0003F8
0003F8
0003F8
0003F0
0003F0
0007F0
07FFF0
07FFF0
07FFE0
0FFFE0
000FE0
000FE0
000FE0
000FC0
000FC0
001FC0
001FC0
7FFFC0
7FFF80
FFFF80
FFFF80
ENDCHAR
STARTCHAR minus
ENCODING 8722
SWIDTH 687 0
DWIDTH 23 0
BBX 20 4 4 8
BITMAP
7FFFF0
7FFFF0
FFFFE0
FFFFE0
ENDCHAR
STARTCHAR fraction
ENCODING 8725
SWIDTH 130 0
DWIDTH 4 0
BBX 28 25 -9 0
BITMAP
000003F0
000007E0
00000FC0
00001F80
00001F00
00003E00
00007C00
0000F800
0001F000
0003E000
0007E000
000FC000
001F8000
003F0000
007E0000
007C0000
00F80000
01F00000
03E00000
07C00000
0F800000
1F800000
3F000000
7E000000
FC000000
ENDCHAR
STARTCHAR periodcentered
ENCODING 8729
SWIDTH 343 0
DWIDTH 23 0
BBX 6 4 11 8
BITMAP
7C
7C
F8
F8
ENDCHAR
STARTCHAR uni2236
ENCODING 8758
SWIDTH 343 0
DWIDTH 12 0
BBX 10 18 3 0
BITMAP
1FC0
1FC0
1FC0
1F80
1F80
1F80
3F80
0000
0000
0000
0000
7F00
7E00
7E00
7E00
FE00
FE00
FC00
ENDCHAR
STARTCHAR uni2259
ENCODING 8793
SWIDTH 687 0
DWIDTH 23 0
BBX 22 17 3 4
BITMAP
007E00
00FE00
01EF00
078780
000000
3FFFFC
3FFFFC
3FFFF8
3FFFF8
000000
000000
000000
000000
7FFFF0
7FFFF0
FFFFF0
FFFFF0
ENDCHAR
STARTCHAR uni225A
ENCODING 8794
SWIDTH 687 0
DWIDTH 23 0
BBX 22 17 3 4
BITMAP
078780
03DE00
01FC00
01F800
000000
3FFFFC
3FFFFC
3FFFF8
3FFFF8
000000
000000
000000
000000
7FFFF0
7FFFF0
FFFFF0
FFFFF0
ENDCHAR
STARTCHAR notequal
ENCODING 8800
SWIDTH 687 0
DWIDTH 23 0
BBX 26 32 1 -6
BITMAP
000007C0
00000F80
00001F00
00001F00
00003E00
00007C00
00007C00
0000F800
0001F000
0001F000
0FFFFF00
0FFFFF00
0FFFFE00
0FFFFE00
000F0000
001F0000
003E0000
003C0000
1FFFFC00
1FFFFC00
3FFFFC00
3FFFFC00
03E00000
03C00000
07C00000
0F800000
0F800000
1F000000
3E000000
3E000000
7C000000
F8000000
ENDCHAR
STARTCHAR equivalence
ENCODING 8801
SWIDTH 687 0
DWIDTH 23 0
BBX 22 14 0 3
BITMAP
FFFFFC
FFFFFC
FFFFFC
FFFFFC
000000
FFFFFC
FFFFFC
FFFFFC
FFFFFC
000000
FFFFFC
FFFFFC
FFFFFC
FFFFFC
ENDCHAR
STARTCHAR uni2262
ENCODING 8802
SWIDTH 687 0
DWIDTH 23 0
BBX 26 32 -2 -6
BITMAP
000007C0
00000F80
00001F00
00001F00
00003E00
00007C00
00007C00
0000F800
0001F000
3FFFFF00
3FFFFF00
3FFFFF00
3FFFFF00
000F8000
3FFFFF00
3FFFFF00
3FFFFF00
3FFFFF00
007C0000
3FFFFF00
3FFFFF00
3FFFFF00
3FFFFF00
03C00000
07C00000
0F800000
0F800000
1F000000
3E000000
3E000000
7C000000
F8000000
ENDCHAR
STARTCHAR lessequal
ENCODING 8804
SWIDTH 687 0
DWIDTH 23 0
BBX 22 26 4 -5
BITMAP
000004
00001C
00007C
0001F8
0007F8
001FE0
007F80
01FE00
07F800
3FE000
FF8000
3F8000
0FE000
07F800
01FC00
007F00
003FC0
000FE0
0003E0
0000C0
000040
000000
FFFFFC
FFFFFC
FFFFFC
FFFFFC
ENDCHAR
STARTCHAR greaterequal
ENCODING 8805
SWIDTH 687 0
DWIDTH 23 0
BBX 22 26 2 -5
BITMAP
080000
0C0000
1F0000
1FC000
0FF000
03F800
00FE00
007F80
001FC0
0007F0
0007FC
001FF0
007F80
01FE00
07F800
1FE000
7F8000
7E0000
780000
E00000
800000
000000
FFFFFC
FFFFFC
FFFFFC
FFFFFC
ENDCHAR
STARTCHAR uni226E
ENCODING 8814
SWIDTH 687 0
DWIDTH 23 0
BBX 26 32 2 -5
BITMAP
000007C0
00000F80
00001F00
00001F00
00003E00
00007C00
00007D00
0000FF00
0001FF00
0001FE00
0003FE00
0007F800
001FE000
007F8000
01FF0000
0FFF0000
3FFE0000
0FFC0000
03FC0000
01FE0000
00FF0000
01FFC000
03EFF000
03C3F800
07C0F800
0F803000
0F801000
1F000000
3E000000
3E000000
7C000000
F8000000
ENDCHAR
STARTCHAR uni226F
ENCODING 8815
SWIDTH 687 0
DWIDTH 23 0
BBX 26 32 0 -5
BITMAP
000007C0
00000F80
00001F00
00001F00
00003E00
00007C00
02007C00
0300F800
07C1F000
07F1F000
03FFE000
00FFC000
003FC000
001FE000
000FF000
001FFC00
003FFF00
003FFC00
007FE000
00FF8000
01FE0000
07F80000
1FE00000
1FC00000
1FC00000
3F800000
2F800000
1F000000
3E000000
3E000000
7C000000
F8000000
ENDCHAR
STARTCHAR uni2270
ENCODING 8816
SWIDTH 687 0
DWIDTH 23 0
BBX 26 32 2 -8
BITMAP
000007C0
00000F80
00001F00
00001F00
00003F00
00007F00
00007E00
0001FE00
0007F800
001FF000
007FE000
01FFC000
0FFFC000
3FEF8000
0FEF0000
03FF0000
01FE0000
007F0000
007FC000
00FFF000
00F3F800
01F0F800
03E03000
03C01000
07C00000
3FFFFF00
3FFFFF00
3FFFFF00
3FFFFF00
3E000000
7C000000
F8000000
ENDCHAR
STARTCHAR uni2271
ENCODING 8817
SWIDTH 687 0
DWIDTH 23 0
BBX 26 32 0 -8
BITMAP
000007C0
00000F80
00001F00
02001F00
03003E00
07C07C00
07F07C00
03FCF800
00FFF000
003FF000
001FE000
0007F000
0007FC00
000FFF00
000FFC00
001FE000
007F8000
01FE0000
07FC0000
1FF80000
1FF00000
1FF00000
3BE00000
23C00000
07C00000
3FFFFF00
3FFFFF00
3FFFFF00
3FFFFF00
3E000000
7C000000
F8000000
ENDCHAR
STARTCHAR fi
ENCODING -1
SWIDTH 695 0
DWIDTH 24 0
BBX 23 33 2 -7
BITMAP
000FE0
007FF0
00FFF0
01FFE0
03F820
03F000
07F000
07F000
1FFFFE
3FFFFE
3FFFFC
3FFFFC
0FE0FC
0FE1FC
0FC1FC
0FC1F8
1FC1F8
1FC1F8
1F83F8
1F83F8
1F83F0
3F83F0
3F87F0
3F07F0
3F07F0
3F07E0
7F0000
7F0000
7E0000
7E0000
7E0000
FE0000
FE0000
ENDCHAR
STARTCHAR fl
ENCODING -1
SWIDTH 695 0
DWIDTH 24 0
BBX 25 33 2 -7
BITMAP
000FFF80
003FFF80
00FFFF00
01FFFF00
01F83F00
03F07F00
03F07F00
07F07E00
1FFE7E00
3FFEFE00
3FFCFE00
3FFCFE00
0FE0FC00
0FE0FC00
0FC1FC00
0FC1FC00
1FC1FC00
1FC1F800
1FC1F800
1F83F800
1F83F800
3F83F800
3F83F000
3F83F000
3F07F000
3F07F000
7F000000
7F000000
7F000000
7E000000
7E000000
FE000000
FE000000
ENDCHAR
ENDFONT
